<svg xmlns="http://www.w3.org/2000/svg" viewBox="0 0 239.17 86.93"><defs><style>.cls-1{fill:#e2e2e2;}.cls-2{font-size:35.22px;fill:#231f20;font-family:Bangers-Regular, Bangers;}.cls-3{fill:#d2d2d1;}</style></defs><title>border</title><g id="Layer_2" data-name="Layer 2"><g id="Layer_1-2" data-name="Layer 1"><path class="cls-1" d="M.74,39.42c3.51,27.29,13.94,45.69,24,45.88,8.33.16,16.61-12.18,19.8-16.94A57,57,0,0,0,53.3,46.18Z"/><path class="cls-1" d="M131.23,49.07A53.1,53.1,0,0,1,126,60c-3.26,5.23-5.56,8.9-8.34,9.18-4.5.46-9.89-8-13.68-20.33Z"/><path class="cls-1" d="M77.86,48c1,2.66,7.86,21.57,14,20.77,2.08-.27,4-3.28,7.72-9.3a96.8,96.8,0,0,0,5.72-10.55Z"/><path class="cls-1" d="M52,45.77c.83,2.7,6.87,21.91,13,21.38,2.09-.18,4.11-3.1,8.14-8.94a96.8,96.8,0,0,0,6.2-10.28Z"/><path class="cls-1" d="M158.59,48.64a53.1,53.1,0,0,1-5.2,11c-3.27,5.24-5.53,8.87-8.34,9.18-4.51.51-10-7.56-13.81-19.48Z"/><path class="cls-1" d="M186.34,46.35a50,50,0,0,1-5.6,13.27c-3,5-5.39,8.9-8.34,9.18-4.72.46-10.31-8.26-14.21-21.07Z"/><path class="cls-1" d="M237.29,40.78c-3.85,27.17-14,45.69-23.9,45.87-8.58.16-17-12.54-19.86-16.86a54.39,54.39,0,0,1-8.46-22.89Z"/><path class="cls-1" d="M.74,40.4A127.89,127.89,0,0,1,2.81,0H237.29a115.81,115.81,0,0,1,0,41.63,835.24,835.24,0,0,1-119.94,7.79A834.74,834.74,0,0,1,.74,40.4Z"/><text class="cls-2" transform="translate(29.36 37.07)">Meet the gang</text><path class="cls-3" d="M5.74,59.8c.44-.22,7.1,22.8,19,23.78,9.32.77,18-12.15,23.59-22.52A42.47,42.47,0,0,1,39,76.76C35,81,30.32,86,24.82,85.87,12.38,85.7,5.28,60,5.74,59.8Z"/><path class="cls-3" d="M232.45,60.85c-.44-.22-7.1,22.8-19,23.78-9.32.77-18-12.15-23.59-22.52a42.47,42.47,0,0,0,9.33,15.7c4,4.26,8.67,9.19,14.17,9.12C225.81,86.75,232.91,61.08,232.45,60.85Z"/><path class="cls-3" d="M57.68,56.83c2.1,5.52,5,9.31,7.53,9,.33,0,1.2-.2,3.47-2.71a31.62,31.62,0,0,0,4.82-7.08,50.84,50.84,0,0,1-4.39,5.67c-2.69,3-3.56,3.25-4.2,3.25-1.67,0-2.94-1.59-4.5-3.56A19.63,19.63,0,0,1,57.68,56.83Z"/><path class="cls-3" d="M84,58.21c2.1,5.52,5,9.31,7.53,9,.33,0,1.2-.2,3.47-2.71a31.62,31.62,0,0,0,4.82-7.08,50.84,50.84,0,0,1-4.39,5.67c-2.69,3-3.56,3.25-4.2,3.25-1.67,0-2.94-1.59-4.5-3.56A19.63,19.63,0,0,1,84,58.21Z"/><path class="cls-3" d="M110.2,59.17c2.1,5.52,5,9.31,7.53,9,.33,0,1.2-.2,3.47-2.71A31.62,31.62,0,0,0,126,58.41a50.84,50.84,0,0,1-4.39,5.67c-2.69,3-3.56,3.25-4.2,3.25-1.67,0-2.94-1.59-4.5-3.56A19.63,19.63,0,0,1,110.2,59.17Z"/><path class="cls-3" d="M137.7,58.21c2.1,5.52,5,9.31,7.53,9,.33,0,1.2-.2,3.47-2.71a31.62,31.62,0,0,0,4.82-7.08,50.84,50.84,0,0,1-4.39,5.67c-2.69,3-3.56,3.25-4.2,3.25-1.67,0-2.94-1.59-4.5-3.56A19.63,19.63,0,0,1,137.7,58.21Z"/><path class="cls-3" d="M165,58.21c2.1,5.52,5,9.31,7.53,9,.33,0,1.2-.2,3.47-2.71a31.62,31.62,0,0,0,4.82-7.08,50.84,50.84,0,0,1-4.39,5.67c-2.69,3-3.56,3.25-4.2,3.25-1.67,0-2.94-1.59-4.5-3.56A19.63,19.63,0,0,1,165,58.21Z"/></g></g></svg>