<svg xmlns="http://www.w3.org/2000/svg" viewBox="0 0 97.8 90.22"><defs><style>.cls-1{fill:#2376bc;}.cls-2{fill:#60bbe5;}.cls-3{fill:#2250a3;}.cls-4{fill:#201b49;opacity:0.2;}.cls-13,.cls-16,.cls-21,.cls-26,.cls-4,.cls-5,.cls-9{isolation:isolate;}.cls-5{fill:#2d58a8;opacity:0.58;}.cls-6{fill:#dc8763;}.cls-7{fill:#3092d0;}.cls-8{fill:#909faf;}.cls-9{fill:#afc4d3;opacity:0.4;}.cls-10{fill:#2ab0e0;}.cls-11{fill:#213f99;}.cls-12{fill:#d8c2d4;}.cls-13{fill:#e8dedd;opacity:0.78;}.cls-14{fill:#f2fafb;}.cls-15{fill:#a64d9d;}.cls-16{fill:#e1b1d2;opacity:0.51;}.cls-17{fill:none;stroke:#000;stroke-miterlimit:10;stroke-width:1.96px;}.cls-18{fill:#9d5aa4;}.cls-19{fill:#924f9f;}.cls-20{fill:#5b4da0;}.cls-21{fill:#b986bb;opacity:0.79;}.cls-22{fill:#67422f;}.cls-23{fill:#9b6146;}.cls-24{fill:#181715;}.cls-25{fill:#2d4754;}.cls-26{fill:#2c96d3;opacity:0.53;}</style></defs><title>harrypotter-icon</title><g id="Layer_2" data-name="Layer 2"><g id="Layer_1-2" data-name="Layer 1"><path class="cls-1" d="M23.8,12.33a18.42,18.42,0,0,0-4-1.57,18.62,18.62,0,0,0-7-.45A17.76,17.76,0,0,0,2.36,7.5a6.73,6.73,0,0,1,4,3.21c1.52,3.33-1.88,6.54-.68,9.43.64,1.54,2.66,3.14,8.48,3.61a10.46,10.46,0,0,0,9.66-11.2Z"/><path class="cls-2" d="M21,15c-.39-.17-1-.45-1.72-.83-1.14-.6-1.23-.75-1.78-1-1.06-.43-1.31-.11-3-.38-1.35-.22-1.24-.43-2.88-.75A14.74,14.74,0,0,1,9,11.58,7.57,7.57,0,0,1,6.7,9.83a10.77,10.77,0,0,1,2.16,3.68c.64,2.58-1,4-.42,5.45.47,1.27,2.47,2.49,8.95,2.44A7.29,7.29,0,0,0,21,15Z"/><path class="cls-3" d="M6.88,9.9a8.32,8.32,0,0,0,4.9,3c1.41.23,2.25-.13,4,.49A11.4,11.4,0,0,1,18.59,15a15.71,15.71,0,0,1,2.3,2l.29-2a14.43,14.43,0,0,0-6.91-2.55,17.62,17.62,0,0,1-7.4-2.6Z"/><path class="cls-1" d="M69.5,12.89a18.42,18.42,0,0,1,4-1.57,18.62,18.62,0,0,1,7-.45A17.76,17.76,0,0,1,91,8a6.73,6.73,0,0,0-4,3.21c-1.52,3.33,1.88,6.54.68,9.43C87,22.21,85,23.81,79.18,24.28a10.46,10.46,0,0,1-9.7-11.17Z"/><path class="cls-2" d="M72.32,15.53c.39-.17,1-.45,1.72-.83,1.14-.6,1.23-.75,1.78-1,1.06-.43,1.31-.11,3-.38,1.35-.22,1.24-.43,2.88-.75a14.74,14.74,0,0,0,2.6-.43,7.57,7.57,0,0,0,2.32-1.79A10.77,10.77,0,0,0,84.5,14c-.64,2.58,1,4,.42,5.45C84.45,20.75,82.45,22,76,21.92a7.29,7.29,0,0,1-3.62-6.42Z"/><path class="cls-3" d="M86.45,10.46a8.32,8.32,0,0,1-4.9,3c-1.41.23-2.25-.13-4,.49a11.4,11.4,0,0,0-2.83,1.6,15.71,15.71,0,0,0-2.3,2l-.29-2A14.43,14.43,0,0,1,79.05,13a17.62,17.62,0,0,0,7.4-2.6Z"/><ellipse class="cls-4" cx="45.91" cy="86.32" rx="45.91" ry="3.9"/><path class="cls-1" d="M80.91,51.46c-2.61,8.26-2.8,15.3-1.27,19A12.23,12.23,0,0,0,83,75.26a7.28,7.28,0,0,0,3.53,1.63,7.74,7.74,0,0,0,5.31-1.5A11.25,11.25,0,0,0,96.43,69c.36-1.44.45-3.17-1.94-10.17-1.85-5.42-2.76-8.13-4.67-11.62a55.3,55.3,0,0,0-7.26-10.28Z"/><path class="cls-1" d="M83.32,18.91c.09-.38-2.63-2.14-4.74-1.29-1,.39-1.26,1.11-2.41,1.22-.19,0-1.48.14-2-.56s.29-1.83-.38-2.72a4.4,4.4,0,0,0-.34-.38,6.58,6.58,0,0,0-1.05-.88,6.79,6.79,0,0,0-2.09-.93,3.55,3.55,0,0,1,1.94-1.12,2.29,2.29,0,0,0-.48-.66A2.88,2.88,0,0,0,69.5,11a16.08,16.08,0,0,1,3.28-2.42,3.8,3.8,0,0,0-4.85.33A13.6,13.6,0,0,0,66,4a1.67,1.67,0,0,1-.45,1.71A8.18,8.18,0,0,0,63.5,4.51,8.29,8.29,0,0,0,59.85,4a2.14,2.14,0,0,1,.44-.81,2.81,2.81,0,0,1,2.44-.72A37.12,37.12,0,0,0,53.81,2a4.81,4.81,0,0,1,.52-.73A4.91,4.91,0,0,1,55.82,0,16.85,16.85,0,0,0,47,2.79,14.68,14.68,0,0,0,38,.16,1.83,1.83,0,0,1,39.77,1a1.6,1.6,0,0,1,.16,1,12.63,12.63,0,0,0-8.28.81,1.57,1.57,0,0,1,1.79-.14,1.49,1.49,0,0,1,.61.93,14.44,14.44,0,0,0-5.49,1.73c-.08,0-.38.17-.53,0s-.13-.62.21-1.17a2.25,2.25,0,0,0-1,1,2.87,2.87,0,0,0-.09,1.38,4.55,4.55,0,0,1-.65,2.58A3.17,3.17,0,0,0,24.84,7.9a3.33,3.33,0,0,0-3.27.84,2.41,2.41,0,0,1,3.24.44,2.28,2.28,0,0,1,0,2c-.39.09-.81.19-1.24.33a16.58,16.58,0,0,0-1.7.62,3.91,3.91,0,0,1,2.19,1.44,13,13,0,0,0-3.56,2.68,3,3,0,0,1-1.93,3A6.52,6.52,0,0,0,15.13,18a6.6,6.6,0,0,0-4.22,1.26,2.58,2.58,0,0,1,2,.48,2.54,2.54,0,0,1,.92,1.52l-.62,4.09a11.07,11.07,0,0,0-3.78,6.76A9.3,9.3,0,0,0,8,33.64,9.42,9.42,0,0,0,6.5,36.85a1.79,1.79,0,0,1,1.21-.57,1.68,1.68,0,0,1,.79.17,10.48,10.48,0,0,0-1,1.65,10.6,10.6,0,0,0-1,3.36A1.25,1.25,0,0,1,7.3,41a1.18,1.18,0,0,1,.57.12c-.31,2-.57,4-.75,6.11a90.46,90.46,0,0,0,3.07,32.07,1.21,1.21,0,0,0-.82.32,1.18,1.18,0,0,0-.36.93,1.65,1.65,0,0,0,.8,1.12c2,1.47,5.43,1.27,5.43,1.27a15.66,15.66,0,0,0,6.68-2c.44-1,.88-2.07,1.28-3.24a38.28,38.28,0,0,0,1.41-5.33,25.46,25.46,0,0,0,.59,7.35c.32,1.33,1,3.39-.07,5-.3.46-.56.61-.51.87.22,1.1,5.31,1,9.06.85,2-.06,4.71-.2,8-.53a15.44,15.44,0,0,0,2.77-7.86h5.29A13.81,13.81,0,0,0,52,85.55a34.68,34.68,0,0,0,16.66-1,8.73,8.73,0,0,1-.7-2.64,12.22,12.22,0,0,1,.44-4,20.37,20.37,0,0,0,.31-5.24l1.12-.45L85.85,40.8a1.2,1.2,0,0,1,1.12.75,5.77,5.77,0,0,0-1.71-5.07,1.82,1.82,0,0,1,.88-.18,1.86,1.86,0,0,1,1.13.48,12.72,12.72,0,0,0-3.06-4.92,14.94,14.94,0,0,0-3.64-7A9.12,9.12,0,0,0,80.32,21a2.66,2.66,0,0,1,.88-1.48C82.13,18.77,83.27,19.15,83.32,18.91Z"/><path class="cls-5" d="M68.68,73.15v1a13.74,13.74,0,0,1-.06,1.59,49.48,49.48,0,0,1-18.79,4.55,4.82,4.82,0,0,0-.09-.75c0-.21-.07-.44-.13-.74a6.26,6.26,0,0,0-.19-.71,52.46,52.46,0,0,0,19.24-4.9Z"/><path class="cls-6" d="M84.2,16.87"/><path class="cls-7" d="M10,55.37a31.55,31.55,0,0,0,.7,17.82,29.58,29.58,0,0,0,3,6.24,5.63,5.63,0,0,0,5.66-7.54,29.51,29.51,0,0,1-3.91-4.25A30.47,30.47,0,0,1,10,55.37Z"/><path class="cls-5" d="M24.6,72.47v1.68a11.26,11.26,0,0,0,.06,1.48,53.46,53.46,0,0,0,19.53,4.64q.1-.54.23-1.12T44.7,78a42.31,42.31,0,0,1-10.81-1.58A38.9,38.9,0,0,1,24.6,72.47Z"/><path class="cls-3" d="M9.78,44.22V47l1.84-1.4c0,4.91.93,14.76,7.86,22.52,13.8,15.46,44.14,14.28,56.7-1.65,5.87-7.45,6.43-16.31,6.39-20.7L84.11,47l.39-2.62L82.58,43a35.63,35.63,0,0,1-71.08-.14Z"/><path class="cls-8" d="M20.25,19.44a14.11,14.11,0,0,1-1.43-3.15A14.92,14.92,0,0,1,18.72,8a1.42,1.42,0,0,1,.92-1.22A1.49,1.49,0,0,1,21,7a13.38,13.38,0,0,0,4.12,4.52,9.72,9.72,0,0,1-4.85,7.88Z"/><path class="cls-8" d="M75,20.48a14.11,14.11,0,0,0,1.32-3.19A14.92,14.92,0,0,0,76.14,9a1.42,1.42,0,0,0-1-1.19,1.49,1.49,0,0,0-1.34.27,13.38,13.38,0,0,1-4,4.65,9.72,9.72,0,0,0,5.11,7.71Z"/><path class="cls-9" d="M20.44,7.42a21.84,21.84,0,0,0,1.74,8.67,5.6,5.6,0,0,0,2.1-3.55,9.47,9.47,0,0,1-1.6-1.33A9.75,9.75,0,0,1,20.44,7.42Z"/><path class="cls-9" d="M74.27,8.48a21.84,21.84,0,0,1-1.61,8.7,5.6,5.6,0,0,1-2.16-3.52,9.47,9.47,0,0,0,1.58-1.36A9.75,9.75,0,0,0,74.27,8.48Z"/><path class="cls-10" d="M24.91,10.8l-.14-.43a3,3,0,0,0-.7-.88,3.44,3.44,0,0,0-2.57-.75,3.76,3.76,0,0,1,3.54-1,2.6,2.6,0,0,1,1,.49,2.57,2.57,0,0,1,.55.59,6,6,0,0,1,.54-3.38A5.81,5.81,0,0,1,28.5,3.75a2.63,2.63,0,0,0-.26,1.1,2.57,2.57,0,0,0,.06.61,7.66,7.66,0,0,1,5.77-1.83A1.92,1.92,0,0,0,33.43,3a2.14,2.14,0,0,0-1.75-.14A9.3,9.3,0,0,1,36.4,1.4,9.19,9.19,0,0,1,40,2a2.09,2.09,0,0,0-.47-1A2.19,2.19,0,0,0,38,.21a10.7,10.7,0,0,1,9,2.63A12.61,12.61,0,0,1,55.82,0,4.91,4.91,0,0,0,54.33,1.2a4.81,4.81,0,0,0-.52.73,15.79,15.79,0,0,1,8.92.48,3.08,3.08,0,0,0-2,.52,3,3,0,0,0-.92,1,5.79,5.79,0,0,1,3.72.24,5.62,5.62,0,0,1,2,1.47A1.67,1.67,0,0,0,66,4,5.06,5.06,0,0,1,67.5,5.81a5.14,5.14,0,0,1,.4,3.09,3.66,3.66,0,0,1,2.72-1.5,3.61,3.61,0,0,1,2.65,1.06A13.79,13.79,0,0,0,69.5,11a4.39,4.39,0,0,1,2.44.36,4.06,4.06,0,0,1,.68.41,1.41,1.41,0,0,0-1.41.65.75.75,0,0,0,0,.32,6,6,0,0,1,2.72,2.83c.65,1.54.21,2.78.86,3.11.86.43,2-1.52,3.9-1.84s3.48.9,4.72,2.08a2.79,2.79,0,0,0-2.13.59A2.7,2.7,0,0,0,80.4,21a9.12,9.12,0,0,1,.25,3.86,57.46,57.46,0,0,1,.56,13.92l-1.44-1.34a26.17,26.17,0,0,1-.8,9.1A31.24,31.24,0,0,1,70.37,60c-10.32,9.39-32.8,13.29-46.09.71-8.44-8-9.39-19.06-9.52-22.94l-.75.42-1,.54q.09-3.74.16-7.51.06-2.9.11-5.78a5.41,5.41,0,0,1-.32-2,5.48,5.48,0,0,1,.77-2.66,2.47,2.47,0,0,0-.75-1,2.65,2.65,0,0,0-2-.48,6.5,6.5,0,0,1,7.69-.67,4.87,4.87,0,0,1,.79-2.32c.61-.9,1.28-1.16,2.47-2.15A16.38,16.38,0,0,0,24,12a2.16,2.16,0,0,0-.59-.19,2.34,2.34,0,0,0-1.47.26,5.57,5.57,0,0,1,3-1.32Z"/><path class="cls-1" d="M14.19,24.56a50.15,50.15,0,0,0-1.25,14.1l1.73-1c0,2.83.13,12,6.78,19.74,8.49,9.86,21,9.73,25.38,9.69,2.94,0,19.9-.18,28.43-13.43A29.3,29.3,0,0,0,79.7,37.37l1.44,1.34-1.3-14A27.29,27.29,0,0,1,84.5,44.41L82.58,43A30.88,30.88,0,0,1,79.5,57.88C73.06,70.74,58.14,76.1,46.42,76c-2.89,0-18.57-.14-28.28-12.86A33.71,33.71,0,0,1,11.5,42.89L9.77,44.22a37.69,37.69,0,0,1,4.41-19.66Z"/><path class="cls-11" d="M44.4,79a2.18,2.18,0,0,1-.15.69,26.19,26.19,0,0,1-11.44-2.94A42,42,0,0,0,44.4,79Z"/><path class="cls-2" d="M25,36.56a14,14,0,0,1-8.11-13.64h1.25A14.67,14.67,0,0,0,20,29.69a15.07,15.07,0,0,0,7.57,6.5Z"/><path class="cls-2" d="M68.5,36.8a14,14,0,0,0,8.1-13.64H75.35a14.67,14.67,0,0,1-1.85,6.77,15.07,15.07,0,0,1-7.57,6.5Z"/><path class="cls-11" d="M49.67,79a1,1,0,0,0,.15.69,26.19,26.19,0,0,0,11.44-2.94A42,42,0,0,1,49.67,79Z"/><circle class="cls-12" cx="32.44" cy="24.65" r="9.72"/><path class="cls-13" d="M41.56,23.1a7.44,7.44,0,0,1-.7,4.46c-2,3.93-7.22,4.28-8.23,4.34-1.24.08-6.64.25-8.92-3.39a7.27,7.27,0,0,1-1-3.86A9.82,9.82,0,0,1,25.5,17.9,9.67,9.67,0,0,1,36,15.61C40.7,17.63,41.5,22.8,41.56,23.1Z"/><path class="cls-14" d="M40.8,23.87c-.35,3.78-4.53,6.31-8.2,6.28s-7.68-2.55-8-6.28c-.37-4.06,3.86-7.73,8.11-7.73S41.17,19.8,40.8,23.87Z"/><circle class="cls-15" cx="36.42" cy="24.89" r="2.92"/><circle cx="36.42" cy="24.89" r="1.36"/><path class="cls-16" d="M34.24,22.95a2.5,2.5,0,0,0,4.62.28,2.9,2.9,0,0,0-2-1.38A3,3,0,0,0,34.24,22.95Z"/><circle class="cls-12" cx="61.07" cy="24.81" r="9.72"/><path class="cls-13" d="M52,23.26a7.44,7.44,0,0,0,.7,4.46c2,3.93,7.22,4.28,8.23,4.34,1.24.08,6.64.25,8.92-3.39a7.27,7.27,0,0,0,1-3.86A9.82,9.82,0,0,0,68.06,18,9.67,9.67,0,0,0,57.5,15.77C52.82,17.79,52,23,52,23.26Z"/><path class="cls-14" d="M52.72,24c.35,3.78,4.53,6.31,8.2,6.28s7.68-2.55,8-6.28c.37-4.06-3.86-7.73-8.11-7.73S52.35,20,52.72,24Z"/><circle class="cls-15" cx="57.09" cy="25.05" r="2.92"/><circle cx="57.09" cy="25.05" r="1.36"/><path class="cls-16" d="M59.27,23.11a2.5,2.5,0,0,1-4.62.28,2.9,2.9,0,0,1,2-1.38A3,3,0,0,1,59.27,23.11Z"/><path d="M43.59,24v2.14a5.26,5.26,0,0,1,6.34-.06V23.92a7.94,7.94,0,0,0-3.24-.59A7.85,7.85,0,0,0,43.59,24Z"/><circle class="cls-17" cx="30.93" cy="23.65" r="12"/><circle class="cls-17" cx="62.56" cy="23.9" r="12"/><path class="cls-1" d="M41.81,2.37,39.5,8.48h3.73L41.9,14.37l3-7.22L41.16,7Z"/><path d="M17,20.84h.75a1,1,0,0,1,1,1h0a1,1,0,0,1-1,1H17a1,1,0,0,1-1-1h0A1,1,0,0,1,17,20.84Z"/><path d="M75.85,21.08h.75a1,1,0,0,1,1,1h0a1,1,0,0,1-1,1h-.75a1,1,0,0,1-1-1h0A1,1,0,0,1,75.85,21.08Z"/><path class="cls-7" d="M25.33,36.42a.57.57,0,0,0,.12,1,23.62,23.62,0,0,1,9.85.08.56.56,0,0,0,.32-.59.57.57,0,0,0-.32-.38,28.41,28.41,0,0,0-10-.12Z"/><path class="cls-7" d="M58.5,36.68a.57.57,0,0,0,.12,1,23.62,23.62,0,0,1,9.85.08.56.56,0,0,0,.32-.59.57.57,0,0,0-.32-.38,28.41,28.41,0,0,0-10-.12Z"/><ellipse class="cls-18" cx="46.76" cy="34.03" rx="6.32" ry="3.53"/><path class="cls-19" d="M41,35.54a2.43,2.43,0,0,0,2.76,0l5.89.12a3.16,3.16,0,0,0,2.75,0,8.74,8.74,0,0,1-1.6,1,9.2,9.2,0,0,1-4.28.9,8.06,8.06,0,0,1-4-.91A7.24,7.24,0,0,1,41,35.54Z"/><path class="cls-20" d="M43.72,35.43c0,.35-.84.55-1.39.54S41,35.78,41,35.43s.69-.84,1.38-.84S43.75,35.08,43.72,35.43Z"/><path class="cls-20" d="M52.43,35.43c0,.35-.84.55-1.39.54s-1.34-.19-1.37-.54.69-.84,1.38-.84S52.5,35.09,52.43,35.43Z"/><ellipse class="cls-21" cx="46.59" cy="32.28" rx="2.89" ry="0.94"/><path class="cls-14" d="M34.5,43.33c.07.4.5,2.66-.69,3.46a2.48,2.48,0,0,1-1.9.13c-1-.2-2.7-.9-3-2.28A2.62,2.62,0,0,1,29,43.3c.32-1.21,1.4-3.68,2.91-3.63S34.26,42,34.5,43.33Z"/><path class="cls-14" d="M58.7,42.85c-.07.4-.5,2.66.69,3.46a2.48,2.48,0,0,0,1.9.13c1-.2,2.7-.9,3-2.28a2.62,2.62,0,0,0-.1-1.34c-.32-1.21-1.4-3.68-2.91-3.63S58.94,41.58,58.7,42.85Z"/><path class="cls-7" d="M16.5,38.24h2.4a35,35,0,0,0,9.48,7.57A36.58,36.58,0,0,0,46.92,50,40.08,40.08,0,0,0,65.6,45.26a37.47,37.47,0,0,0,9-7h2.08a.77.77,0,0,0-.1-1.23h-2a41.32,41.32,0,0,1-28.46,11.1A41.2,41.2,0,0,1,18.87,37H16.66A1.43,1.43,0,0,0,16.5,38.24Z"/><path class="cls-2" d="M38.11,54.41a10.92,10.92,0,0,0,17.08.38l-8.73,1Z"/><path class="cls-7" d="M35.63,52.94a.55.55,0,1,0-.47,1,24.83,24.83,0,0,0,23.34-.08.49.49,0,0,0-.22-.93,28.18,28.18,0,0,1-22.62,0Z"/><ellipse class="cls-2" cx="46.38" cy="44.23" rx="6.67" ry="2.09"/><path class="cls-3" d="M81.5,55.37a63.18,63.18,0,0,0-1.21,7A33.48,33.48,0,0,0,80.18,66,6.46,6.46,0,0,1,82,63.72a7.59,7.59,0,0,1,6.38-1.12c-.26,0-4.62,0-6.93,3.56a8,8,0,0,0-1,5.94,15.77,15.77,0,0,1-1.3-3.23,16,16,0,0,1-.46-6.2C80.81,56.7,81.4,55.33,81.5,55.37Z"/><path class="cls-22" d="M88.77,56.45A37.64,37.64,0,0,1,90.38,53c.49-.9.89-1.53,1.4-2.3,1.25-1.89,1.59-2.06,2-3.13a24.37,24.37,0,0,0,.61-2.44c.36-1.57.43-2.11.78-3.37A13.54,13.54,0,0,1,95.7,40a9.25,9.25,0,0,1,2.07-3,2.59,2.59,0,0,1-.41,1.84c-.07.12-.15.25-.23.4a8.23,8.23,0,0,0-.58,1.52c-.55,2.08-.71,3-.71,3-.58,3.28-.4,3-.62,3.68A4.75,4.75,0,0,1,95,48a17.12,17.12,0,0,1-1.86,3,18,18,0,0,0-2,3c-1.1,2.16-1.55,4.88-2.14,4.86a2.46,2.46,0,0,0-.55,0c-.25,0-.41.08-.52,0a.32.32,0,0,1-.09-.24,3.52,3.52,0,0,1,.42-1Z"/><path class="cls-23" d="M88.42,58.78l1.8-4c.28-.62.57-1.25.88-1.86.4-.78.85-1.54,1.29-2.3a5.11,5.11,0,0,1,.93-1.21,7.44,7.44,0,0,0,1.2-2.23,34.86,34.86,0,0,0,1.29-5.58,6.45,6.45,0,0,1,.64-2.22,7.34,7.34,0,0,1,.65-1.14L97.8,37a10.21,10.21,0,0,0-1.55,2,15.62,15.62,0,0,0-1.75,5.33c-.41,2-.44,2.93-1.24,4.21a13.82,13.82,0,0,1-.93,1.24,22.68,22.68,0,0,0-2.2,3.72q-1.31,2.64-2.47,5.35C87.89,59,88.31,59,88.42,58.78Z"/><path class="cls-24" d="M89,59.84,87.24,59a2.21,2.21,0,0,0,.55-1.11l1.74.87A2.31,2.31,0,0,0,89,59.84Z"/><path class="cls-25" d="M88.5,60.9,86.71,60a2.22,2.22,0,0,0,.55-1.11l1.74.87a2.43,2.43,0,0,0-.55,1.11Z"/><path class="cls-24" d="M87.9,62l-1.74-.87A1.93,1.93,0,0,0,86.71,60l1.74.87A2.13,2.13,0,0,0,87.9,62Z"/><path class="cls-25" d="M87.33,63.11l-1.74-.87a1.89,1.89,0,0,0,.55-1.11l1.74.87A2.44,2.44,0,0,0,87.33,63.11Z"/><path class="cls-24" d="M86.79,64.22l-1.74-.87a1.73,1.73,0,0,0,.55-1.11l1.74.87A2.35,2.35,0,0,0,86.79,64.22Z"/><path class="cls-25" d="M86.24,65.32l-1.74-.87a2,2,0,0,0,.55-1.11l1.74.87A2.12,2.12,0,0,0,86.24,65.32Z"/><path class="cls-1" d="M95.41,65.67c1.89,4-3.54,11.89-8.85,11.23A7.3,7.3,0,0,1,80.5,70c-.06-3.7,3.09-6.19,5.64-7.05C89.72,61.81,94.18,63,95.41,65.67Z"/><path class="cls-7" d="M92.39,63.59a9.56,9.56,0,0,0-12,8.55,7.82,7.82,0,0,1,.1-3.94,8.11,8.11,0,0,1,1.77-3.1,8.23,8.23,0,0,1,3.24-2.19A8.71,8.71,0,0,1,92.39,63.59Z"/><circle class="cls-26" cx="29.04" cy="53.8" r="2.79" transform="translate(-31.75 60.33) rotate(-67.77)"/><circle class="cls-26" cx="24.83" cy="56.22" r="0.99" transform="translate(-36.6 58.05) rotate(-67.88)"/><circle class="cls-2" cx="53.26" cy="7.98" r="2.34" transform="translate(21 51.1) rotate(-61.72)"/><circle class="cls-2" cx="56.63" cy="6.17" r="0.84" transform="translate(24.37 53.12) rotate(-61.72)"/><path class="cls-7" d="M24.37,86.15A2,2,0,0,1,26.24,84h.21a2.64,2.64,0,0,1,2.69,2.59v0a6.5,6.5,0,0,1-4.76-.51Z"/><path class="cls-7" d="M30.64,86.43a2,2,0,0,1,1.67-2.28l.19,0a2.64,2.64,0,0,1,2.92,2.33v0a6.5,6.5,0,0,1-4.79-.06Z"/><path class="cls-7" d="M36.88,86.41A2,2,0,0,1,38.31,84l.19,0a2.64,2.64,0,0,1,3.14,2V86a6.5,6.5,0,0,1-4.77.41Z"/><path class="cls-7" d="M68.76,84.85a2,2,0,0,0-2-2l-.22,0A2.64,2.64,0,0,0,64,85.72v0a6.5,6.5,0,0,0,4.7-.89Z"/><path class="cls-7" d="M62.7,86A2,2,0,0,0,61,83.74l-.2,0A2.64,2.64,0,0,0,57.92,86v0A6.5,6.5,0,0,0,62.7,86Z"/><path class="cls-7" d="M56.69,86a2,2,0,0,0-1.43-2.44l-.2,0a2.64,2.64,0,0,0-3.13,2v0a6.5,6.5,0,0,0,4.77.41Z"/></g></g></svg>