<svg xmlns="http://www.w3.org/2000/svg" viewBox="0 0 467.4 478.69"><defs><style>.cls-1{fill:#66686a;opacity:0.38;}.cls-2,.cls-35{fill:#c870ad;}.cls-14,.cls-3{fill:#ba519e;}.cls-4{fill:#9a3862;}.cls-5{fill:#c46aaa;}.cls-6{fill:#a7499b;}.cls-7{fill:#d381b6;}.cls-8{fill:#eadfe6;stroke:#9b2a85;stroke-miterlimit:10;stroke-width:1.09px;}.cls-9{fill:#fffcfd;}.cls-10{fill:#b9456f;}.cls-11{fill:#f0d2d4;opacity:0.63;}.cls-12{fill:#b769aa;}.cls-13{fill:#af4e9b;}.cls-14{opacity:0.49;}.cls-15{fill:#d587b9;}.cls-16{fill:#b05da4;}.cls-17{fill:#d5b382;}.cls-18{fill:#b48763;}.cls-19{fill:#e5cb96;}.cls-20{fill:#b14a99;}.cls-21{fill:#cc7eb5;}.cls-22{fill:#9b3766;}.cls-23{fill:#bd529e;}.cls-24{fill:#eddca5;}.cls-25{fill:#e1c08f;}.cls-26{fill:#1f1010;}.cls-27{fill:#2c1212;}.cls-28{fill:#f2fafb;}.cls-29{fill:#df464f;}.cls-30{fill:#a3343f;}.cls-31{fill:#fff;}.cls-32{fill:#c92036;}.cls-33{fill:#ec1d26;}.cls-34{fill:#e1212e;}.cls-35{opacity:0.68;}.cls-36{fill:#e26a76;}.cls-37{fill:#a3987f;}.cls-38{fill:#afa79a;}.cls-39,.cls-40{fill:#dbabb1;}.cls-39{opacity:0.51;}.cls-40{opacity:0.3;}</style></defs><title>minniemouse-icon</title><g id="Layer_2" data-name="Layer 2"><g id="Layer_1-2" data-name="Layer 1"><ellipse class="cls-1" cx="232.29" cy="449.86" rx="207.69" ry="28.83"/><circle cx="352.49" cy="88.21" r="84.76"/><circle cx="107.8" cy="88.21" r="84.76"/><path class="cls-2" d="M341.85,142.66a106.45,106.45,0,0,1,24.84.14,107.63,107.63,0,0,1,38.66,12.58,102.67,102.67,0,0,1,62.06,7.22c-8.89-.24-20.34,1-28.33,8.71-15.29,14.65-3.9,39.15-16.54,52.1-6.75,6.91-21,11.17-53.27,1.25-3.84-1.87-22.43-11.46-30.51-34C330.11,166.6,340.1,146.1,341.85,142.66Z"/><path class="cls-3" d="M350.12,162.82c2.48-.08,6.32-.26,11-.75,7.42-.77,8.2-1.39,11.62-1.42,6.6,0,7.27,2.24,16.93,4.39,7.69,1.71,7.59.33,17.08,2.15s9.9,3.27,14.89,3.23c9.33-.08,16-5.19,16.27-4.64s-12,4.74-19.46,15.12c-9,12.48-3.24,23.31-9.36,30.15-5.24,5.84-18.58,8.08-53.26-6a42.16,42.16,0,0,1-5.73-42.19Z"/><path class="cls-4" d="M437.93,165.77c-15,7.56-25.72,7.44-32.84,5.85-8-1.79-11.82-5.53-22.43-5.86-7.52-.23-14,1.39-18.61,2.55a90.81,90.81,0,0,0-16.67,6l2.75-11.46a83.42,83.42,0,0,1,42.53,1.09,101.85,101.85,0,0,0,45.28,1.86Z"/><path class="cls-2" d="M371.08,149.39a22.9,22.9,0,0,1,8.35-7.94,23.76,23.76,0,0,1,16.78-2.08,11.21,11.21,0,0,0-6.47,8.09,41.86,41.86,0,0,1,20.89-8.09c-.55,0-7.84.79-10.91,6.86a12.18,12.18,0,0,0-1.15,6.86,12.85,12.85,0,0,1,4.48-2.16,13.16,13.16,0,0,1,7.58.35c-3.28.85-5.44,3.17-5.42,5.47a4.34,4.34,0,0,0,1,2.61l-6,1Z"/><path class="cls-2" d="M125.56,145.82a106.45,106.45,0,0,0-24.84.14,107.63,107.63,0,0,0-38.66,12.58A102.67,102.67,0,0,0,0,165.75c8.89-.24,20.34,1,28.33,8.71,15.29,14.65,3.9,39.15,16.54,52.1,6.75,6.91,21,11.17,53.27,1.25,3.84-1.87,22.43-11.46,30.51-34C137.3,169.76,127.31,149.27,125.56,145.82Z"/><path class="cls-3" d="M116.19,166c-2.48-.08-6.32-.26-11-.75-7.42-.77-8.2-1.39-11.62-1.42-6.6,0-7.27,2.24-16.93,4.39-7.69,1.71-7.59.33-17.08,2.15s-9.9,3.27-14.89,3.23c-9.33-.08-16-5.19-16.27-4.64s12,4.74,19.46,15.12c9,12.48,3.24,23.31,9.36,30.15,5.24,5.84,18.58,8.08,53.26-6A42.16,42.16,0,0,0,116.19,166Z"/><path class="cls-4" d="M29.48,168.94c15,7.56,25.72,7.44,32.84,5.85,8-1.79,11.82-5.53,22.43-5.86,7.52-.23,14,1.39,18.61,2.55a90.81,90.81,0,0,1,16.67,6L117.28,166a83.42,83.42,0,0,0-42.53,1.09,101.85,101.85,0,0,1-45.28,1.86Z"/><path class="cls-2" d="M96.33,152.55A22.9,22.9,0,0,0,88,144.61a23.76,23.76,0,0,0-16.78-2.08,11.21,11.21,0,0,1,6.47,8.09,41.86,41.86,0,0,0-20.89-8.09c.55,0,7.84.79,10.91,6.86a12.18,12.18,0,0,1,1.15,6.86,12.85,12.85,0,0,0-4.48-2.16,13.16,13.16,0,0,0-7.58.35c3.28.85,5.44,3.17,5.42,5.47a4.34,4.34,0,0,1-1,2.61l6,1Z"/><path class="cls-2" d="M226.15,87.76a93.68,93.68,0,0,0-14.33.73c-3,.39-2.9.53-12.72,2.15-5.92,1-6.49,1-8,1.45A31.67,31.67,0,0,0,179.93,98a19.82,19.82,0,0,0-17.49,3.17l5.51,2.53a24.87,24.87,0,0,0-9.64,2A25.39,25.39,0,0,0,147.22,115l9.89,1.24a23.35,23.35,0,0,0-13.69,16,45.88,45.88,0,0,0-26.24,23.39h8.56a12.79,12.79,0,0,0-4,13.69,35.35,35.35,0,0,0-11.41,21.11,3.61,3.61,0,0,1,3.86-2,3.65,3.65,0,0,1,2.41,2,106.94,106.94,0,0,0-6.28,45.64,64.59,64.59,0,0,0-16,47.92l11.41-11.41,5.13,26.24,8.56,95.85a208,208,0,0,1,25,22.51,208.2,208.2,0,0,1,26.36,34.54,313.4,313.4,0,0,0,130.08,0,142.36,142.36,0,0,1,31.57-41.23A140,140,0,0,1,353,395.2l6-104.4,7.42,4.06a74.47,74.47,0,0,0,1.82-21.11l3.88,5.14a72.71,72.71,0,0,0-.34-13.82,74.59,74.59,0,0,0-9.93-29,77.84,77.84,0,0,0-3-31.89,76.11,76.11,0,0,0-6.16-14.32,4.57,4.57,0,0,1,2.71-1.3,5,5,0,0,1,4.14,1.87,25.39,25.39,0,0,0-10.84-21.68,23.21,23.21,0,0,0-5.71-15.4,9.37,9.37,0,0,1,4-.46,9.71,9.71,0,0,1,5.7,2.74,43.6,43.6,0,0,0-7.54-11.85,44.35,44.35,0,0,0-18.13-12.11A53.86,53.86,0,0,0,314,116.28a5.63,5.63,0,0,1,2.34-1.53,6,6,0,0,1,4.51.39,18.67,18.67,0,0,0-6.36-8A19,19,0,0,0,302,103.73a7.39,7.39,0,0,1,1.77-1.92,7.72,7.72,0,0,1,4.5-1.5A21.14,21.14,0,0,0,287.19,98a67.39,67.39,0,0,0-43.93-10.27Z"/><path class="cls-5" d="M130.87,207.8c1.38-4.84,9-29.81,35.08-44.43,25.59-14.37,50.44-8.34,55.43-7l14.89,26L201,235.13a83.7,83.7,0,0,1-14.21-.19C159.73,232.25,140.41,216.86,130.87,207.8Z"/><path class="cls-2" d="M358.27,298.63a34.06,34.06,0,0,1,10.18,12.18,25.35,25.35,0,0,1,2.08,15.78l4.9,59.58,8.17,7.9-36.78,2.43Z"/><path class="cls-6" d="M375,378.9a18.61,18.61,0,0,1-10-.32c-20.37-7.34-7.9-60.43-8.95-60.51-.51,0-3.74,12.78-5.77,43.15-1,14.67-1.25,26.86-1.3,35.3l34.59-2.43-7.69-7.9Z"/><path class="cls-7" d="M130.87,207.8a223.15,223.15,0,0,0,110,27.26A222.87,222.87,0,0,0,344,207.8a119.61,119.61,0,0,1-213.17,0Z"/><ellipse class="cls-8" cx="193.96" cy="198.39" rx="40.12" ry="37.05"/><path class="cls-9" d="M228,198.3c1.17,12.84-14.8,28.27-32,29.25-17.58,1-36-13.18-36.05-27.89,0-10.28,8.87-18.06,11.56-20.41,2.39-2.08,10.73-9.13,22.79-8.84,15,.36,24.1,11.76,27.21,15.65C225,190.29,227.6,193.59,228,198.3Z"/><circle class="cls-10" cx="212.63" cy="200.27" r="11.7"/><circle cx="212.63" cy="200.27" r="5.61"/><path class="cls-5" d="M344,207.8C342.66,203,335,178,309,163.37c-25.59-14.37-50.44-8.34-55.43-7l-14.89,26,35.23,52.82a83.7,83.7,0,0,0,14.21-.19C315.18,232.25,334.49,216.86,344,207.8Z"/><path class="cls-11" d="M216.36,196.73a9.18,9.18,0,0,0,3.53-5.62,12.51,12.51,0,0,0-14.26-.6,11.82,11.82,0,0,0,3.58,6.21,9.54,9.54,0,0,0,7.15,0Z"/><ellipse class="cls-8" cx="277.58" cy="198.39" rx="40.12" ry="37.05"/><path class="cls-9" d="M243.51,198.3c-1.17,12.84,14.8,28.27,32,29.25,17.58,1,36-13.18,36.05-27.89,0-10.28-8.87-18.06-11.56-20.41-2.39-2.08-10.73-9.13-22.79-8.84-15,.36-24.1,11.76-27.21,15.65C246.58,190.29,243.94,193.59,243.51,198.3Z"/><circle class="cls-10" cx="258.91" cy="200.27" r="11.7"/><circle cx="258.91" cy="200.27" r="5.61"/><path class="cls-11" d="M255.19,196.73a9.18,9.18,0,0,1-3.53-5.62,12.51,12.51,0,0,1,14.26-.6,11.82,11.82,0,0,1-3.58,6.21,9.54,9.54,0,0,1-7.15,0Z"/><path class="cls-12" d="M370.5,273a2.62,2.62,0,0,0-2.19.76c-.55.8,0,2,.1,2.36,1.46,3.77,1.47,17.33-1.92,18.76-2.34,1-4.72-4.51-7.42-4.06-6,1-5.68,30.25-6.44,57.58-.54,19.61-1.59,36.08-2.52,48.14L299,451.64a100.91,100.91,0,0,1,2.18-25.86C305.7,405,314.58,396.9,326,377.13c15.69-27.1,22.11-52,28.47-76.61a374.78,374.78,0,0,0,7.8-38.49q1.59,2,3.19,4.13Q368.08,269.6,370.5,273Z"/><path class="cls-13" d="M139.51,184.1a48.88,48.88,0,0,1,38.17-44.68l-6.88-3.25a39,39,0,0,1,23.15-3.75,38.47,38.47,0,0,1,16.89,7v-8.65a14.8,14.8,0,0,1,10.64,13.54,12,12,0,0,1,8.76,4.87,3.64,3.64,0,0,1-.7,1.67c-3.42,4.39-16.07-3.21-29.5-4.1-10.46-.69-18.36,2.89-26.42,6.55C154.11,162.16,143.65,177.26,139.51,184.1Z"/><circle class="cls-14" cx="317.17" cy="144.59" r="12.56" transform="translate(-31.29 153.42) rotate(-25.96)"/><circle class="cls-14" cx="303.35" cy="130.95" r="4.5" transform="translate(-26.72 146) rotate(-25.96)"/><path class="cls-13" d="M328.12,184.1A48.88,48.88,0,0,0,290,139.42l6.88-3.25a39,39,0,0,0-23.15-3.75,38.47,38.47,0,0,0-16.89,7v-8.65a14.8,14.8,0,0,0-10.64,13.54,12,12,0,0,0-8.76,4.87,3.64,3.64,0,0,0,.7,1.67c3.42,4.39,16.07-3.21,29.5-4.1,10.46-.69,18.36,2.89,26.42,6.55C313.52,162.16,324,177.26,328.12,184.1Z"/><path class="cls-15" d="M138.39,186.28A69,69,0,0,1,160,159.57a66.9,66.9,0,0,1,15.3-8.42,70.16,70.16,0,0,1,34.67-2l18.82,5.7a75.82,75.82,0,0,0-90.36,31.46Z"/><path class="cls-15" d="M328.74,185.46a69,69,0,0,0-21.57-26.71,66.9,66.9,0,0,0-15.3-8.42,70.16,70.16,0,0,0-34.67-2L238.39,154a75.82,75.82,0,0,1,90.36,31.46Z"/><ellipse class="cls-7" cx="234.68" cy="112.73" rx="34.84" ry="13.17"/><path class="cls-16" d="M110.71,247.15a91.66,91.66,0,0,0-13.32,27.93l11.78-12.3c4.45,23.89,10.59,56.92,12.89,69.3,7.78,41.94,8.69,47.06,14.3,55.59,9.82,15,21.64,21.48,29.39,42.09a85.77,85.77,0,0,1,5.06,22l47.43-34.68a353.91,353.91,0,0,1-36.61-37.33C141.66,332.44,121.43,283.18,110.71,247.15Z"/><path class="cls-16" d="M360.83,247.15A41.68,41.68,0,0,1,370.5,273l-8.14-10.2c-4.45,23.89-10.59,56.92-12.89,69.3-7.78,41.94-8.69,47.06-14.3,55.59-9.82,15-21.64,21.48-29.39,42.09a85.77,85.77,0,0,0-5.06,22L253.3,417.06a353.91,353.91,0,0,0,36.61-37.33C329.88,332.44,350.11,283.18,360.83,247.15Z"/><path class="cls-17" d="M170.81,451.75C184.27,426.4,211,411,239.12,412.25c40.9,1.86,60.74,37.85,61.62,39.5a312.69,312.69,0,0,1-129.93,0Z"/><path class="cls-18" d="M175.32,444.43a135.13,135.13,0,0,0,120.59-.09l4.83,7.4a312.69,312.69,0,0,1-129.93,0Z"/><path class="cls-12" d="M97.39,275.08l-3,8.94,11.41-11.41L119.46,394.7l52.38,56.78a100.91,100.91,0,0,0-2.18-25.86c-4.53-20.8-13.41-28.89-24.85-48.66-16.47-28.46-23-54.81-28.47-76.61a343.78,343.78,0,0,1-7.17-37.57Z"/><path class="cls-2" d="M108.73,298.31a35.94,35.94,0,0,0-11.2,12.61,24.85,24.85,0,0,0-2.29,16.34L89.85,389l-9,8.18,40.44,2.52Z"/><path class="cls-13" d="M153,118.4c0,.34,23.16,6.72,46.57-3.22a68.63,68.63,0,0,0,19.92-13.06A56.46,56.46,0,0,0,243.63,105a66.5,66.5,0,0,0,30.22,15.71,67.11,67.11,0,0,0,40.72-4,136.22,136.22,0,0,1-42.8-4.5,135.59,135.59,0,0,1-27.85-11,16.76,16.76,0,0,1-9.4.43c-5.13-1.35-8-5.18-12-4.12a6.31,6.31,0,0,0-2.63,1.51q-1.54,1.2-3.23,2.41c-1.24.89-2.65,1.86-4.21,2.88a121.73,121.73,0,0,1-22.65,11.24C170.59,122.32,153,118.11,153,118.4Z"/><path class="cls-6" d="M90.76,381.7a21,21,0,0,0,10.89-.34c22.21-7.72,8.61-63.53,9.75-63.61.56,0,4.07,13.43,6.29,45.37,1.07,15.43,1.36,28.23,1.42,37.11l-37.71-2.56,8.38-8.31Z"/><path class="cls-19" d="M181.55,441.06c2.46-3.05,21.44-25.77,53.76-26,33.24-.23,52.77,23.53,55.08,26.44a166.67,166.67,0,0,1-108.84-.44Z"/><path class="cls-20" d="M115.74,462.66a116.94,116.94,0,0,0,56.1-11.18,75,75,0,0,0-47.15-54.86Z"/><path class="cls-21" d="M150.13,429.46c0,17.39-25.75,36.47-50.67,34.9-24.11-1.53-48.5-22.46-46-42.28,1.79-14,16.58-23.48,27.19-27C110.16,385.47,150.11,407.82,150.13,429.46Z"/><path class="cls-22" d="M130.15,456.62a120.45,120.45,0,0,0,41.69-5.14,116.94,116.94,0,0,1-56.1,11.18Z"/><path class="cls-23" d="M98.56,392.88c20.64-.54,37.47,15.94,37.77,35.09.31,20.25-18,37.83-39.75,36.1,30.15,4.55,53.24-16.65,53.55-34.61C150.44,411.68,128.53,389.91,98.56,392.88Z"/><path class="cls-24" d="M125.84,433A18.2,18.2,0,0,1,116.72,448c-8.59,5-17.93.36-21.44-1.37-2.87-1.41-12.72-6.26-12.77-13.68-.06-8.83,13.82-14.07,16.42-15.05,4.87-1.84,11.34-4.28,17.79-.91A17.65,17.65,0,0,1,125.84,433Z"/><path class="cls-25" d="M110.33,414.74a17.85,17.85,0,0,1-.46,35.45,23.68,23.68,0,0,0,.46-35.45Z"/><path class="cls-24" d="M60.48,435.12c-.55,3.62,3.82,7.53,7.58,6.58a5.8,5.8,0,0,0,4.19-5.54,5.87,5.87,0,0,0-4.19-5.54C64.67,429.63,60.93,432.14,60.48,435.12Z"/><path class="cls-24" d="M63,414.34c-.55,3.62,3.82,7.53,7.58,6.58a5.8,5.8,0,0,0,4.19-5.54,5.87,5.87,0,0,0-4.19-5.54C67.2,408.85,63.46,411.37,63,414.34Z"/><path class="cls-24" d="M79.82,404.38c-.55,3.62,3.82,7.53,7.58,6.58a5.8,5.8,0,0,0,4.19-5.54,5.87,5.87,0,0,0-4.19-5.54C84,398.89,80.27,401.4,79.82,404.38Z"/><path class="cls-20" d="M356.84,462.95a116.94,116.94,0,0,1-56.1-11.18,75,75,0,0,1,47.15-54.86Z"/><path class="cls-21" d="M322.44,429.75c0,17.39,25.75,36.47,50.67,34.9,24.11-1.53,48.5-22.46,46-42.28-1.79-14-16.58-23.48-27.19-27C362.42,385.76,322.46,408.11,322.44,429.75Z"/><path class="cls-22" d="M342.43,456.91a120.45,120.45,0,0,1-41.69-5.14,116.94,116.94,0,0,0,56.1,11.18Z"/><path class="cls-23" d="M374,393.17c-20.64-.54-37.47,15.94-37.77,35.09-.31,20.25,18,37.83,39.75,36.1-30.15,4.55-53.24-16.65-53.55-34.61C322.14,412,344,390.2,374,393.17Z"/><path class="cls-24" d="M346.73,433.28a18.2,18.2,0,0,0,9.12,15.05c8.59,5,17.93.36,21.44-1.37,2.87-1.41,12.72-6.26,12.77-13.68.06-8.83-13.82-14.07-16.42-15.05-4.87-1.84-11.34-4.28-17.79-.91A17.65,17.65,0,0,0,346.73,433.28Z"/><path class="cls-25" d="M362.24,415a17.85,17.85,0,0,0,.46,35.45,23.68,23.68,0,0,1-.46-35.45Z"/><path class="cls-24" d="M412.09,435.41c.55,3.62-3.82,7.53-7.58,6.58a5.8,5.8,0,0,1-4.19-5.54,5.87,5.87,0,0,1,4.19-5.54C407.9,429.92,411.64,432.43,412.09,435.41Z"/><path class="cls-24" d="M409.57,414.63c.55,3.62-3.82,7.53-7.58,6.58a5.8,5.8,0,0,1-4.19-5.54,5.87,5.87,0,0,1,4.19-5.54C405.37,409.14,409.11,411.66,409.57,414.63Z"/><path class="cls-24" d="M392.76,404.67c.55,3.62-3.82,7.53-7.58,6.58a5.8,5.8,0,0,1-4.19-5.54,5.87,5.87,0,0,1,4.19-5.54C388.56,399.18,392.3,401.69,392.76,404.67Z"/><path class="cls-26" d="M132.52,223.46l31,103.46C178.77,355.12,208.37,372,239,370c38.75-2.5,59.56-34,61.74-37.39L339,228.14c-3.17,4.25-41.7,53.95-107.19,51C169.67,276.43,136.07,228.69,132.52,223.46Z"/><path d="M163.5,326.91a261.69,261.69,0,0,1,137.23,5.75c-2.18,3.43-23,34.88-61.74,37.39C208.37,372,178.77,355.12,163.5,326.91Z"/><path class="cls-27" d="M303,326.42c-5.86-5.29-30.61-26.43-68.53-26.69-39.71-.27-65.5,22.57-71,27.66a81.39,81.39,0,0,0,30.91,32A80.15,80.15,0,0,0,239,370a78.45,78.45,0,0,0,46.08-19.61A77.55,77.55,0,0,0,303,326.42Z"/><path class="cls-28" d="M218.12,351.55c.82,4.31,1.33,13.32-3.13,15.64-1.93,1-5.15-.26-11.6-2.8-9.1-3.58-10.25-5.81-10.64-6.92-.49-1.37-.35-2.94.47-6.08,1.44-5.46,6.32-16.64,13.18-16.4C213,335.22,217,345.81,218.12,351.55Z"/><path class="cls-28" d="M256.29,352.34c-.34,1.79-2.28,12,3.13,15.64,2.61,1.74,5.75,1.14,8.59.6,4.73-.9,12.22-4.07,13.66-10.32a11.85,11.85,0,0,0-.47-6.08c-1.44-5.46-6.32-16.64-13.18-16.4C261.43,336,257.38,346.59,256.29,352.34Z"/><path class="cls-28" d="M279.94,333.2c-1.09,7.62,1.44,16.65,5.13,17.24,1,.16,1.7-.35,7-5.49,8.41-8.14,9.35-9.49,9.61-11.6.35-2.84-.79-5.1-2.29-8.09s-4.16-8.27-7.76-8.62C286.65,316.16,281.09,325.16,279.94,333.2Z"/><path class="cls-29" d="M255.59,346.52c2.68-.1,23.11-.49,37,15.84a45.85,45.85,0,0,1,10.56,28.51,31.59,31.59,0,0,1-11.62,17.42,30.41,30.41,0,0,1-12.14,5.28,59.49,59.49,0,0,1-21.65-5.28c-24.78-11.39-33.15-36.67-34.85-42.24q3,1.2,2.86,1.92-.32,2-25,.2a23.62,23.62,0,0,1,2.64-11.62c8.35-15.56,33.13-14.39,35.37-14.26A48.2,48.2,0,0,1,255.59,346.52Z"/><path class="cls-28" d="M192.57,336.84c1.09,7.62-1.44,16.65-5.13,17.24-1,.16-1.7-.35-7-5.49-8.41-8.14-9.35-9.49-9.61-11.6-.35-2.84.79-5.1,2.29-8.09s4.16-8.27,7.76-8.62C185.86,319.79,191.41,328.8,192.57,336.84Z"/><path class="cls-30" d="M200.68,368.17a30.08,30.08,0,0,0,16.2-2.16,28.69,28.69,0,0,0,6.35-3.86l1.54,7.9q-1.13.11-2.3.19A70.46,70.46,0,0,1,200.68,368.17Z"/><path class="cls-30" d="M252.38,345.21a30.74,30.74,0,0,1,7,22.78,23.67,23.67,0,0,0-.38-15.68,21.77,21.77,0,0,0-3.45-5.78Z"/><circle class="cls-31" cx="241.32" cy="89.23" r="9.22" transform="translate(137.98 324.85) rotate(-86.61)"/><ellipse class="cls-31" cx="200.46" cy="66.46" rx="14.1" ry="13" transform="translate(122.27 262.64) rotate(-86.61)"/><path class="cls-32" d="M175.77,5.78l-2.92,8a228.18,228.18,0,0,1,51.41,55.88,74.85,74.85,0,0,0-1-16Z"/><ellipse class="cls-31" cx="179.23" cy="98.86" rx="14.1" ry="13" transform="translate(69.95 271.93) rotate(-86.61)"/><polygon class="cls-32" points="176.47 66.81 223.91 75.5 222.81 84.65 174.1 76.57 176.47 66.81"/><ellipse class="cls-31" cx="171.3" cy="29.79" rx="14.1" ry="13" transform="translate(131.44 199.03) rotate(-86.61)"/><path class="cls-33" d="M164.26,120a68.13,68.13,0,0,0,20-2.62,95,95,0,0,0,18.82-7.56,128.22,128.22,0,0,0,16.88-10.68c.54-2.34,1.1-4.67,1.55-7s.93-5,1.33-7.44c.19-1.2.35-2.4.5-3.59l-1-.76a17.15,17.15,0,0,0-1.82-1.13c-.68-.46-1.61-.76-2.52-1.23s-2-.77-3.14-1.18-2.35-.73-3.64-1-2.6-.63-4-.87-2.66-.43-4-.64a9.82,9.82,0,0,1-3,.43,9.49,9.49,0,0,1-4.38-1.23c-3-.23-5.9-.33-8.31-.36-2.14,0-3.91,0-5.16.09l-2,.12,1.93-.42c1.23-.21,3-.52,5.16-.73,1.83-.14,3.93-.31,6.17-.34a9.73,9.73,0,0,1-2.78-7.43,10.31,10.31,0,0,1,10.52-9.65,9.55,9.55,0,0,1,9.35,10.19,10.39,10.39,0,0,1-4.23,7.69c.36.05.73.1,1.08.17,1.41.22,2.79.5,4.12.82s2.59.73,3.8,1.08,2.31.85,3.31,1.32a20,20,0,0,1,2.68,1.44,19,19,0,0,1,1.94,1.36l.1.09c.06-.57.14-1.15.2-1.72.23-2.5.4-5,.49-7.52,0-1.88,0-3.76,0-5.64-.26-.44-.64-1-1.15-1.8s-1.22-1.77-2-2.87-1.76-2.35-2.79-3.61-2.3-2.58-3.62-4-2.69-3-4.15-4.5L206,42.46l-4.64-4.85-4.66-4.89-4.33-4.89c-1.38-1.51-2.92-3-4.2-4.44s-2.47-2.86-3.62-4.07l-3.23-3.25c-1-1-1.91-1.69-2.63-2.4a21.17,21.17,0,0,1-2.18-2.24,16.23,16.23,0,0,1,2.52,1.82c3.75,2.89,5.66,4.33,6.48,5.11,1.25,1.19,2.53,2.52,3.85,3.92s2.77,2.76,4.29,4.35l4.43,4.8,4.74,4.77c1.64,1.65,2.75,2.78,4.75,4.82,7.16,7.31,10.52,11,12.36,13.3,1.45,1.84,2.82,3.74,2.82,3.74.46.63.87,1.21,1.24,1.76a57.66,57.66,0,0,0-4.61-19.48c-1.41-3.12-3.88-6-8.61-11.84,0,0-13.4-16.59-26-25.2L184.3,3a25.44,25.44,0,0,0-6.39-3,30.28,30.28,0,0,0-9.43,3.34,27.68,27.68,0,0,0-7.76,6.6c-4.35,5.35-6.77,12.1-8.09,18.94a92.1,92.1,0,0,0-1.26,21q.2,5.28.88,10.54.3,2.18.65,4.35l.06,0,0,.14c.32,2,.67,4,1.11,5.94a76.62,76.62,0,0,0-7.21,19.46,97.76,97.76,0,0,0-1.73,13,55.14,55.14,0,0,0,.25,12.38A47.94,47.94,0,0,0,164.26,120Zm15.11-29c5.46.57,9.66,4.94,9.37,9.82s-5,8.42-10.43,8.11-9.68-4.6-9.38-9.79S173.91,90.33,179.37,90.92Zm-6.8-73c5.48.36,9.62,5.63,9.27,11.61s-5.06,10.21-10.51,9.31a11.59,11.59,0,0,1-9.26-11.78A9.83,9.83,0,0,1,172.57,17.93Z"/><ellipse class="cls-31" cx="265.01" cy="51.43" rx="14.1" ry="13" transform="translate(198 312.94) rotate(-86.61)"/><path class="cls-32" d="M246.34,60.62l33.43-38.54,12.68-11.31,1.37-.5a33.82,33.82,0,0,1,.39,10.4,34.55,34.55,0,0,1-6.3,16L249,64Z"/><ellipse class="cls-31" cx="303.93" cy="81.98" rx="14.1" ry="13" transform="translate(204.13 380.54) rotate(-86.61)"/><path class="cls-34" d="M241.59,98.15a7.53,7.53,0,0,1-7.63-8,9.12,9.12,0,0,1,8.6-8.31,7.14,7.14,0,0,1,6.86,4.07,31.19,31.19,0,0,0-.32-16.46c-1.81-5.6-4.48-9.13-7.93-10.48a11.47,11.47,0,0,0-6.35-.37,7.17,7.17,0,0,1,.68,3.5,8.94,8.94,0,0,1-8.4,8.22,7.64,7.64,0,0,1-.81,0q-.14,3.52-.46,7c-.27,2.54-.57,5.08-1,7.6s-.82,5-1.35,7.53c-.42,2.22-.95,4.42-1.45,6.62a40.75,40.75,0,0,0,17.58,3,4.63,4.63,0,0,0,3.34-1.73,28.14,28.14,0,0,0,2-3A8,8,0,0,1,241.59,98.15Z"/><path class="cls-32" d="M252.52,73.28c.09.91.15,1.88.16,2.91a34.1,34.1,0,0,1-.27,4.7l26.8-10.69L266.9,65.36Z"/><ellipse class="cls-31" cx="270.06" cy="90.11" rx="14.1" ry="13" transform="translate(136.01 341.28) rotate(-80.36)"/><ellipse class="cls-31" cx="301.2" cy="32.36" rx="14.1" ry="13" transform="translate(218.87 323.89) rotate(-80.36)"/><path class="cls-33" d="M294.49,119.85c6.14-.24,23.86-.93,27.64-10,3.95-9.44-5.51-32.26-6-37.34-.08-.86-.15-1.72-.15-1.72s-.18-2.41-.29-4.86c-.18-4.19-.18-10.16-.14-17.28,0-3.56-.07-7.42-.33-11.47a89.86,89.86,0,0,0-1.55-12.59c-.93-4.23-2.31-8.67-5.21-11.94a10.71,10.71,0,0,0-5.41-3.31,15.11,15.11,0,0,0-6.65.07,27.07,27.07,0,0,0-3,.83c0,.55-.06,1.34-.17,2.35a32.81,32.81,0,0,1-.58,3.64,23.6,23.6,0,0,1-1.5,4.63,10.48,10.48,0,0,1-3.93,4.7,18.09,18.09,0,0,0-2.49,1.51c-.8.58-1.62,1.21-2.45,1.85-1.66,1.3-3.3,2.77-5,4.23s-3.4,3-5.07,4.54c-1.48,1.36-2.92,2.75-4.34,4.14a8.94,8.94,0,0,1,6.44,9c-.31,5.26-5.07,9.56-10.64,9.63A9.24,9.24,0,0,1,255,55.21l-.34.39A73.54,73.54,0,0,0,249.46,62c-.61.84-1,1.51-1.32,2a28.91,28.91,0,0,1,2,4.82,27.93,27.93,0,0,1,1.26,6.44c.55-.37,1.24-.82,2.05-1.33A37.12,37.12,0,0,1,261.9,70c.8-.26,1.64-.45,2.45-.65S266,69,266.77,69a19.71,19.71,0,0,1,4.34,0c.63,0,1.2.21,1.7.29a7.9,7.9,0,0,1,1.28.34l1.09.36L274,69.89c-.36,0-.79-.07-1.29-.07s-1.06-.06-1.67,0-1.27,0-2,.12-1.41.19-2.15.32-1.49.33-2.26.52-1.52.46-2.27.76a42.62,42.62,0,0,0-7.84,4.07c-1.45.93-2.54,1.69-3,2a40.41,40.41,0,0,1-2.48,13.69,8.73,8.73,0,0,1-.83,2.08,37.35,37.35,0,0,1-4.32,7.85C251.93,107.81,270.38,120.79,294.49,119.85Zm21-36.91c-.32,5.44-5,8.85-10.54,8a11.39,11.39,0,0,1-9.38-11.75c.33-5.65,5.08-9.57,10.57-8.49S315.83,77.47,315.51,82.93Zm-12.21-60A9.7,9.7,0,0,1,312.77,33c-.32,5.33-5,8.85-10.55,8.12s-9.77-5.17-9.48-10.08S297.76,22.6,303.3,22.9ZM270.8,79.64c5.56.09,9.78,5,9.43,10.85S275.1,101,269.55,100.8a10.07,10.07,0,0,1-9.43-10.86A10.85,10.85,0,0,1,270.8,79.64Z"/><path class="cls-33" d="M281.17,26.87A29.27,29.27,0,0,1,283.82,25a20.79,20.79,0,0,1,2.79-1.46A8.79,8.79,0,0,0,289.87,20a23,23,0,0,0,2.36-7.59c.1-.67.16-1.2.21-1.67-.73.29-1.46.59-2.18.93-1,.47-2.46,1.23-3.09,1.58a134.17,134.17,0,0,0-14,9.25,117.47,117.47,0,0,0-9.76,8.23,103,103,0,0,0-7.9,8.28,52.62,52.62,0,0,0-9.1,14.24,25.76,25.76,0,0,0-1.33,4.45L245,58.87a16.13,16.13,0,0,1,3.73,4.53c.23-.47.53-1,.95-1.79a74.26,74.26,0,0,1,4.66-6.91l.93-1.2A9.12,9.12,0,0,1,255,51a10.47,10.47,0,0,1,10.52-9.65l.18,0c1.74-1.83,3.54-3.66,5.38-5.48A106.81,106.81,0,0,1,281.17,26.87Z"/><path class="cls-34" d="M226.21,58.72a34.13,34.13,0,0,1,3.56-.55,34.84,34.84,0,0,1,10.74.61l-3.69,3.61-10.29,2.39Z"/><path class="cls-32" d="M219.94,99.11h2.24a138.48,138.48,0,0,0,3.31-16.82c.24-1.8.6-4.5.83-8.06a105.82,105.82,0,0,0-.11-15.52l-2.38,0a97,97,0,0,1,.09,16.81c-.22,2.67-.49,4.75-.75,6.59C222.19,89.11,220.45,96.89,219.94,99.11Z"/><polygon class="cls-34" points="226.42 62.09 226.42 72.57 239.26 71.19 235.5 62.13 226.42 62.09"/><circle class="cls-31" cx="235.08" cy="67.2" r="7.03" transform="translate(154.1 297.9) rotate(-86.61)"/><ellipse class="cls-31" cx="200.6" cy="64.21" rx="9.74" ry="10.52" transform="translate(124.65 260.66) rotate(-86.61)"/><path class="cls-32" d="M241.17,59l3.79-.13a19.15,19.15,0,0,1,3.38,3.38c6.79,8.76,4.9,21.89,1.2,30.22a35.83,35.83,0,0,1-5.61,8.82l-4.29.86c9.64-11.86,13-25.8,7.75-35.83A22.06,22.06,0,0,0,241.17,59Z"/><circle class="cls-31" cx="265.31" cy="51.05" r="10.32" transform="translate(198.67 312.87) rotate(-86.61)"/><circle class="cls-35" cx="156.03" cy="368.76" r="12.56"/><circle class="cls-35" cx="168.76" cy="384.82" r="4.5"/><path class="cls-5" d="M173,234.32a2.38,2.38,0,0,0,.52,4.26,99.24,99.24,0,0,1,41.37.35,2.34,2.34,0,0,0,1.34-2.47,2.39,2.39,0,0,0-1.34-1.62,119.38,119.38,0,0,0-41.89-.51Z"/><path class="cls-5" d="M258.1,234.3a2.38,2.38,0,0,0,.52,4.26,99.24,99.24,0,0,1,41.37.35,2.34,2.34,0,0,0,1.34-2.47,2.39,2.39,0,0,0-1.34-1.62,119.38,119.38,0,0,0-41.89-.51Z"/><path class="cls-10" d="M264.37,244.2c-.85,6.48-17.78,9.61-28.73,9.58-10.77,0-27.61-3.12-28.46-9.58s14.11-16,28.6-16S265.21,237.77,264.37,244.2Z"/><path class="cls-4" d="M208.46,246.76a10.41,10.41,0,0,0,7.27,4,10.18,10.18,0,0,0,6.63-1.91,27.51,27.51,0,0,1,26.64.53,9.43,9.43,0,0,0,6.13,1.4c3.6-.24,6.39-2.46,8.14-4.24a18,18,0,0,1-5.83,7.12c-5,3.48-8.86,1.88-23.06,1.92-12.31,0-16,1.26-20.44-1.92A16.83,16.83,0,0,1,208.46,246.76Z"/><path d="M222.13,248.65c-.12,1.6-3.79,2.47-6.3,2.46s-6.07-.87-6.19-2.46,3.14-3.79,6.24-3.79S222.25,247.09,222.13,248.65Z"/><path d="M261.64,249.08c-.12,1.6-3.79,2.47-6.3,2.46s-6.07-.87-6.19-2.46,3.14-3.79,6.24-3.79S261.77,247.52,261.64,249.08Z"/><ellipse class="cls-7" cx="234.97" cy="236.26" rx="13.09" ry="4.26"/><path class="cls-36" d="M285.74,375.17c5.36,10.42,6.14,18.35,7.66,18.14s3.29-9.9.25-18.74c-5.47-15.91-24.08-23.41-25.24-22C267.5,353.73,277.81,359.75,285.74,375.17Z"/><path class="cls-2" d="M125.47,159.8a82,82,0,0,1,7.81-16.48c3.65-6.16,7.59-12.71,14.52-20,1.68-1.76,3.15-3.15,4.19-4.11a47.47,47.47,0,0,1,.86,12.87,49,49,0,0,1-8,23.31q-17.27,17.11-20.6,14.73Q122.21,168.68,125.47,159.8Z"/><path class="cls-13" d="M143.89,152.79c7.93-12.39,8.89-28.5,5.67-29.73-4.12-1.57-15.71,20.93-16.67,22.83-2.51,4.91-9.9,19.4-7,21.5C128.29,169.16,138,162,143.89,152.79Z"/><path class="cls-13" d="M323.05,151c-7.93-12.39-8.89-28.5-5.67-29.73,4.12-1.57,15.71,20.93,16.67,22.83,2.51,4.91,9.9,19.4,7,21.5C338.65,167.33,328.92,160.12,323.05,151Z"/><path class="cls-37" d="M128.33,164.31a63.82,63.82,0,0,1-7.3-13.83,67.49,67.49,0,0,1-2.69-37.26,6.43,6.43,0,0,1,3.84-5.76,6.76,6.76,0,0,1,6.15.67,60.53,60.53,0,0,0,19.81,19.3,44,44,0,0,1-19.81,36.87Z"/><path class="cls-37" d="M338,161.41a63.82,63.82,0,0,0,7.3-13.83A67.49,67.49,0,0,0,348,110.32a6.43,6.43,0,0,0-3.84-5.76,6.76,6.76,0,0,0-6.15.67,60.53,60.53,0,0,1-19.81,19.3A44,44,0,0,0,338,161.41Z"/><path class="cls-38" d="M125.74,108.73a98.8,98.8,0,0,0,12.48,38,25.33,25.33,0,0,0,7.55-17.07,42.85,42.85,0,0,1-7.91-5.12A44.11,44.11,0,0,1,125.74,108.73Z"/><path class="cls-38" d="M340.84,105.8a98.8,98.8,0,0,1-12.48,38,25.33,25.33,0,0,1-7.55-17.07,42.85,42.85,0,0,0,7.91-5.12A44.11,44.11,0,0,0,340.84,105.8Z"/><path class="cls-39" d="M272.88,412.88c4.66,14,3,22,.41,26.84-1.25,2.27-4.29,6.7-2.74,10.59a5.68,5.68,0,0,0,4.18,3.65c2.23.28,4.32-1.39,5.3-3,2.05-3.41-.45-7.45-1.58-12.15-1.05-4.37-1.57-10.76.84-19.48,3.18,4.12,3.76,7.38,3.71,9.58-.07,3.28-1.54,4.9-.74,7.83.66,2.45,2.67,4.94,4.32,4.63,1.84-.34,3-4.12,2.61-7.08-.32-2.38-1.5-3.06-2.52-5.53-1.48-3.59-1-6.91-.74-9.38a25,25,0,0,1,3.07-9.45,18.63,18.63,0,0,1-9.64,3.64A18.18,18.18,0,0,1,272.88,412.88Z"/><path class="cls-40" d="M223.22,362.15c3.16,7.16,12.69,26.11,34.33,38.17A79.05,79.05,0,0,0,289,409.94a12.57,12.57,0,0,1-6.28,4.23,13,13,0,0,1-9.82-1.29,60.73,60.73,0,0,1-27-11.88C228.09,387.08,224.12,367.45,223.22,362.15Z"/><path class="cls-39" d="M240.52,387.54c1.54,1.82,2.08,2.28,3.06,3.44a15.17,15.17,0,0,0,5.56,4.12,5.07,5.07,0,0,1,1.61.89c1.35,1.31.54,3.72,1.51,5.33.78,1.3,2.44,1.69,3.7,2.53,1.63,1.09,2.62,3,4.31,4,2,1.19,4.51.88,6.79.49a4,4,0,0,0,2-.75,2.66,2.66,0,0,0,.49-3,6,6,0,0,0-2.16-2.37A16.55,16.55,0,0,0,262,399.7a16.7,16.7,0,0,1-4-1.2,11.08,11.08,0,0,1-2.1-1.64l-4.53-4.16a29,29,0,0,0-4-3.24,25.1,25.1,0,0,0-4.61-2.21,20.85,20.85,0,0,1-7.83-6C237.33,383.82,239.22,386,240.52,387.54Z"/></g></g></svg>