<svg id="Layer_1" data-name="Layer 1" xmlns="http://www.w3.org/2000/svg" xmlns:xlink="http://www.w3.org/1999/xlink" viewBox="0 0 707.73 901.93"><defs><style>.cls-1{fill:none;}.cls-2{clip-path:url(#clip-path);}.cls-3{fill:#2a1b56;}.cls-4{fill:#21154e;}.cls-5{fill:#563b83;opacity:0.82;}.cls-11,.cls-12,.cls-16,.cls-17,.cls-5{isolation:isolate;}.cls-6{fill:#1699b3;}.cls-7{fill:#412a6f;}.cls-8{fill:#3d286b;}.cls-9{fill:#e7e0d4;}.cls-10{fill:#0099b4;}.cls-11{fill:#866aaf;opacity:0.73;}.cls-12{fill:#bdb097;opacity:0.55;}.cls-13{fill:#0085a8;}.cls-14{fill:#0086a8;}.cls-15{fill:url(#linear-gradient);}.cls-16{fill:#6ab9c9;opacity:0.61;}.cls-17{fill:#abdfe9;opacity:0.66;}.cls-18{fill:url(#linear-gradient-2);}.cls-19{fill:#ca2b47;}.cls-20{fill:#dc304e;}.cls-21{fill:#de717d;opacity:0.62;}.cls-22{fill:#e6dfd3;}.cls-23{fill:#bcaf96;opacity:0.55;}</style><clipPath id="clip-path"><rect class="cls-1" x="-0.73" y="-692.28" width="708.81" height="1594.21"/></clipPath><linearGradient id="linear-gradient" x1="354.22" y1="-13.64" x2="354.22" y2="256.53" gradientTransform="matrix(1, 0, 0, -1, 0, 888.28)" gradientUnits="userSpaceOnUse"><stop offset="0.17" stop-color="#bfe6ef"/><stop offset="0.69" stop-color="#2c9db7"/><stop offset="0.86" stop-color="#179bb5"/><stop offset="1" stop-color="#0099b4"/></linearGradient><linearGradient id="linear-gradient-2" x1="353.58" y1="1580.57" x2="353.58" y2="646.71" gradientTransform="matrix(1, 0, 0, -1, 0, 888.28)" gradientUnits="userSpaceOnUse"><stop offset="0.77" stop-color="#2381c4"/><stop offset="0.91" stop-color="#2c9db7"/><stop offset="1" stop-color="#0099b4"/></linearGradient></defs><title>monster-bg3</title><g class="cls-2"><path class="cls-3" d="M708.27,632.53l-719.92-1-2.07-501.94,721.44-4Q708,379.07,708.27,632.53Z"/><path class="cls-4" d="M491.91,408.25c-2,37-36.15,59.15-51.75,69.28-32.6,21.18-65.47,22-83.69,22.16-16.87.19-44.12.17-73.3-15.08-11.43-6-61.25-32-62.14-76.36-.71-35.39,30.18-59.93,38.4-66.46,30-23.82,63.71-24.41,97-25,35.06-.61,68.13-1.18,97.43,21.66C459.91,343.14,494,369.75,491.91,408.25Z"/><path class="cls-5" d="M491.76,264.2c5.22-.84,12.17-1,18.25,2.64,13,7.79,13.86,28.15,14.57,51.56.88,28.88-4.14,36.17,0,59.45,2.2,12.36,4.26,13.9,7.07,25.24,12.87,51.88-9.54,102.67-17.78,121.34a171.83,171.83,0,0,1-10.47,20.93,142.35,142.35,0,0,1-19.15,24.83c1.59,5.46,7.15,21.84,22.92,31,20.29,11.74,49.29,6.72,70.09-13.81l42.85-15.78c-18,.92-29.47-4.54-35-7.85-26.31-15.63-31.79-49.61-34.17-64.39-.24-1.51,0-.11-2-27.74-2.7-37.4-3.26-41.37-3.47-51a300.23,300.23,0,0,1,2.68-46.39,302.07,302.07,0,0,0,2.27-33.3c.26-19.73-1.6-24.82,0-41.11,2.24-22.89,7.81-32.28,10.4-36.16a57.92,57.92,0,0,1,12.65-13.53L524,214.53l-23.55,5.3Z"/><path class="cls-5" d="M140.33,246.79c11.72,11.16,16.38,21.67,18.48,29.18,6.09,21.8-4.2,37.11,7.07,52.83,1.67,2.34,6.09,8.32,13.63,10.1,8.58,2,19.06-1.91,24.58-9.15,8.08-10.6.15-21.22,7.84-40.7a60,60,0,0,1,6.94-12.75l6.89-51q-7.94-1.5-16-3.15-31.45-6.42-60.7-14.16Z"/><path class="cls-6" d="M-46.51,505.82C20,543,164.13,611.78,358.91,613.2,560.76,614.69,710,543.09,776.72,505.82V634.61H-46.51Z"/><path class="cls-7" d="M500.76,220.51c14.8,40.44,25.33,50,32.67,49.4,6.71-.51,11.64-9.53,30.23-16.69a90.39,90.39,0,0,1,9.8-3.15l-33.59-39.54Z"/><path class="cls-8" d="M153.87,229.2a92.72,92.72,0,0,1,6.66,13.61c3.49,8.91,3.08,11.92,6.37,17.09,1.51,2.37,6.7,10.53,14.69,11.56s17.08-5.44,22-16l6.18-33.26-42.64-7.68Z"/><path class="cls-9" d="M84.23,188.81H70.11C66.05,212.29,75.38,235,92.44,245c23.32,13.54,60.38,2.67,75.67-30-15.35-3.66-31.62-8.14-48.62-13.62C107.09,197.32,95.33,193.11,84.23,188.81Z"/><path class="cls-9" d="M637.51,183c12.5,26.87,2.43,57.55-19.23,69.94-25.1,14.35-62.69,2.38-75.67-30A338,338,0,0,0,589,207.69,338,338,0,0,0,637.51,183Z"/><path class="cls-5" d="M307.07,247a65.22,65.22,0,0,1,40.55.94c4.2,1.5,25.24,9,33.64,27.82,12.9,28.84-16.5,56.46-3.2,72,7.25,8.46,24.32,10,33,3.28,16.45-12.71.52-55,11.9-59.39,5.57-2.17,11.66,7,19.8,4.29,5.92-2,9.08-9,10.87-15.29l-74.71-49.1L300.76,233Z"/><path class="cls-8" d="M307.29,239.37A140.93,140.93,0,0,0,335.47,244c19.55,1.22,22.67-2.72,30-.1,23.7,8.52,19.6,60.74,31.82,62.23,3.73.46,9.52-3.76,18.46-25-6-36.49-16.3-46.79-24.85-49.25-7-2-12.63-1.88-30.45.56C347.61,234.27,329.49,236.68,307.29,239.37Z"/><path class="cls-9" d="M208.32,224.94c-5,29.95,11.2,56.95,32.6,63.7,26.24,8.29,62.87-13.08,67.94-52a408.23,408.23,0,0,1-48.12-2.44A408.26,408.26,0,0,1,208.32,224.94Z"/><path class="cls-9" d="M500.44,225.83c5,30-11.2,57-32.6,63.7-26.24,8.29-62.87-13.08-67.94-52a408.23,408.23,0,0,0,48.1-2.44A408.26,408.26,0,0,0,500.44,225.83Z"/><path class="cls-10" d="M84.06,188.44a731.92,731.92,0,0,0,263.3,52.5,732.34,732.34,0,0,0,280.82-52.5Z"/><path class="cls-5" d="M239.25,402c1.75,12.42-7.09,26.87-17.66,27.24-10.91.39-21.11-14.31-19.44-27.24,1.15-8.87,8.25-19.85,18.55-19.84S238,393.2,239.25,402Z"/><ellipse class="cls-5" cx="226.32" cy="494.49" rx="9.67" ry="11.33"/><ellipse class="cls-11" cx="169.75" cy="297.99" rx="2.62" ry="4.14"/><path class="cls-11" d="M171.82,308.66c-.15-.25-1.18-2-2.74-2a3.24,3.24,0,0,0-2.3,1.31c-2.74,3.22-.89,11.1,3,16.54a22.53,22.53,0,0,0,4.49,4.71,3.84,3.84,0,0,0,5.39-.65l.09-.12a3.78,3.78,0,0,0-.65-4.61,27,27,0,0,1-7.23-15.22Z"/><path class="cls-12" d="M69.4,205c11.77,1.16,24.5,2.95,38,5.63a391.72,391.72,0,0,1,54.44,15c.75-.95,1.52-2,2.27-3.13a43.68,43.68,0,0,0,3.69-6.84c-17.27-4.46-35.41-9.8-54.22-16.19q-15.21-5.17-29.33-10.65H70.11c-.32,1.84-.58,3.85-.75,6A63.61,63.61,0,0,0,69.4,205Z"/><path class="cls-12" d="M208.2,225.62c-.28,1.8-.5,3.74-.63,5.81a65.15,65.15,0,0,0,.12,9.78,324.57,324.57,0,0,1,97.21,11,58.71,58.71,0,0,0,3.53-12.69c-16.61-1.07-34.39-2.82-53.16-5.49C238.59,231.61,222.87,228.75,208.2,225.62Z"/><path class="cls-12" d="M400,238.39a56,56,0,0,0,3.29,13.29,253.84,253.84,0,0,1,96.75-2,71.88,71.88,0,0,0,.76-23.15c-16,3.41-33.61,6.42-52.75,8.58C430.9,237,414.81,238,400,238.39Z"/><path class="cls-12" d="M542.61,222.94c.58,1.42,1.24,2.91,2,4.43a68.48,68.48,0,0,0,4.14,7.25q38.67-16.08,79.18-31.31,7.14-2.68,14.25-5.3a63.27,63.27,0,0,0-4.5-14.87l-13.54,1.65q-12.4,6.75-25.75,13.37C579.12,207.69,560.45,215.88,542.61,222.94Z"/><path class="cls-11" d="M216.15,390.82a2.36,2.36,0,0,0,.23-2.12,2,2,0,0,0-1.44-.86c-2.62-.51-6.38,3-8.18,6.77a14.24,14.24,0,0,0-1.2,3.93,2.43,2.43,0,0,0,2,2.77h.08a2.39,2.39,0,0,0,2.33-1.79,17,17,0,0,1,6.13-8.71Z"/><path class="cls-8" d="M230.28,414.53a2.36,2.36,0,0,1,2-.71,2,2,0,0,1,1.16,1.21c1.08,2.44-1.44,6.89-4.74,9.5a14.24,14.24,0,0,1-3.56,2,2.43,2.43,0,0,1-3.15-1.37l0-.07a2.39,2.39,0,0,1,1.22-2.68,17,17,0,0,0,7.1-7.94Z"/><path class="cls-11" d="M381.45,335.2a2.87,2.87,0,0,0-2.35-1.1,2.49,2.49,0,0,0-1.55,1.32c-1.61,2.82.91,8.51,4.59,12.07a17.31,17.31,0,0,0,4.06,2.92,3,3,0,0,0,4-1.36,2.9,2.9,0,0,0-1.15-3.39A20.74,20.74,0,0,1,381.45,335.2Z"/><path class="cls-7" d="M541.75,376.42c-2.73-2.89-7.52-4.16-9.64-3.12-5.44,2.67,1.69,22.86,4.47,42,7,48.37-15,82.31-4,88.21,3.88,2.09,9.71-.5,12.7-3.4,6-5.79,3.24-15.38.68-33.11-.38-2.64-8.44-59.64-2.71-74.27a18.71,18.71,0,0,0,1.11-11.1A11,11,0,0,0,541.75,376.42Z"/><path class="cls-3" d="M333.51,317.73c5.33,6.79,11.38,16.92,11.49,29.32.16,18.17-12.58,26.76-8.07,40.29,2.7,8.08,10.77,15.59,19.76,15.85,9.62.27,18.74-7.81,21.34-16.54,3.92-13.2-9.13-21.06-10.11-39.6-.66-12.52,4.55-23.14,9.36-30.43A53.28,53.28,0,0,0,333.51,317.73Z"/><circle class="cls-13" cx="326.79" cy="218.73" r="8.16"/><path class="cls-13" d="M236.12,188.2c3.63,5.22,17.51,23.93,37.74,22.69,17.83-1.09,29.92-17,33.84-22.69Z"/><path class="cls-13" d="M109.63,197.63a10,10,0,0,0-3.53-3.95c-4.29-2.72-9.11-.9-9.71-.66"/><path class="cls-13" d="M481.56,229a39.86,39.86,0,0,0-71.82,9.65c10.44-.7,21.42-1.75,32.89-3.22C456.44,233.64,469.44,231.44,481.56,229Z"/><ellipse class="cls-13" cx="366.37" cy="210.92" rx="15.27" ry="11.91"/><path class="cls-13" d="M569.89,188.44a9.69,9.69,0,0,0,4.65,18.38l53.65-18.38Z"/><path class="cls-13" d="M492.74,188.44c1.86,12.42,10.76,22.19,21.62,24.29,13.92,2.68,29.38-7.61,32.59-24.29q-15-.14-30.36-.12Q504.58,188.33,492.74,188.44Z"/><circle class="cls-13" cx="151.48" cy="199.82" r="10.82"/><path class="cls-13" d="M676.43,593.57c2.16,11.43-14.73,27.22-30.19,24.7-8.68-1.42-19.09-9-19.06-19.21,0-10.64,11.29-17.35,19.06-19.21C659,576.81,674.6,583.86,676.43,593.57Z"/><path class="cls-14" d="M392.13,668.57c-1,3.65-7.82,4.92-15.21,2.83s-12.54-6.74-11.53-10.39,7.82-4.92,15.21-2.83S393.14,664.92,392.13,668.57Z"/><rect class="cls-15" x="0.36" y="631.76" width="707.73" height="270.17"/><path class="cls-13" d="M330.09,651.2c0,14.37-14,24.38-25.84,26-17.4,2.42-36.83-12.16-36-27.85.81-14.85,19.59-26.76,36-24.22C316,627,330.08,636.75,330.09,651.2Z"/><path class="cls-13" d="M514.08,643.33c0,.92.7,22.79-12.35,27.61-11.29,4.17-26.77-6.66-29.5-19.24-3.8-17.52,17.65-36.17,29.5-32.83C510.32,621.3,513.74,635.2,514.08,643.33Z"/><path class="cls-13" d="M413.77,686.29c-.58,2.44-2.84,4.26-4.83,4.2-3.83-.11-7-7.15-4.94-9.87,1.3-1.69,4.83-2,7.25-.32A5.81,5.81,0,0,1,413.77,686.29Z"/><path class="cls-14" d="M136.39,581.45c-1.15,10.36,3.58,20.15,11.6,24.38,10.66,5.62,26.1.89,32.91-12.4l-22.21-5.93Z"/><path class="cls-13" d="M88.46,610.06c0,11.88-11.54,20.16-21.37,21.53-14.39,2-30.46-10.06-29.76-23,.67-12.28,16.2-22.13,29.76-20C76.8,590,88.45,598.13,88.46,610.06Z"/><path class="cls-13" d="M163,629.85c7.38-.33,13.57,11.32,15.86,17.83,4.89,14,2,33.33-6.64,35.89-7.94,2.36-20.8-9.46-23.47-22.68C145.87,646.85,154.35,630.2,163,629.85Z"/><path class="cls-13" d="M89.75,648.94c-1,3.65-7.82,4.92-15.21,2.83S62,645,63,641.39s7.82-4.92,15.21-2.83S90.76,645.29,89.75,648.94Z"/><path class="cls-16" d="M197.43,597.2c12.56,15.09,17.12,28.47,18.85,38.27,1.88,10.59.69,18.28,6.88,28.06,2.18,3.45,7.8,12,18.65,14.93A29.06,29.06,0,0,0,260,677.3c11.23-4.77,15.1-16,20.69-26.73,5.34-10.3,14.35-24.28,30.24-39.07-21.76-1.39-44.83-3.62-69-7Q218.75,601.27,197.43,597.2Z"/><path class="cls-17" d="M230.12,647.14c-.15-.25-1.18-2-2.74-2a3.24,3.24,0,0,0-2.3,1.31c-2.74,3.22-.89,11.1,3,16.54a22.53,22.53,0,0,0,4.49,4.71A3.84,3.84,0,0,0,238,667l.09-.12a3.78,3.78,0,0,0-.65-4.61,27,27,0,0,1-7.23-15.22Z"/><path class="cls-16" d="M405.4,612.34a210.46,210.46,0,0,1,18.85,20.37c7.15,8.84,8.64,12.15,14.07,16.52,4.28,3.45,16.27,13.11,26.44,10.22,15.88-4.52,12.2-35.33,33.46-44.7,6.19-2.73,10.25-1.76,11.4-1.44,9.33,2.62,13.1,15.26,14.81,21,5.29,17.75-1.34,22.53,3.48,33.82,5.34,12.51,20.9,23.89,34,20.48,10.8-2.82,17.17-15.06,19.15-24.17,3.75-17.26-8.14-25.42-8.81-48.48a82.2,82.2,0,0,1,4.41-28.69c-19.81,4.58-40.71,8.81-62.62,12.5A1058.93,1058.93,0,0,1,405.4,612.34Z"/><path class="cls-17" d="M535,655.08c-.15-.25-1.18-2-2.74-2a3.24,3.24,0,0,0-2.3,1.31c-2.74,3.22-.89,11.1,3,16.54a22.53,22.53,0,0,0,4.49,4.71,3.84,3.84,0,0,0,5.39-.65l.09-.12a3.78,3.78,0,0,0-.65-4.61A27,27,0,0,1,535,655.08Z"/><ellipse class="cls-17" cx="531.92" cy="647.46" rx="2.42" ry="3.69"/><path class="cls-14" d="M378.63,652.09c-1,3.65-7.82,4.92-15.21,2.83s-12.54-6.72-11.52-10.38,7.82-4.92,15.21-2.83S379.65,648.44,378.63,652.09Z"/><path class="cls-13" d="M634.73,636.06c-.58,2.44-2.84,4.26-4.83,4.2-3.83-.11-7-7.15-4.94-9.87,1.3-1.69,4.83-2,7.25-.32A5.81,5.81,0,0,1,634.73,636.06Z"/><path class="cls-1" d="M708,718.07H.27L0,129.63H707.73Q707.86,423.85,708,718.07Z"/><path class="cls-18" d="M707.88,149a576.51,576.51,0,0,1-135,64.68C483.43,242.94,410.35,242.3,347.5,241.2c-132.22-2.3-226.26-34.37-247.9-42A725.73,725.73,0,0,1,.14,155.4L-.73-692.28h708.6Z"/><path class="cls-13" d="M152.56,170.55c-2,12.41-30.44,22.48-51.66,13.91-13.67-5.53-27.26-20-24.23-30.28,3.5-11.92,28.54-16.12,46.83-10.47C137.49,148,154.25,160.2,152.56,170.55Z"/><ellipse class="cls-13" cx="157.49" cy="193.73" rx="4.81" ry="6.08"/><path class="cls-13" d="M239.46,232.52a28,28,0,0,1,53.41,6Z"/><path class="cls-13" d="M563.69,172c-5.52-11.3,11.86-35.94,34.13-41.19,14.35-3.39,33.79.55,37.27,10.72,4,11.75-14,29.65-32.17,35.6C589,181.7,568.31,181.46,563.69,172Z"/><ellipse class="cls-13" cx="549.48" cy="141.22" rx="16.09" ry="12.37"/><ellipse class="cls-13" cx="349.48" cy="180.12" rx="20.04" ry="25.29"/><ellipse class="cls-13" cx="376.34" cy="210.08" rx="13.35" ry="10.27"/><ellipse class="cls-13" cx="238.26" cy="169.55" rx="15.57" ry="20.07" transform="matrix(0.99, -0.16, 0.16, 0.99, -23.57, 39.31)"/><ellipse class="cls-13" cx="297.68" cy="221.42" rx="4.81" ry="6.08"/><ellipse class="cls-13" cx="573.65" cy="193.73" rx="4.81" ry="6.08"/><path class="cls-13" d="M457.18,225.64c-10.5-6.92-8.07-37,8.43-52.83,10.63-10.22,29.37-16.71,37.54-9.74,9.45,8.07,3,32.64-9.59,47C483.91,221.09,466,231.43,457.18,225.64Z"/></g><path class="cls-19" d="M54.47,555.47c23.15-23,60.4-53.48,112.58-69.06,70.62-21.08,95.82,6.79,191-4.17,98.43-11.34,118.19-46.57,173-33.43,52.56,12.59,91,58.5,119.63,114.3a828.08,828.08,0,0,1-90.2,27c-41.25,9.84-138.12,29.58-262.08,20a877.63,877.63,0,0,1-147.19-24.24A883.72,883.72,0,0,1,54.47,555.47Z"/><path class="cls-20" d="M222.34,522c38-46.56,109.9,1.83,223.82-35.94,38.1-12.63,49.36-24.43,75.17-19.86,56.66,10,98.28,85.51,83.7,107.43-3.69,5.54-16.76,9-42.89,16.06-17.43,4.67-30.68,7-32.05,7.29C461.43,609.13,412,612.41,412,612.41c-89.09,6.67-118.65,1.12-136.92-3.53-25.49-6.48-57.92-15.18-65.49-39C204.42,553.59,212.22,534.43,222.34,522Z"/><path class="cls-21" d="M290.8,544.3c1.07,7.91,8.28,15.11,15.15,14.68,4.86-.3,8-4.32,12.21-9.77,4.74-6.11,11.67-15.06,8.43-21.17s-15.9-7.15-24.42-2.59C296.73,528.35,289.59,535.31,290.8,544.3Z"/><ellipse class="cls-21" cx="364.41" cy="559.49" rx="15.24" ry="10.78" transform="translate(-60.44 44.39) rotate(-6.44)"/><path class="cls-21" d="M451.49,499.17c3.18,4.89,4.93,12.86,1.75,15.51-4.35,3.63-19.08-1.75-20.71-11.13-.79-4.53,1.38-10.57,5.7-12.07C443.59,489.62,449.26,495.74,451.49,499.17Z"/><ellipse class="cls-21" cx="480.31" cy="512.57" rx="13.75" ry="8.86" transform="translate(-145.4 193.33) rotate(-19.83)"/><path class="cls-21" d="M448.45,545.14c.48,4.49-1.59,9.48-5.4,11.83-8.21,5.08-23.46-2.75-23.74-11.53-.18-5.66,5.84-11.94,13-12.69C440,531.94,447.66,537.81,448.45,545.14Z"/><path class="cls-21" d="M352.32,518.64a6.81,6.81,0,0,1-2.9,6.36c-4.42,2.73-12.62-1.48-12.77-6.2-.1-3,3.14-6.42,7-6.82C347.8,511.54,351.89,514.69,352.32,518.64Z"/><path class="cls-22" d="M420.44,611.39c-6-29.3,12.92-56.77,38.06-61.79,27.43-5.48,57.7,16.68,59.61,49.47-15,3-31,5.66-48.11,7.82C452.54,609.11,436,610.54,420.44,611.39Z"/><path class="cls-22" d="M183.34,593.72c2.89-27.57,27.22-47,51.71-44.68,26.7,2.5,47.89,30.25,41.46,59.94-15.39-1.66-31.55-3.82-48.39-6.61C212.45,599.78,197.51,596.85,183.34,593.72Z"/><path class="cls-23" d="M185.07,584.11c-.37,1.31-.72,2.75-1,4.29a50.91,50.91,0,0,0-.72,5.32c12.49,2.83,25.66,5.46,39.47,7.78,18.91,3.18,36.91,5.43,53.83,7,.3-1.62.57-3.37.78-5.23s.34-3.74.4-5.44a169.08,169.08,0,0,1-92.75-13.69Z"/><path class="cls-22" d="M39.55,548.26c15.82-34.25,54.76-43.44,75.79-29,16.17,11.13,23.14,37.18,13.61,61.84a503.94,503.94,0,0,1-52.5-17C63.17,559.06,50.86,553.68,39.55,548.26Z"/><path class="cls-23" d="M47.15,535.71a132.36,132.36,0,0,0,85.34,32.39,41.93,41.93,0,0,1-3.53,13,503.94,503.94,0,0,1-52.5-17c-13.29-5.11-25.59-10.49-36.91-15.92a64.16,64.16,0,0,1,7.6-12.54Z"/><path class="cls-23" d="M419.43,596.26a57,57,0,0,0,1,15.13c15.53-.85,32.1-2.28,49.56-4.49,17.08-2.17,33.14-4.85,48.11-7.82a61.54,61.54,0,0,0-3.22-15.79,133,133,0,0,1-95.46,13Z"/><path class="cls-22" d="M562.14,589.72c-11.18-28.51,2.38-59,25.11-68.45,25.54-10.65,61.05,5.89,69.19,39.81-14.87,5.47-30.72,10.84-47.5,15.92C592.72,581.91,577.08,586.11,562.14,589.72Z"/><path class="cls-23" d="M558.65,576.32a46.59,46.59,0,0,0,3.48,13.4q21.3-5.15,44.31-12c17.69-5.3,34.36-10.91,50-16.67a52.35,52.35,0,0,0-3.64-10.66c-.63-1.36-1.3-2.63-2-3.8a152.66,152.66,0,0,1-92.17,29.71Z"/></svg>