<svg xmlns="http://www.w3.org/2000/svg" viewBox="0 0 413.02 498.48"><defs><style>.cls-1{fill:#e49c33;}.cls-2{fill:#fdbd46;}.cls-3{fill:#1d1817;}.cls-4{fill:#9b6829;}.cls-5{fill:#eda53a;opacity:0.44;}.cls-6{fill:#996c29;}.cls-6,.cls-9{opacity:0.24;}.cls-7{fill:#f7c94b;}.cls-8{fill:#777;}.cls-9{fill:#845d26;}.cls-10{fill:#a8a8a6;}.cls-11{fill:#878787;}.cls-12{fill:#df2626;stroke:#686867;stroke-width:1.09px;}.cls-12,.cls-26,.cls-46{stroke-miterlimit:10;}.cls-13{fill:#6d6d6d;}.cls-14{fill:#c1bcb4;}.cls-15{font-size:4.66px;fill:#231f20;font-family:ArialRoundedMTBold, Arial Rounded MT Bold;}.cls-16{letter-spacing:-0.09em;}.cls-17{letter-spacing:-0.02em;}.cls-18{letter-spacing:0em;}.cls-19{fill:#7f5422;}.cls-20{fill:#72a441;}.cls-21{fill:#a0c63b;}.cls-22{fill:#66686a;opacity:0.38;}.cls-23{fill:#88b23f;}.cls-24{fill:#9fc53b;}.cls-25{fill:#b3cf35;}.cls-26{fill:#dcdfd6;stroke:#9ccb3b;stroke-width:3.61px;}.cls-27{fill:#e9e9e6;}.cls-28{fill:#f8f7f4;}.cls-29{fill:#47b3e6;}.cls-30{fill:#53c4f1;opacity:0.79;}.cls-31{fill:#fbfcfc;opacity:0.64;}.cls-32{fill:#8dbb3f;}.cls-33,.cls-46{fill:#fff;}.cls-34,.cls-35{fill:#cddf73;}.cls-34{opacity:0.46;}.cls-36{fill:#5c9440;}.cls-37{fill:#7f7f7f;opacity:0.25;}.cls-38{fill:#0a7ebf;}.cls-39{fill:#1f88be;}.cls-40{fill:#1078b3;}.cls-41,.cls-42,.cls-45{fill:#60c3ea;}.cls-41{opacity:0.37;}.cls-42{opacity:0.88;}.cls-43,.cls-44{fill:#107ebf;}.cls-44{opacity:0.7;}.cls-46{stroke:#226f97;stroke-width:0.96px;}.cls-47{fill:#020202;}.cls-48{fill:#b8ae9b;}.cls-49{fill:#bfbab2;}</style></defs><title>monstersinc-icon</title><g id="Layer_2" data-name="Layer 2"><g id="Layer_1-2" data-name="Layer 1"><path class="cls-1" d="M357.13,245.78,357,278.36a19,19,0,0,0,2.59,2.77c8.77,7.66,19.44,2.4,38,2.08,22-.38,33.54,6.54,43.87-2.08a21.77,21.77,0,0,0,2.64-2.61l.64-32.57Z" transform="translate(-32.03)"/><path class="cls-2" d="M373.56,231.73a34.43,34.43,0,0,1-16.43,14l87.59.16a37.35,37.35,0,0,1-16.88-14.2Z" transform="translate(-32.03)"/><rect class="cls-3" x="327.54" y="281.12" width="81.88" height="23.52"/><path class="cls-1" d="M359.74,294.48l-4.95,5.21-.49,107.8,2.49,7.19,81.71-.13,4-7.33L445,299.68l-3.71-5.07Z" transform="translate(-32.03)"/><path class="cls-1" d="M442.36,462.73l.16-32.57a19.14,19.14,0,0,0-2.65-2.77c-2.55-2.18-38.83-2.08-38.83-2.08-6.08,0-41.19-.48-43.86,1.45-.75.55-1.46,1.15-1.46,1.15a25.32,25.32,0,0,0-2.2,2.09l-.66,32.57a400.2,400.2,0,0,0,89.5.16Z" transform="translate(-32.03)"/><rect class="cls-3" x="324.88" y="414.66" width="81.85" height="12.11"/><path class="cls-4" d="M352.86,462.58q22.61.55,46.16.59,22.08,0,43.34-.43l-12.87,17.74H404.82l-2.15-3.34h-18.5L381,479.44H368.89Z" transform="translate(-32.03)"/><path class="cls-5" d="M418.34,231.73a30.11,30.11,0,0,0,8.1,14.17l18.28,0a37.35,37.35,0,0,1-16.88-14.2Z" transform="translate(-32.03)"/><path class="cls-6" d="M373.56,231.73h10.29l-6.37,14.08-.87,35.31H359.57L357,278.36l.16-32.57a34.43,34.43,0,0,0,16.43-14Z" transform="translate(-32.03)"/><path class="cls-7" d="M353.57,430a22.26,22.26,0,0,1,2.14-2.09c.5-.43,1-.81,1.46-1.15h81.5l3.84,3.39Z" transform="translate(-32.03)"/><path class="cls-7" d="M359.74,294.48l-4.95,5.21H445l-3.71-5.07Z" transform="translate(-32.03)"/><path class="cls-6" d="M359.74,295.15l-4.95,5.21-.49,107.73,2.49,7.19,19.92,0q0-60.39,0-120.78Z" transform="translate(-32.03)"/><rect class="cls-8" x="344.72" y="300.27" width="31.9" height="107.1"/><path class="cls-9" d="M354.3,407.48l2.49,7.19,81.71-.13,4-7.33Z" transform="translate(-32.03)"/><polygon class="cls-9" points="324.95 278.36 327.54 281.12 409.41 281.12 412.05 278.51 324.95 278.36"/><rect class="cls-10" x="346.61" y="308.6" width="27.91" height="92.36"/><rect class="cls-11" x="351.82" y="312.94" width="17" height="86.04"/><path class="cls-10" d="M386.43,311.49l6.18,6.31,6.68-6.31Z" transform="translate(-32.03)"/><rect class="cls-12" x="355.69" y="318.42" width="9.76" height="74.26" rx="4.65" ry="4.65"/><rect class="cls-13" x="351.78" y="312.94" width="1.29" height="86.04"/><path class="cls-10" d="M383.71,338.44l7.38-5.93-7.4-6.39Z" transform="translate(-32.03)"/><rect class="cls-13" x="368.46" y="312.94" width="1.29" height="86.04"/><path class="cls-10" d="M382.25,359.31l8.84-5.93L382.23,347Z" transform="translate(-32.03)"/><path class="cls-10" d="M382.25,380.47l8.84-6.24-8.85-6.72Z" transform="translate(-32.03)"/><path class="cls-10" d="M402.3,338.66l-8-5.93,8-6.39Z" transform="translate(-32.03)"/><path class="cls-10" d="M402.3,359.3l-8-5.93,8-6.39Z" transform="translate(-32.03)"/><path class="cls-10" d="M401.72,379.57,393.6,374l8.14-6Z" transform="translate(-32.03)"/><path class="cls-14" d="M387.68,335.32a24.13,24.13,0,0,0,9.81.09v1.49a39,39,0,0,1-9.76,0Z" transform="translate(-32.03)"/><path class="cls-14" d="M387.69,355.77a24.13,24.13,0,0,0,9.81.09v1.49a39,39,0,0,1-9.76,0Z" transform="translate(-32.03)"/><path class="cls-14" d="M387.69,376.63a24.13,24.13,0,0,0,9.81.09v1.49a39,39,0,0,1-9.76,0Z" transform="translate(-32.03)"/><polygon class="cls-14" points="360.58 317.79 360.67 312.94 355.83 312.94 360.58 317.79"/><path class="cls-10" d="M399,399l-6.18-6.31L386.16,399Z" transform="translate(-32.03)"/><circle class="cls-13" cx="360.67" cy="314.63" r="1.26"/><polygon class="cls-14" points="360.81 392.68 360.68 398.99 366.99 398.99 360.81 392.68"/><circle class="cls-13" cx="392.68" cy="396.39" r="1.26" transform="translate(-196.75 421.36) rotate(-47.83)"/><path class="cls-14" d="M387.75,322.52c1.43.11,3,.17,4.62.16,1.82,0,3.52-.11,5.07-.25,0,.22,0,.45,0,.7s0,.41,0,.59a48.46,48.46,0,0,1-5.12.3c-1.67,0-3.22-.07-4.64-.19,0-.24,0-.5,0-.77S387.73,322.7,387.75,322.52Z" transform="translate(-32.03)"/><rect class="cls-7" x="357.2" y="303.65" width="6.72" height="1.29" rx="0.64" ry="0.64"/><rect class="cls-7" x="389.23" y="303.65" width="6.72" height="1.29" rx="0.64" ry="0.64" transform="translate(56.27 696.88) rotate(-90)"/><rect class="cls-7" x="357.32" y="403.45" width="6.72" height="1.29" rx="0.64" ry="0.64"/><path class="cls-6" d="M358,426.77,353.6,430l-.74,32.56L369,479.42h8.56l.48-52.65Z" transform="translate(-32.03)"/><text class="cls-15" transform="translate(343.7 394.23) rotate(-90)">MAX SCREAM CA<tspan class="cls-16" x="39.44" y="0">P</tspan><tspan class="cls-17" x="42.14" y="0">A</tspan><tspan class="cls-18" x="45.38" y="0">CITY 8400 SUV</tspan></text><path class="cls-19" d="M352.86,462.58l16.24,16.84h8.62l.15-16.41Z" transform="translate(-32.03)"/><path class="cls-5" d="M431.24,246l-1.75,234.43,12.87-17.74.16-32.57-3.84-3.39-.17-12.22,4-7.33L445,299.68l-3.71-5.07.1-13.48,2.64-2.61.64-32.57Z" transform="translate(-32.03)"/><path class="cls-20" d="M356.63,361.86c-.18.18-3.8,3.85-6.45,2.78-2.86-1.15-2.5-7-2-9.5a15.54,15.54,0,0,1,3.82-7.56,14.57,14.57,0,0,0,.71,8.92A14.33,14.33,0,0,0,356.63,361.86Z" transform="translate(-32.03)"/><path class="cls-21" d="M358.92,338.56a29.47,29.47,0,0,0-9.73,16.27,26.6,26.6,0,0,0-.44,6.48,4.49,4.49,0,0,0,2.32,2.37c1.77.7,4,0,5.56-1.82,0,.68-.67,8.78-7,13.07a13.29,13.29,0,0,1-8.57,2.26c-16.43-2.56-27.33-15.54-27-29.3.24-10.88,7.42-18.93,9.52-21.13Z" transform="translate(-32.03)"/><path class="cls-21" d="M267.43,237.42c17.27-6.15,32.63-10.69,45.38-14.07,22.56-6,35.85-8,51.32-5.61,2.65.41,4.83.87,6.3,1.2A54.56,54.56,0,0,0,360,239.56a55.51,55.51,0,0,0,1.47,32.16l-109.5,30.86Z" transform="translate(-32.03)"/><rect class="cls-3" x="326.93" y="281.12" width="82.43" height="13.13"/><ellipse class="cls-22" cx="162.06" cy="479.43" rx="149.53" ry="19.05"/><path class="cls-23" d="M52.46,40.93A276.52,276.52,0,0,0,42.38,67.11c-8.52,26-14.09,43.76-7.37,61.62a51.18,51.18,0,0,0,10.74,17L60.3,139.9l-7.84,14.29,2.83,1.93L61.92,154l-2.42,5,16.18,10.19,9.43-7.9L81.92,172l22.43,8.8c3.37-7.62,16.27-39.08,4.1-76.47C94.58,61.76,58.72,43.92,52.46,40.93Z" transform="translate(-32.03)"/><path class="cls-20" d="M52.46,40.93c-1.21,10.75-1.17,26.5,8.36,38.54,11.11,14,24.89,10.13,32,23.33C100.5,117,88.32,128.63,95,150.44a57.16,57.16,0,0,0,12.71,21.79l.75-67.85Z" transform="translate(-32.03)"/><path class="cls-24" d="M126.77,142.51l-7.16-52.12a118.9,118.9,0,0,0-20-19.83C86.33,60.29,78.91,59.09,70.93,50.45,65.87,45,60,35.85,57.66,20.19A29,29,0,0,0,52,35.58c-1.31,29.6,52.13,44.81,49.68,72.66-.76,8.61-6.67,16.35-2.79,28.26a32.15,32.15,0,0,0,7,11.72,6,6,0,0,1-2.36,3.24,6.09,6.09,0,0,1-4.79.77l10.58,6.13a4.22,4.22,0,0,1-6.9,1.78,6.41,6.41,0,0,0,8.77,4.4l-7.3,16.32Z" transform="translate(-32.03)"/><path class="cls-23" d="M346.8,39.64a276.52,276.52,0,0,1,10.08,26.18c8.52,26,14.09,43.76,7.37,61.62a51.18,51.18,0,0,1-10.74,17L339,138.61l7.84,14.29L344,154.82l-6.62-2.17,2.42,5-16.18,10.19-9.43-7.9,3.18,10.83-22.43,8.8c-3.37-7.62-16.27-39.08-4.1-76.47C304.69,60.47,340.54,42.62,346.8,39.64Z" transform="translate(-32.03)"/><path class="cls-20" d="M346.8,39.64c1.21,10.75,1.17,26.5-8.36,38.54-11.11,14-24.89,10.13-32,23.33-7.67,14.22,4.51,25.83-2.15,47.65a57.16,57.16,0,0,1-12.71,21.79l-.75-67.85Z" transform="translate(-32.03)"/><path class="cls-24" d="M272.49,141.22l7.16-52.12a118.9,118.9,0,0,1,20-19.83C312.93,59,320.35,57.79,328.33,49.16c5.06-5.47,11-14.6,13.27-30.27a29,29,0,0,1,5.68,15.39c1.31,29.6-52.13,44.81-49.68,72.66.76,8.61,6.67,16.35,2.79,28.26a32.15,32.15,0,0,1-7,11.72,6,6,0,0,0,2.36,3.24,6.09,6.09,0,0,0,4.79.77L290,157.05a4.22,4.22,0,0,0,6.9,1.78,6.41,6.41,0,0,1-8.77,4.4l7.3,16.32Z" transform="translate(-32.03)"/><path class="cls-21" d="M131.79,128A14.82,14.82,0,0,0,106,120a31.52,31.52,0,0,1,12.23,6.37,31.15,31.15,0,0,1,6,6.81A25.11,25.11,0,0,0,106,139.5c.4-.09,6.72-1.36,10.69,2.95a10.17,10.17,0,0,1,2.49,5.25,39.48,39.48,0,0,0-8.88,4.14,45.35,45.35,0,0,0-8.41,7.09,83.56,83.56,0,0,0-11,14,33.94,33.94,0,0,0-16.16-5.7c-15-1.17-25.35,8.46-27.18,10.22,12.23-1.21,16.54,1.35,18.17,4,2.47,4-.94,8.47-.09,16.67a30.76,30.76,0,0,0,6.47,15.43A199.3,199.3,0,0,0,75.7,243c3.62,18.12,7.85,26.11,11.38,40.56,2.94,12,3.71,21.6,4.27,44.82.52,21.92.81,54.22-.45,95.49L86,465.48a33.84,33.84,0,0,0-8.27.27c-12.42,2-20.31,10.42-23.28,14a99.73,99.73,0,0,0,36.39,1.55,97.67,97.67,0,0,0,15.55-3.56l17.11-35q38.47-.94,79-.72,35.7.21,69.82,1.35l18.58,35.1a92,92,0,0,0,49.85,1.32,28.86,28.86,0,0,0-10-10.22c-9.62-5.79-19.52-3.83-21.92-3.29-1.68-24.88-2.56-51.81-2.15-80.53.41-29.22,2.1-56.55,4.55-81.74-3-18.52-.94-32.42,1.62-41.91,2.35-8.72,5.13-13.63,9.25-27.44A247.07,247.07,0,0,0,328.83,206a28.14,28.14,0,0,0,5.68-16.22,27.57,27.57,0,0,0-2.54-12,23.41,23.41,0,0,1,5-3.36A23.89,23.89,0,0,1,347.43,172,37.41,37.41,0,0,0,305,175.91a143.67,143.67,0,0,0-8.4-13.16c-5.75-8-8.48-10-10-11.07a27.64,27.64,0,0,0-9.8-4A10,10,0,0,1,280,140.8c3.92-3.45,9-2,9.32-1.93a14.09,14.09,0,0,0-5.84-5,14.91,14.91,0,0,0-11.74,0,25.32,25.32,0,0,1,19.74-13.55c-1-1-5.42-5.48-12.1-5.54-7-.06-13.72,4.81-16.57,12.26a124.8,124.8,0,0,0-131,1Z" transform="translate(-32.03)"/><path class="cls-25" d="M140,152.37a142.88,142.88,0,0,0-40.73,70.06,206.36,206.36,0,0,0,87.91,24.1c49.27,2.06,86.88-14.57,105.17-24.29a262.88,262.88,0,0,0-35.25-66.63c-.3,34.41-29.75,61.35-62.48,59.21C163.51,212.79,138.44,185,140,152.37Z" transform="translate(-32.03)"/><path class="cls-25" d="M106.86,231.59,284,232.75c2.53,6.34,21.17,55.56-6.81,105.34-26.44,47-73.94,58-81.21,59.56-8.95-2.73-52.59-17.05-78.06-63.13C91.36,286.54,104.35,240,106.86,231.59Z" transform="translate(-32.03)"/><ellipse class="cls-26" cx="164.89" cy="165.92" rx="59.42" ry="46.94"/><ellipse class="cls-27" cx="165.18" cy="168.75" rx="50.68" ry="35.16"/><ellipse class="cls-28" cx="165.75" cy="170.4" rx="31.4" ry="20.76"/><circle class="cls-29" cx="165.73" cy="174.58" r="13.58"/><circle cx="165.87" cy="175.57" r="6.94"/><path class="cls-30" d="M193.23,173.47a13.68,13.68,0,0,1-2.63-3.73,17.74,17.74,0,0,1-1.57-5.19,13.1,13.1,0,0,1,8.63-4,12.51,12.51,0,0,1,8.34,3.08,27,27,0,0,1-3.74,9.64,9,9,0,0,1-9,.22Z" transform="translate(-32.03)"/><ellipse class="cls-31" cx="166.13" cy="145.76" rx="19.01" ry="13.96"/><path class="cls-21" d="M103.55,232.9A187.42,187.42,0,0,0,293.17,232Z" transform="translate(-32.03)"/><path class="cls-21" d="M78.3,217.75,75.54,206.3a129.78,129.78,0,0,0-22.67,35.62c-16.41,38.63-9.08,74.57-5.38,88.65l4.69-7L66,382.93l14.62,23.43L91,400.64l4-6.87a329.55,329.55,0,0,0,1.35-108.61A327.26,327.26,0,0,0,78.3,217.75Z" transform="translate(-32.03)"/><path class="cls-25" d="M68.18,245.63A250.19,250.19,0,0,0,72,283.42c3.91,21.83,8.1,28.47,11.53,45.48,5.79,28.74,4.17,61.18-1.28,62.13-5.88,1-18.22-34.35-23.7-64.69a245.13,245.13,0,0,1-3.68-33.24Z" transform="translate(-32.03)"/><path class="cls-21" d="M79.56,270.69a217.21,217.21,0,0,1,1,87.81,212.87,212.87,0,0,1-13.11,42.39l-.53-18a31,31,0,0,0-12,27,27.72,27.72,0,0,0,17.25,5.64,28.27,28.27,0,0,0,19.76-9.24A442.41,442.41,0,0,0,91.33,342,442.48,442.48,0,0,0,79.56,270.69Z" transform="translate(-32.03)"/><path class="cls-32" d="M94,206.9a87.42,87.42,0,0,0,15.47,13c17.87,11.73,33.68,12.48,90.4,12.51,58.6,0,72.27-.76,85.93-11.82,7.17-5.81,14.66-14.66,16.15-13.65.64.43-1.91,6.1-15.25,28.12a575.88,575.88,0,0,1-85.59,6.62,575.93,575.93,0,0,1-93.21-7.35Z" transform="translate(-32.03)"/><path class="cls-32" d="M102.71,223.29c-3.62,5.89-2.35,13.15,2,16.62,5.2,4.18,14.63,2.71,18.9-4.74Z" transform="translate(-32.03)"/><path class="cls-32" d="M292.1,224.17c3.62,5.89,2.35,13.15-2,16.62-5.2,4.18-14.63,2.71-18.9-4.74Z" transform="translate(-32.03)"/><path class="cls-33" d="M275.78,234.67c2.94,4.42,8.54,4.89,11.18,2.43,2-1.86,2.45-5.54.73-8.75Z" transform="translate(-32.03)"/><path class="cls-33" d="M117.91,233.36c-2.94,4.42-8.54,4.89-11.18,2.43-2-1.86-2.45-5.54-.73-8.75Z" transform="translate(-32.03)"/><path class="cls-32" d="M237.82,237.24a17.59,17.59,0,0,0,34.7-3.57Z" transform="translate(-32.03)"/><path class="cls-33" d="M246,237.67c2.24,7.49,9.54,10.46,13.77,8.4,3.12-1.52,5-6,4.31-10.81Z" transform="translate(-32.03)"/><path class="cls-32" d="M157.94,236.67a17.59,17.59,0,0,1-34.53-4.93Z" transform="translate(-32.03)"/><path class="cls-33" d="M150.41,236.7c-2.18,7.5-9.46,10.53-13.7,8.51-3.14-1.49-5.06-6-4.39-10.78Z" transform="translate(-32.03)"/><path class="cls-34" d="M253,236.63c7,24.6,4.59,37.3.77,44.4-1.31,2.44-6.06,9.07-3.81,14.72.85,2.13,2.92,4.71,5.81,5.08,3.1.39,6-1.93,7.36-4.17,2.86-4.74-.63-10.35-2.2-16.89-1.46-6.08-2.19-15,1.16-27.08,4.42,5.73,5.22,10.26,5.16,13.31-.09,4.55-2.14,6.81-1,10.89.92,3.41,3.71,6.87,6,6.44,2.56-.48,4.18-5.73,3.63-9.84-.45-3.31-2.08-4.26-3.5-7.68-1.11-2.69-2-6.84-1-13l3.48-19Z" transform="translate(-32.03)"/><path class="cls-35" d="M258.15,272.76c-3.47,8.9-6.5,18.58-3.78,20.32,1.17.75,2.95-.28,3.07-.36C261.08,290.54,261.26,282.56,258.15,272.76Z" transform="translate(-32.03)"/><path class="cls-21" d="M154.35,267.3c.88,1.45,16.42,26,46.15,26.18,30.2.2,46.11-24.9,46.89-26.18Z" transform="translate(-32.03)"/><path class="cls-25" d="M243.51,266a28.3,28.3,0,0,1-4.79,2.89c-9.17,4.35-18.36,2.59-22.56,1.47a23.06,23.06,0,0,0,4.61,5.8,23.38,23.38,0,0,0,9.75,5.26c-1.45.41-10.77,2.88-18.16-2.71a17.82,17.82,0,0,1-4.72-5.42,9,9,0,0,0,0,2.52,9.39,9.39,0,0,0,2,4.61c-3.45.22-6.57-1.13-8-3.62a6.8,6.8,0,0,1-.89-3.3,9.49,9.49,0,0,1-1.91,4.81,10.11,10.11,0,0,1-7.2,3.67,6.72,6.72,0,0,0,2.49-5,6.22,6.22,0,0,0-1-3.3,30.87,30.87,0,0,1-19.6,9.3l8.26-11.63A40.57,40.57,0,0,1,164.15,270a39.27,39.27,0,0,1-6.79-2.84" transform="translate(-32.03)"/><path class="cls-20" d="M79.56,270.69c5.52,38.28,8.58,70,10.38,93.77,1.26,16.68,2.22,33.53-8.43,41.9-8.2,6.45-19.77,5.1-26.62,3.6.42,2,2.26,9.45,9,13.61,8,5,19.81,3.19,28.18-5a315.62,315.62,0,0,0,3.49-59A317.12,317.12,0,0,0,79.56,270.69Z" transform="translate(-32.03)"/><polygon class="cls-36" points="34.48 383.28 39.37 390.99 35.01 401.23 34.48 383.28"/><circle class="cls-21" cx="124.86" cy="280.87" r="11.07" transform="translate(-82.95 28.72) rotate(-10.91)"/><circle class="cls-21" cx="82.83" cy="295.99" r="3.97"/><path class="cls-20" d="M95,393.77a44.38,44.38,0,0,0,6.72,22.83,43.8,43.8,0,0,0,12,12.57,117.21,117.21,0,0,0,13.3,4c24,5.77,42.66,2.11,56.76.13,46.92-6.58,65.86,2.3,86.46-3.41,1.13-.31,2.41-.71,3.8-1.2a61.78,61.78,0,0,0,11.3-5.58c5.24-3.42,15-15.27,21.36-33.8l2.17,76.89c2.4-.55,12.3-2.51,21.92,3.29a28.87,28.87,0,0,1,10,10.22,199.89,199.89,0,0,1-76.24-1.29,46.41,46.41,0,0,0-8.79-17.57c-14.63-17.93-39.22-18.41-55-18.71-15.59-.3-43.29-.83-60.67,18.92a52.9,52.9,0,0,0-10.7,19.42,330,330,0,0,1-45.85,1.56c-10.35-.37-20.05-1.2-29-2.32A36.89,36.89,0,0,1,86,465.48Z" transform="translate(-32.03)"/><path class="cls-37" d="M98.83,126.95c4.73,5.55,42.07,47.8,103,46,56-1.65,89.44-39.23,94.79-45.43Z" transform="translate(-32.03)"/><path class="cls-29" d="M103.93,113.33l5.84,2.19,9.66-1.79,20.82,1.79,4.53,4.31,97.47,2.68,2.81-5.28H268.2l10.28-1.34,9,1.34v-5.28c1.31.66,6.93,3.68,8.45,9.66,1.84,7.25-3.05,16.14-12.49,20a311.17,311.17,0,0,1-86.14,11.57A311.21,311.21,0,0,1,108,139.41c-11-4-15.85-13.45-13.58-19.31C96.26,115.24,102.72,113.62,103.93,113.33Z" transform="translate(-32.03)"/><path class="cls-38" d="M0,61.53" transform="translate(-32.03)"/><path class="cls-39" d="M106,120.77c-1-4-10.78-46.22,18.41-79.59C147,15.34,177.59,12.46,184,12a15.45,15.45,0,0,1,30.08-.16c3.81,0,40.89.44,63.94,31.81,25.79,35.12,9.45,75.56,8.63,77.51Z" transform="translate(-32.03)"/><path class="cls-40" d="M250.4,126c4.74-37.14-21.64-67.25-48.1-69C174,55,142,85.11,145.93,125.35" transform="translate(-32.03)"/><path class="cls-21" d="M203.27,96.51" transform="translate(-32.03)"/><path class="cls-36" d="M64.14,478.79a262.85,262.85,0,0,0,63-.63,50.87,50.87,0,0,1,10.46-17.52c15.12-16.32,37.92-17.77,38.06-17.31s-15.38,1.82-29.56,13.79a64,64,0,0,0-16.93,23,275,275,0,0,1-39.08,1C80.76,480.77,72.1,479.91,64.14,478.79Z" transform="translate(-32.03)"/><ellipse class="cls-21" cx="166.23" cy="226.78" rx="22" ry="2.53"/><path class="cls-21" d="M63.56,482a4.76,4.76,0,0,0-3.92-5.72,6.17,6.17,0,0,0-7.25,5,15.2,15.2,0,0,0,11.17.74Z" transform="translate(-32.03)"/><path class="cls-21" d="M78.1,484a4.76,4.76,0,0,0-3.92-5.72,6.17,6.17,0,0,0-7.25,5A15.2,15.2,0,0,0,78.1,484Z" transform="translate(-32.03)"/><path class="cls-36" d="M330.14,478.79c0-.45-13.53,1.57-31.71,1a203.45,203.45,0,0,1-31.68-3.48,48,48,0,0,0-10.22-17.14c-14.61-15.6-35.77-16-35.88-15.62s19.94,1.54,33.66,16.72a48.8,48.8,0,0,1,10.09,17.81,152.38,152.38,0,0,0,38.32,4C317.67,481.74,330.19,479.22,330.14,478.79Z" transform="translate(-32.03)"/><path class="cls-21" d="M330.7,483.58a4.76,4.76,0,0,1,3.14-6.18,6.17,6.17,0,0,1,7.84,4,15.2,15.2,0,0,1-11,2.2Z" transform="translate(-32.03)"/><path class="cls-21" d="M315.83,484a4.76,4.76,0,0,1,3.92-5.72,6.17,6.17,0,0,1,7.25,5,15.2,15.2,0,0,1-11.17.74Z" transform="translate(-32.03)"/><path class="cls-21" d="M95.32,484a4.76,4.76,0,0,0-3.92-5.72,6.17,6.17,0,0,0-7.25,5,15.2,15.2,0,0,0,11.17.74Z" transform="translate(-32.03)"/><path class="cls-21" d="M299.78,483.33a4.76,4.76,0,0,1,4.68-5.11,6.17,6.17,0,0,1,6.48,5.94,15.2,15.2,0,0,1-11.17-.83Z" transform="translate(-32.03)"/><path class="cls-41" d="M284.28,121.22c2.53.31,13.29-25.79,5.67-53.28a76.82,76.82,0,0,0-21.42-34.86c-21.33-19.9-47.22-21.15-54.42-21.25,11,2.88,32.29,10.24,49.7,29.78a89.71,89.71,0,0,1,14.92,22.73C291.75,93.86,282.46,121,284.28,121.22Z" transform="translate(-32.03)"/><path class="cls-41" d="M114.51,121.94c-2.55.31-13.57-26-5.67-53.28,5.67-19.59,18.66-31.27,23.7-35.7,20.1-17.64,42.95-20.39,51.5-21a89.92,89.92,0,0,0-43.31,22.67,88.85,88.85,0,0,0-20.68,30.39C107.85,95,116.57,121.69,114.51,121.94Z" transform="translate(-32.03)"/><path class="cls-23" d="M72.57,214.26a200.73,200.73,0,0,1,14.75,31.45,200.68,200.68,0,0,1,8.32,29.45,255.65,255.65,0,0,0,11.83,79.2c7.24,22.75,12.4,38.3,27.1,51.57,21.79,19.68,49.57,20.82,60.4,20.67v12.16a180.15,180.15,0,0,1-57.72-2.46,177.1,177.1,0,0,1-23-6.45,31.15,31.15,0,0,1-13.94-11c-6.76-9.42-5.65-20.91-5.31-25.08,1.52-18.82-2-50.52-8.94-113.92A367.73,367.73,0,0,0,72.57,214.26Z" transform="translate(-32.03)"/><path class="cls-42" d="M113,69.52A171.31,171.31,0,0,0,114,121h-2.19a117.77,117.77,0,0,1-2.48-48.8A3,3,0,0,1,113,69.52Z" transform="translate(-32.03)"/><path class="cls-42" d="M285.3,69.78a171.31,171.31,0,0,1-1,51.44h2.19a119.09,119.09,0,0,0,6-22.71s2.85-17.89-2.51-26.16a6.21,6.21,0,0,0-2.25-2.08A5.27,5.27,0,0,0,285.3,69.78Z" transform="translate(-32.03)"/><path class="cls-43" d="M114.42,69.45a4.09,4.09,0,0,0-4.08,2.71,5.79,5.79,0,0,0-.2,3.13c-.34,5.37-.48,11.3-.28,17.71a188,188,0,0,0,3,28,8.12,8.12,0,0,1-4.06.93,9.07,9.07,0,0,1-5.84-2.72c-.06-5.94,0-12.25.35-18.89.42-8.9,1.16-17.18,2.09-24.77A9.2,9.2,0,0,1,109,70,6,6,0,0,1,114.42,69.45Z" transform="translate(-32.03)"/><path class="cls-43" d="M284.28,69.45a4.09,4.09,0,0,1,4.08,2.71,5.79,5.79,0,0,1,.2,3.13c.34,5.37.48,11.3.28,17.71a188,188,0,0,1-3,28,8.12,8.12,0,0,0,4.06.93,9.07,9.07,0,0,0,5.84-2.72c.06-5.94,0-12.25-.35-18.89-.42-8.9-1.16-17.18-2.09-24.77a9.2,9.2,0,0,0-3.61-5.5A6,6,0,0,0,284.28,69.45Z" transform="translate(-32.03)"/><path class="cls-44" d="M102.09,113.86c-4.38,3.06-7.63,6.58-7.41,10.31.77,13.25,44.81,20.6,51.95,21.8,10.47,1.75,23.28,2.06,48.48,2.6,0,0,49.35,1.07,88.79-11a16.53,16.53,0,0,0,7.62-4.57c4-4.44,4.37-10.45,4.26-13.81a17.81,17.81,0,0,1-.16,10.26c-3.67,10.61-18.55,14.35-31.78,17A386.73,386.73,0,0,1,196,153.72c-8.92,0-69.55-.44-94.42-18-3-2.08-9.49-6.68-8.95-12.27S100.44,114.58,102.09,113.86Z" transform="translate(-32.03)"/><ellipse class="cls-42" cx="164.76" cy="127.15" rx="13.28" ry="1.19"/><ellipse class="cls-45" cx="164.99" cy="146.95" rx="13.28" ry="1.19"/><path class="cls-42" d="M210.3,147a84.73,84.73,0,0,1-8.59-7c-4.44-4.12-6.66-6.22-6.39-8,.65-4.4,14.05-5.42,15.72-5.53H184.48a48.37,48.37,0,0,0,3.57,5.35c4.83,6.28,8.41,7.7,8.19,9.84-.17,1.68-2.67,3.69-12.5,5.35Z" transform="translate(-32.03)"/><path class="cls-41" d="M145.93,125.35c-3.4-38.22,27.78-67.31,56.71-65.1,26.73,2,51.82,30.83,47.76,65.71a69.3,69.3,0,0,0-.37-18.64s-.25-1.62-.51-3c-5.5-28.11-27-40.75-27-40.75-3.23-1.9-12-6.94-23.35-6.76a44.43,44.43,0,0,0-7.19.75,48.22,48.22,0,0,0-17.64,7.2c-11.06,7-23.36,21.35-27.4,40.51A64.89,64.89,0,0,0,145.93,125.35Z" transform="translate(-32.03)"/><circle class="cls-46" cx="166.97" cy="96.55" r="23.61"/><path class="cls-40" d="M184.8,105.34l3.7-18.1h9L199.67,92l2.09-4.78h8.78l3.82,18.1h-9.08l-.66-4.17-2.35,4.17h-5.49l-2.18-4.09-.8,4.09Z" transform="translate(-32.03)"/><path class="cls-33" d="M189.87,96.91a15.26,15.26,0,0,1,19.42,0,14.9,14.9,0,0,1-19.42,0Z" transform="translate(-32.03)"/><circle class="cls-47" cx="167.45" cy="96.97" r="3.2"/><path class="cls-23" d="M275.09,144.71c1.3-.88,6,4.09,12.66,11s11.54,12.08,10.59,13.35c-1.08,1.45-9.85-1.82-16-8.27S273.61,145.71,275.09,144.71Z" transform="translate(-32.03)"/><path class="cls-48" d="M294.65,165.8a43.85,43.85,0,0,0,2.46-10.46,46.38,46.38,0,0,0-4.67-25.24,4.42,4.42,0,0,0-3.55-3.17,4.65,4.65,0,0,0-4,1.51,41.59,41.59,0,0,1-9.83,16.27,30.22,30.22,0,0,0,19.56,21.09Z" transform="translate(-32.03)"/><path class="cls-49" d="M284.31,153.1a56.65,56.65,0,0,0,3.2-23.17,36.22,36.22,0,0,1-5.47,12,35.55,35.55,0,0,1-3.92,4.67,8.61,8.61,0,0,0,2.85,4.81A8.36,8.36,0,0,0,284.31,153.1Z" transform="translate(-32.03)"/><path class="cls-23" d="M120.38,143.53c-1.3-.88-6,4.09-12.66,11s-11.54,12.08-10.59,13.35c1.08,1.45,9.85-1.82,16-8.27S121.86,144.54,120.38,143.53Z" transform="translate(-32.03)"/><path class="cls-48" d="M99.52,165.86a43.85,43.85,0,0,1-2.46-10.46,46.38,46.38,0,0,1,4.67-25.24,4.42,4.42,0,0,1,3.55-3.17,4.65,4.65,0,0,1,4,1.51,41.59,41.59,0,0,0,9.83,16.27,30.22,30.22,0,0,1-19.56,21.09Z" transform="translate(-32.03)"/><path class="cls-49" d="M110.46,152.1a56.65,56.65,0,0,1-3.2-23.17,36.22,36.22,0,0,0,5.47,12,35.55,35.55,0,0,0,3.92,4.67,8.61,8.61,0,0,1-2.85,4.81A8.36,8.36,0,0,1,110.46,152.1Z" transform="translate(-32.03)"/><path class="cls-45" d="M77.44,19.26" transform="translate(-32.03)"/><path class="cls-20" d="M99.26,427.92" transform="translate(-32.03)"/><path class="cls-21" d="M386,229a30.52,30.52,0,0,1,6.73,16.95,161.07,161.07,0,0,0-17.31,35.91c-11.18,33.25-7,57.41-20.67,63.4-6.29,2.75-14.42.83-19.5-1.79A31.43,31.43,0,0,1,323,330c-7.07-14.45-.56-37.25,15.81-58.29a75,75,0,0,1,2.14-27.6c2.92-10.77,5.42-20,13.52-24.1C364.47,214.88,378.47,220,386,229Z" transform="translate(-32.03)"/><path class="cls-20" d="M309.13,289.52a22.84,22.84,0,0,1-.32-9.88,22.39,22.39,0,0,1,1.65-5.14,73.35,73.35,0,0,0,36.8-14.14l-16.2,20Z" transform="translate(-32.03)"/><path class="cls-23" d="M321,308.08l36.9-63.75a24.21,24.21,0,0,1,0-13.57c2.32-7.37,8.1-11.16,7.73-11.55s-9.07,3.75-11.37,11.71c-1,3.53-.1,5.49-1.58,11.39a44.74,44.74,0,0,1-2.62,7.47c-5.66,12.82-18.25,25.6-24.41,41.6A90.46,90.46,0,0,0,321,308.08Z" transform="translate(-32.03)"/><path class="cls-25" d="M385.23,244.89a105.38,105.38,0,0,0-48.55,63.19c-5.35,7-5.55,16.55-.71,23.21,6.19,8.51,17.15,7.59,17.61,7.54a462.68,462.68,0,0,1,15-52.66C373.82,271.07,379.51,257.3,385.23,244.89Z" transform="translate(-32.03)"/><path class="cls-20" d="M309.13,289.52a63.25,63.25,0,0,1,6.32-38.34,155.15,155.15,0,0,0-6.32,38.34Z" transform="translate(-32.03)"/><ellipse class="cls-22" cx="370.28" cy="478.57" rx="38.85" ry="7.36"/><circle class="cls-21" cx="250.86" cy="338.44" r="6.58" transform="translate(-136.1 111.52) rotate(-20.86)"/><circle class="cls-21" cx="258.01" cy="351.44" r="2.36" transform="translate(-88.85 49.85) rotate(-9.95)"/><rect class="cls-3" x="324.76" y="414.68" width="81.93" height="11.95"/><path class="cls-21" d="M321.72,308.08l-8.78,27.23a6.33,6.33,0,0,1,3.73-1,6.49,6.49,0,0,1,4.23,2,16.83,16.83,0,0,0-2.89,6.61,17.79,17.79,0,0,0,1.87,11.7,15.66,15.66,0,0,1,5.72-4.66,15.09,15.09,0,0,1,5.33-1.41,7.33,7.33,0,0,1,3.16,3.86,8.06,8.06,0,0,1-1.15,6.94,16,16,0,0,0,6.06-4.8,16.55,16.55,0,0,0,3-6.27l5.48,9.43c-.14-.42-1.38-4.39,1.07-7.59a7.65,7.65,0,0,1,3.44-2.49,7.83,7.83,0,0,0,7.3,9.13,44.59,44.59,0,0,1,3.45-20.45c-1.73,1.22-11,7.51-21.62,4.56C329.26,337.53,320.54,324,321.72,308.08Z" transform="translate(-32.03)"/><path class="cls-21" d="M391.13,249.35q-1.51,7.31-3.27,14.89-2.21,9.5-4.6,18.44l-3.26-3.6-3.27-2.37a29.29,29.29,0,0,1,.76-8.41C380.07,257.55,388.13,251.41,391.13,249.35Z" transform="translate(-32.03)"/><path class="cls-23" d="M321.56,209.55a200.63,200.63,0,0,0-23.07,60.9,493.08,493.08,0,0,1-11.83,79.2c-9.38,40-17,49.49-20.7,53.57-22.07,24.26-57.81,24.09-71,23.37v12.16c24.68-.22,42.37-.32,58.57-.34,11.55,0,21.46,0,31.07-6.39,2.27-1.51,9.59-6.76,16.11-21.21,5.75-12.75,5.35-17.14,7.49-53.2,1.78-30.13,4.09-34,3-53.65-.8-15.22-2.47-18.28-3.14-28.83C307.12,259.77,308.82,237.63,321.56,209.55Z" transform="translate(-32.03)"/><path class="cls-34" d="M274.85,233.73a59.86,59.86,0,0,1-24.54,10.52,72,72,0,0,1-13.66.75c-11.18,0-18.33-1.71-36.92-1.44-27.85.41-34.92,4.57-52,.22-3.18-.81-9.57-1.34-15.57-5.75a28.59,28.59,0,0,1-4.77-4.43c5.11.49,13.14,1.39,23,3.09,10.61,1.84,12,2.65,19.93,3.64a199.81,199.81,0,0,0,25.27,1.27c6,0,10.54.07,16.73-.36,9-.63,10.13-1.43,24-3.09,8.21-1,8.84-.83,19.27-2C263.81,235.24,270.48,234.35,274.85,233.73Z" transform="translate(-32.03)"/></g></g></svg>