<svg id="Layer_1" data-name="Layer 1" xmlns="http://www.w3.org/2000/svg" xmlns:xlink="http://www.w3.org/1999/xlink" viewBox="0 0 707.73 913.73"><defs><style>.cls-1{fill:none;}.cls-2{clip-path:url(#clip-path);}.cls-3{fill:#2a1b56;}.cls-4{fill:#21154e;}.cls-5{fill:#e7e0d4;}.cls-6{fill:#563b83;opacity:0.82;}.cls-7{fill:#1699b3;}.cls-8{fill:#412a6f;}.cls-9{fill:#3d286b;}.cls-10{fill:#0099b4;}.cls-11{fill:#866aaf;opacity:0.73;}.cls-12{fill:#bdb097;opacity:0.55;}.cls-13{fill:#0085a8;}.cls-14{fill:#0086a8;}.cls-15{fill:url(#linear-gradient);}.cls-16{fill:#6ab9c9;opacity:0.61;}.cls-17{fill:#abdfe9;opacity:0.66;}.cls-18{fill:url(#linear-gradient-2);}</style><clipPath id="clip-path"><rect class="cls-1" x="-0.73" y="-680.48" width="708.81" height="1594.21"/></clipPath><linearGradient id="linear-gradient" x1="354.22" y1="913.73" x2="354.22" y2="643.56" gradientUnits="userSpaceOnUse"><stop offset="0.17" stop-color="#bfe6ef"/><stop offset="0.69" stop-color="#2c9db7"/><stop offset="0.86" stop-color="#179bb5"/><stop offset="1" stop-color="#0099b4"/></linearGradient><linearGradient id="linear-gradient-2" x1="353.58" y1="-680.48" x2="353.58" y2="253.38" gradientUnits="userSpaceOnUse"><stop offset="0.77" stop-color="#2381c4"/><stop offset="0.91" stop-color="#2c9db7"/><stop offset="1" stop-color="#0099b4"/></linearGradient></defs><title>monstermouth-bg3</title><g class="cls-2"><path class="cls-3" d="M708.27,644.33l-719.92-1-2.07-501.94,721.44-4Q708,390.87,708.27,644.33Z"/><path class="cls-4" d="M491.91,420.05c-2,37-36.15,59.15-51.75,69.28-32.6,21.18-65.47,22-83.69,22.16-16.87.19-44.12.17-73.3-15.08-11.43-6-61.25-32-62.14-76.36-.71-35.39,30.18-59.93,38.4-66.46,30-23.82,63.71-24.41,97-25,35.06-.61,68.13-1.18,97.43,21.66C459.91,354.94,494,381.55,491.91,420.05Z"/><path class="cls-5" d="M310.94,624.29c-1.83-28,19.58-51.46,44.57-52.8,26.86-1.45,51.88,22.92,49.84,53.18-15.24,1.12-31.69,1.75-49.21,1.63C340.12,626.18,325,625.44,310.94,624.29Z"/><path class="cls-6" d="M140.33,258.59c11.72,11.16,16.38,21.67,18.48,29.18,6.09,21.8-4.2,37.11,7.07,52.83,1.67,2.34,6.09,8.32,13.63,10.1,8.58,2,19.06-1.91,24.58-9.15,8.08-10.6.15-21.22,7.84-40.7a60,60,0,0,1,6.94-12.75l6.89-51q-7.94-1.5-16-3.15-31.45-6.42-60.7-14.16Z"/><path class="cls-7" d="M-46.51,517.62C20,554.82,164.13,623.58,358.91,625,560.76,626.49,710,554.89,776.72,517.62V646.41H-46.51Z"/><path class="cls-6" d="M491.76,276c5.22-.84,12.17-1,18.25,2.64,13,7.79,13.86,28.15,14.57,51.56.88,28.88-4.14,36.17,0,59.45,2.2,12.36,4.26,13.9,7.07,25.24,12.87,51.88-9.54,102.67-17.78,121.34a245.13,245.13,0,0,1-15.41,29.34l78.8,33.58,42.85-15.78c-18,.92-29.47-4.54-35-7.85-26.31-15.63-31.79-49.61-34.17-64.39-.24-1.51,0-.11-2-27.74-2.7-37.4-3.26-41.37-3.47-51A300.23,300.23,0,0,1,548.15,386a302.08,302.08,0,0,0,2.27-33.3c.26-19.73-1.6-24.82,0-41.11,2.24-22.89,7.81-32.28,10.4-36.16a57.92,57.92,0,0,1,12.65-13.53L524,226.33l-23.55,5.3Z"/><path class="cls-5" d="M158.46,599.17c10.15-36.33,47.12-51.62,70.2-40.69,17.74,8.4,28.78,33,23.31,58.88A503.94,503.94,0,0,1,197.43,609C183.5,606.07,170.49,602.72,158.46,599.17Z"/><path class="cls-5" d="M480.52,617c-8.12-29.23,9.27-58.11,33.9-64.55,26.82-7,58.59,13.53,62.21,46.59q-22.58,5.22-47.06,9.85Q504.24,613.68,480.52,617Z"/><path class="cls-8" d="M500.76,232.31c14.8,40.44,25.33,50,32.67,49.4,6.71-.51,11.64-9.53,30.23-16.69a90.39,90.39,0,0,1,9.8-3.15l-33.59-39.54Z"/><path class="cls-9" d="M153.87,241a92.72,92.72,0,0,1,6.66,13.61c3.49,8.91,3.08,11.92,6.37,17.09,1.51,2.37,6.7,10.53,14.69,11.56s17.08-5.44,22-16L209.77,234l-42.64-7.68Z"/><path class="cls-5" d="M84.23,200.61H70.11c-4.06,23.48,5.27,46.24,22.33,56.15,23.32,13.54,60.38,2.67,75.67-30-15.35-3.66-31.62-8.14-48.62-13.62C107.09,209.12,95.33,204.91,84.23,200.61Z"/><path class="cls-5" d="M637.51,194.81c12.5,26.87,2.43,57.55-19.23,69.94-25.1,14.35-62.69,2.38-75.67-30A338,338,0,0,0,589,219.49,338,338,0,0,0,637.51,194.81Z"/><path class="cls-6" d="M307.07,258.79a65.22,65.22,0,0,1,40.55.94c4.2,1.5,25.24,9,33.64,27.82,12.9,28.84-16.5,56.46-3.2,72,7.25,8.46,24.32,10,33,3.28,16.45-12.71.52-54.95,11.9-59.39,5.57-2.17,11.66,7,19.8,4.29,5.92-2,9.08-9,10.87-15.29l-74.71-49.1-78.16,1.5Z"/><path class="cls-9" d="M307.29,251.17a140.93,140.93,0,0,0,28.18,4.67c19.55,1.22,22.67-2.72,29.95-.1,23.7,8.52,19.6,60.74,31.82,62.23,3.73.46,9.52-3.76,18.46-25-6-36.49-16.3-46.79-24.85-49.25-7-2-12.63-1.88-30.45.56C347.61,246.07,329.49,248.48,307.29,251.17Z"/><path class="cls-5" d="M208.32,236.74c-5,29.95,11.2,56.95,32.6,63.7,26.24,8.29,62.87-13.08,67.94-52A408.23,408.23,0,0,1,260.74,246,408.26,408.26,0,0,1,208.32,236.74Z"/><path class="cls-5" d="M500.44,237.63c5,29.95-11.2,56.95-32.6,63.7-26.24,8.29-62.87-13.08-67.94-52A408.23,408.23,0,0,0,448,246.89,408.26,408.26,0,0,0,500.44,237.63Z"/><path class="cls-10" d="M84.06,200.24a731.92,731.92,0,0,0,263.3,52.5,732.34,732.34,0,0,0,280.82-52.5Z"/><path class="cls-6" d="M239.25,413.76c1.75,12.42-7.09,26.87-17.66,27.24-10.91.39-21.11-14.31-19.44-27.24,1.15-8.87,8.25-19.85,18.55-19.84S238,405,239.25,413.76Z"/><ellipse class="cls-6" cx="226.32" cy="506.29" rx="9.67" ry="11.33"/><ellipse class="cls-11" cx="169.75" cy="309.79" rx="2.62" ry="4.14"/><path class="cls-11" d="M171.82,320.46c-.15-.25-1.18-2-2.74-2a3.24,3.24,0,0,0-2.3,1.31c-2.74,3.22-.89,11.1,3,16.54a22.53,22.53,0,0,0,4.49,4.71,3.84,3.84,0,0,0,5.48-.77,3.78,3.78,0,0,0-.65-4.61,27,27,0,0,1-7.23-15.22Z"/><path class="cls-12" d="M69.4,216.81c11.77,1.16,24.5,2.95,38,5.63a391.72,391.72,0,0,1,54.44,15c.75-.95,1.52-2,2.27-3.13a43.68,43.68,0,0,0,3.69-6.84c-17.27-4.46-35.41-9.8-54.22-16.19q-15.21-5.17-29.33-10.65H70.11c-.32,1.84-.58,3.85-.75,6A63.61,63.61,0,0,0,69.4,216.81Z"/><path class="cls-12" d="M208.2,237.42c-.28,1.8-.5,3.74-.63,5.81a65.15,65.15,0,0,0,.12,9.78,324.57,324.57,0,0,1,97.21,11,58.71,58.71,0,0,0,3.53-12.69c-16.61-1.07-34.39-2.82-53.16-5.49C238.59,243.41,222.87,240.55,208.2,237.42Z"/><path class="cls-12" d="M400,250.19a56,56,0,0,0,3.29,13.29,253.84,253.84,0,0,1,96.75-2,71.88,71.88,0,0,0,.76-23.15c-16,3.41-33.61,6.42-52.75,8.58C430.9,248.82,414.81,249.82,400,250.19Z"/><path class="cls-12" d="M542.61,234.74c.58,1.42,1.24,2.91,2,4.43a68.48,68.48,0,0,0,4.14,7.25q38.67-16.08,79.18-31.31,7.14-2.68,14.25-5.3a63.27,63.27,0,0,0-4.5-14.87l-13.54,1.65q-12.4,6.75-25.75,13.37C579.12,219.49,560.45,227.68,542.61,234.74Z"/><path class="cls-11" d="M216.15,402.62a2.36,2.36,0,0,0,.23-2.12,2,2,0,0,0-1.44-.86c-2.62-.51-6.38,3-8.18,6.77a14.24,14.24,0,0,0-1.2,3.93,2.43,2.43,0,0,0,2.12,2.78,2.39,2.39,0,0,0,2.33-1.79,17,17,0,0,1,6.13-8.71Z"/><path class="cls-9" d="M230.28,426.33a2.36,2.36,0,0,1,2-.71,2,2,0,0,1,1.16,1.21c1.08,2.44-1.44,6.89-4.74,9.5a14.24,14.24,0,0,1-3.56,2.05,2.43,2.43,0,0,1-3.18-1.44,2.39,2.39,0,0,1,1.22-2.68,17,17,0,0,0,7.1-7.94Z"/><path class="cls-11" d="M381.45,347a2.87,2.87,0,0,0-2.35-1.1,2.49,2.49,0,0,0-1.55,1.32c-1.61,2.82.91,8.51,4.59,12.07a17.31,17.31,0,0,0,4.06,2.92,3,3,0,0,0,4-1.36,2.9,2.9,0,0,0-1.15-3.39A20.74,20.74,0,0,1,381.45,347Z"/><path class="cls-8" d="M541.75,388.22c-2.73-2.89-7.52-4.16-9.64-3.12-5.44,2.67,1.69,22.86,4.47,42,7,48.37-15,82.31-4,88.21,3.88,2.09,9.71-.5,12.7-3.4,6-5.79,3.24-15.38.68-33.11-.38-2.64-8.44-59.64-2.71-74.27a18.71,18.71,0,0,0,1.11-11.1A11,11,0,0,0,541.75,388.22Z"/><path class="cls-3" d="M333.51,329.53c5.33,6.79,11.38,16.92,11.49,29.32.16,18.17-12.58,26.76-8.07,40.29,2.7,8.08,10.77,15.59,19.76,15.85,9.62.27,18.74-7.81,21.34-16.54,3.92-13.2-9.13-21.06-10.11-39.6-.66-12.52,4.55-23.14,9.36-30.43a53.28,53.28,0,0,0-43.77,1.11Z"/><circle class="cls-13" cx="326.79" cy="230.53" r="8.16"/><path class="cls-13" d="M236.12,200c3.63,5.22,17.51,23.93,37.74,22.69,17.83-1.09,29.92-17,33.84-22.69Z"/><path class="cls-13" d="M109.63,209.43a10,10,0,0,0-3.53-3.95c-4.29-2.72-9.11-.9-9.71-.66"/><path class="cls-13" d="M481.56,240.78a39.86,39.86,0,0,0-71.82,9.65c10.44-.7,21.42-1.75,32.89-3.22C456.44,245.44,469.44,243.24,481.56,240.78Z"/><ellipse class="cls-13" cx="366.37" cy="222.72" rx="15.27" ry="11.91"/><path class="cls-13" d="M569.89,200.24a10,10,0,0,0-5.35,9.92,10.06,10.06,0,0,0,10,8.46l53.65-18.38Z"/><path class="cls-13" d="M492.74,200.24c1.86,12.42,10.76,22.19,21.62,24.29,13.92,2.68,29.38-7.61,32.59-24.29q-15.05-.14-30.36-.12Q504.58,200.13,492.74,200.24Z"/><circle class="cls-13" cx="151.48" cy="211.62" r="10.82"/><path class="cls-12" d="M311.24,613.54c-.17,1.35-.3,2.82-.37,4.39a50.91,50.91,0,0,0,.07,5.37c12.77,1,26.19,1.62,40.19,1.89,19.17.36,37.3-.07,54.27-1,.06-1.65.07-3.42,0-5.29s-.21-3.75-.4-5.44a169.08,169.08,0,0,1-93.76.12Z"/><path class="cls-13" d="M676.43,605.37c2.16,11.43-14.73,27.22-30.19,24.7-8.68-1.42-19.09-9-19.06-19.21,0-10.64,11.29-17.35,19.06-19.21C659,588.61,674.6,595.66,676.43,605.37Z"/><path class="cls-14" d="M392.13,680.37c-1,3.65-7.82,4.92-15.21,2.83s-12.54-6.74-11.53-10.39,7.82-4.92,15.21-2.83S393.14,676.72,392.13,680.37Z"/><path class="cls-12" d="M164,585.58a132.36,132.36,0,0,0,89.41,18.35A41.93,41.93,0,0,1,252,617.36,503.94,503.94,0,0,1,197.43,609c-13.93-2.93-26.94-6.27-39-9.82a64.16,64.16,0,0,1,5.5-13.59Z"/><path class="cls-12" d="M478.5,604.67c.07,1.56.21,3.23.45,5a57.81,57.81,0,0,0,1.44,7.24q22.14-3,46-7.27c17.58-3.21,34.34-6.78,50.23-10.57a54.83,54.83,0,0,0-1.95-9.7c-.32-1.08-.67-2.12-1-3.11a204.78,204.78,0,0,1-95.16,18.4Z"/><rect class="cls-15" x="0.36" y="643.56" width="707.73" height="270.17"/><path class="cls-13" d="M330.09,663c0,14.37-13.95,24.38-25.84,26-17.4,2.42-36.83-12.16-36-27.85.81-14.85,19.59-26.76,36-24.22C316,638.77,330.08,648.55,330.09,663Z"/><path class="cls-13" d="M514.08,655.13c0,.92.7,22.79-12.35,27.61-11.29,4.17-26.77-6.66-29.5-19.24-3.8-17.52,17.65-36.17,29.5-32.83C510.32,633.1,513.74,647,514.08,655.13Z"/><path class="cls-13" d="M413.77,698.09c-.58,2.44-2.84,4.26-4.83,4.2-3.83-.11-7-7.15-4.94-9.87,1.3-1.69,4.83-2,7.25-.32A5.81,5.81,0,0,1,413.77,698.09Z"/><path class="cls-14" d="M136.39,593.25c-1.15,10.36,3.58,20.15,11.6,24.38,10.66,5.62,26.1.89,32.91-12.4l-22.21-5.93Z"/><path class="cls-13" d="M88.46,621.86c0,11.88-11.54,20.16-21.37,21.53-14.39,2-30.46-10.06-29.76-23,.67-12.28,16.2-22.13,29.76-20C76.8,601.84,88.45,609.93,88.46,621.86Z"/><path class="cls-13" d="M163,641.65c7.38-.33,13.57,11.32,15.86,17.83,4.89,13.95,2,33.33-6.64,35.89-7.94,2.36-20.8-9.46-23.47-22.68C145.87,658.65,154.35,642,163,641.65Z"/><path class="cls-13" d="M89.75,660.74c-1,3.65-7.82,4.92-15.21,2.83S62,656.84,63,653.19s7.82-4.92,15.21-2.83S90.76,657.09,89.75,660.74Z"/><path class="cls-16" d="M197.43,609c12.56,15.09,17.12,28.47,18.85,38.27,1.88,10.59.69,18.28,6.88,28.06,2.18,3.45,7.8,12,18.65,14.93A29.06,29.06,0,0,0,260,689.1c11.23-4.77,15.1-16,20.69-26.73,5.34-10.3,14.35-24.28,30.24-39.07-21.76-1.39-44.83-3.62-69-7C226.48,614.15,211.64,611.69,197.43,609Z"/><path class="cls-17" d="M230.12,658.94c-.15-.25-1.18-2-2.74-2a3.24,3.24,0,0,0-2.3,1.31c-2.74,3.22-.89,11.1,3,16.54a22.53,22.53,0,0,0,4.49,4.71,3.84,3.84,0,0,0,5.48-.77,3.78,3.78,0,0,0-.65-4.61,27,27,0,0,1-7.23-15.22Z"/><path class="cls-16" d="M405.4,624.14a210.46,210.46,0,0,1,18.85,20.37c7.15,8.84,8.64,12.15,14.07,16.52,4.28,3.45,16.27,13.11,26.44,10.22,15.88-4.52,12.2-35.33,33.46-44.7,6.19-2.73,10.25-1.76,11.4-1.44,9.33,2.62,13.1,15.26,14.81,21,5.29,17.75-1.34,22.53,3.48,33.82,5.34,12.51,20.9,23.89,34,20.48,10.8-2.82,17.17-15.06,19.15-24.17,3.75-17.26-8.14-25.42-8.81-48.48a82.2,82.2,0,0,1,4.41-28.69c-19.81,4.58-40.71,8.81-62.62,12.5A1058.94,1058.94,0,0,1,405.4,624.14Z"/><path class="cls-17" d="M535,666.88c-.15-.25-1.18-2-2.74-2a3.24,3.24,0,0,0-2.3,1.31c-2.74,3.22-.89,11.1,3,16.54a22.53,22.53,0,0,0,4.49,4.71,3.84,3.84,0,0,0,5.48-.77,3.78,3.78,0,0,0-.65-4.61A27,27,0,0,1,535,666.88Z"/><ellipse class="cls-17" cx="531.92" cy="659.26" rx="2.42" ry="3.69"/><path class="cls-14" d="M378.63,663.89c-1,3.65-7.82,4.92-15.21,2.83S350.88,660,351.9,656.34s7.82-4.92,15.21-2.83S379.65,660.24,378.63,663.89Z"/><path class="cls-13" d="M634.73,647.86c-.58,2.44-2.84,4.26-4.83,4.2-3.83-.11-7-7.15-4.94-9.87,1.3-1.69,4.83-2,7.25-.32A5.81,5.81,0,0,1,634.73,647.86Z"/><path class="cls-1" d="M708,729.87H.27L0,141.43H707.73Q707.86,435.65,708,729.87Z"/><path class="cls-18" d="M707.88,160.85a576.51,576.51,0,0,1-135,64.68C483.43,254.74,410.35,254.1,347.5,253c-132.22-2.3-226.26-34.37-247.9-42A725.73,725.73,0,0,1,.14,167.2L-.73-680.48h708.6Z"/><path class="cls-13" d="M152.56,182.35c-2,12.41-30.44,22.48-51.66,13.91-13.67-5.53-27.26-20-24.23-30.28,3.5-11.92,28.54-16.12,46.83-10.47C137.49,159.82,154.25,172,152.56,182.35Z"/><ellipse class="cls-13" cx="157.49" cy="205.53" rx="4.81" ry="6.08"/><path class="cls-13" d="M239.46,244.32a28,28,0,0,1,53.41,6Z"/><path class="cls-13" d="M563.69,183.81c-5.52-11.3,11.86-35.94,34.13-41.19,14.35-3.39,33.79.55,37.27,10.72,4,11.75-14,29.65-32.17,35.6C589,193.5,568.31,193.26,563.69,183.81Z"/><ellipse class="cls-13" cx="549.48" cy="153.02" rx="16.09" ry="12.37"/><ellipse class="cls-13" cx="349.48" cy="191.92" rx="20.04" ry="25.29"/><ellipse class="cls-13" cx="376.34" cy="221.88" rx="13.35" ry="10.27"/><ellipse class="cls-13" cx="238.26" cy="181.34" rx="15.57" ry="20.07" transform="translate(-25.41 39.47) rotate(-8.99)"/><ellipse class="cls-13" cx="297.68" cy="233.22" rx="4.81" ry="6.08"/><ellipse class="cls-13" cx="573.65" cy="205.53" rx="4.81" ry="6.08"/><path class="cls-13" d="M457.18,237.44c-10.5-6.92-8.07-37,8.43-52.83,10.63-10.22,29.37-16.71,37.54-9.74,9.45,8.07,3,32.64-9.59,47C483.91,232.89,466,243.23,457.18,237.44Z"/></g></svg>