<svg xmlns="http://www.w3.org/2000/svg" viewBox="0 0 406.82 425.46"><defs><style>.cls-1{fill:#8e8e8e;opacity:0.57;}.cls-2{fill:#ffe000;}.cls-22,.cls-3{fill:#f9e65c;}.cls-4{fill:#fcce08;}.cls-5{fill:#66686a;opacity:0.38;}.cls-6{fill:#f9eec0;stroke:#fee000;stroke-miterlimit:10;stroke-width:5.14px;}.cls-7{fill:#f9f6dc;}.cls-8{fill:#f8f7f4;}.cls-9{fill:#5a6d73;}.cls-10{fill:#bdc7c9;opacity:0.54;}.cls-11{fill:#fbfcfc;opacity:0.64;}.cls-12{fill:#a0c63b;}.cls-13{fill:#cbc89f;}.cls-14{fill:#e2dab5;opacity:0.46;}.cls-15{fill:#e19b26;}.cls-16{fill:#60c3ea;}.cls-17{fill:#72a441;}.cls-18{fill:#ec2224;}.cls-19{fill:#db222b;}.cls-20{fill:#931d2f;}.cls-20,.cls-24,.cls-35{opacity:0.42;}.cls-21{fill:#f1bf2e;}.cls-22,.cls-38{opacity:0.48;}.cls-23{fill:#f3b81e;}.cls-24{fill:#871b31;}.cls-25{fill:#2862ae;}.cls-26,.cls-35,.cls-37{fill:#19469b;}.cls-26{opacity:0.51;}.cls-27{fill:#336fb7;}.cls-28{fill:#d87f27;}.cls-29{fill:#194366;}.cls-30{font-size:60.33px;fill:#4da1d5;font-family:Amatic-Bold, Amatic;font-weight:700;}.cls-31{fill:#e98c23;}.cls-32{fill:#fbcd0b;}.cls-33{fill:#efb21e;}.cls-34,.cls-38{fill:#3c80c2;}.cls-36{fill:#4186c6;opacity:0.55;}.cls-39{fill:#d59e29;}.cls-40{fill:#d62027;}.cls-41{fill:#68151d;}.cls-42{fill:#080706;}.cls-43{fill:#f2f2f3;}.cls-44{fill:#c2c4c4;opacity:0.62;}.cls-45{fill:#df464f;}.cls-46{fill:#a3343f;}.cls-47{fill:#e26a76;}.cls-48{fill:#dbabb1;opacity:0.3;}.cls-49{fill:#ef3649;}</style></defs><title>winnie-icon</title><g id="Layer_2" data-name="Layer 2"><g id="Layer_1-2" data-name="Layer 1"><ellipse class="cls-1" cx="206" cy="408.48" rx="59.6" ry="3.82"/><path class="cls-2" d="M332.82,214.5a105.13,105.13,0,0,1,38.31,24.79c-.35-.33-3-2.65-6.22-2a6.27,6.27,0,0,0-2.51,1.14,34.33,34.33,0,0,1,22.68,23.68,39.44,39.44,0,0,0-8.6-6.24c-1.16-.62-2.29-1.15-3.37-1.6a36.19,36.19,0,0,1,9.68,12.83,15.24,15.24,0,0,0-4.76-2.8,15,15,0,0,0-2.92-.74,90.8,90.8,0,0,1,14,25.07,19.49,19.49,0,0,0-6.34-5.94,64.95,64.95,0,0,1,7.6,18.85,22,22,0,0,0-7.43-7.6,33.11,33.11,0,0,1,5.7,18.44,11.14,11.14,0,0,0-5-4.64A10.32,10.32,0,0,0,381,307a71.08,71.08,0,0,1,2.61,12.93c4.49,42.35-29.67,92.68-58.44,90.26-4.57-.38-12.93-2.43-22.74-13.94l8.09-9.47c5.75,1.5,10.18.15,10.73-1.75.51-1.75-2.06-4.72-6.24-6.72l7-16.6a63.06,63.06,0,0,0,3.74-24.85c-1.3-29.23-3.67-42.56-1.7-59.79,1.3-11.38,2.76-9.3,5.58-27.15A276.45,276.45,0,0,0,332.82,214.5Z"/><path class="cls-3" d="M336.14,215.63c5.57,3.39,12.61,9,16.16,17.82,2.17,5.41,2.09,9.71,2.25,13.13.87,18,10.06,28.3,16.11,45.34,9.5,26.76,3.5,52.08,1.7,59.67a113.49,113.49,0,0,1-23.26,46.07c6.18-5.18,30.55-26.81,33.16-61.51a83,83,0,0,0-4.17-32.57,18.47,18.47,0,0,1,8.23,3.93,57.69,57.69,0,0,0-7.49-16.93,12.94,12.94,0,0,1,3,.83,13.35,13.35,0,0,1,5,3.68l-2-4.22q-2.65-5.63-5.2-11.21a6,6,0,0,1,1.72.19,7.42,7.42,0,0,1,4.42,3.8q-3.24-6-7-12.3Q374.89,264.84,371,259a16.71,16.71,0,0,1,3.28,1,17,17,0,0,1,5,3.32,42.2,42.2,0,0,0-9.46-11.26,30.57,30.57,0,0,1,11.47,5.22,34,34,0,0,0-21.81-19.63c0-.25-.22-3,1.62-4.41s5.39-1,7.56,1.65a58.25,58.25,0,0,0-32.53-19.3Z"/><path class="cls-2" d="M72.41,212.26A105.13,105.13,0,0,0,34.09,237c.35-.33,3-2.65,6.22-2a6.27,6.27,0,0,1,2.51,1.14,34.33,34.33,0,0,0-22.68,23.68,39.44,39.44,0,0,1,8.6-6.24C29.9,253,31,252.5,32.11,252a36.19,36.19,0,0,0-9.68,12.83,15.24,15.24,0,0,1,4.76-2.8,15,15,0,0,1,2.92-.74,90.8,90.8,0,0,0-14,25.07,19.49,19.49,0,0,1,6.34-5.94,64.95,64.95,0,0,0-7.6,18.85,22,22,0,0,1,7.43-7.6,33.11,33.11,0,0,0-5.7,18.44,11.14,11.14,0,0,1,5-4.64,10.32,10.32,0,0,1,2.71-.78,71.08,71.08,0,0,0-2.61,12.93C17.18,360,51.33,410.34,80.1,407.92c4.57-.38,12.93-2.43,22.74-13.94l-8.09-9.47C89,386,84.57,384.66,84,382.76,83.52,381,86.08,378,90.27,376l-7-16.6c-2.71-6.48-4.09-9.31-3.23-13,.46-2,1.37-3.49,1.94-7a29.4,29.4,0,0,0,.31-6.55c-.63-12.05,2.58-32-1.06-58.09-1.81-13-3-10.66-5.58-27.15A276.45,276.45,0,0,1,72.41,212.26Z"/><path class="cls-3" d="M27.66,40a169.32,169.32,0,0,0,7.39,15.5c8,14.73,13.52,24.69,24.29,29.23a31.34,31.34,0,0,0,12.08,2.38L75,78.22,78,87.73l2-.45,1.83-3.86,1.19,3.17,11.34-2.9.46-7.52,3.47,6,13.36-6.26c-2-4.71-10.52-23.69-32.27-34C54.65,30.08,31.63,38.51,27.66,40Z"/><path class="cls-4" d="M27.66,40c4.27,5.07,11.29,11.68,20.65,12.51,10.92,1,15-6.8,23.85-4.41C81.71,50.71,81.75,61,94.25,67.24a35,35,0,0,0,15,3.52L79.44,41.86Z"/><path class="cls-2" d="M104.11,49.77,77.92,31a72.8,72.8,0,0,0-17.26.57c-10.14,1.56-13.8,4.35-21,4.26-4.56-.06-11.11-1.27-19-6.85a17.78,17.78,0,0,0,4.45,9C37.69,51,66.95,33.69,78.3,46.5c3.51,4,4.46,9.85,11.38,13.14a19.68,19.68,0,0,0,8.15,1.83,3.64,3.64,0,0,1,.45,2.41,3.73,3.73,0,0,1-1.68,2.45l7.18-2.12A2.59,2.59,0,0,1,101.67,68a3.92,3.92,0,0,0,5.65-2l4.18,10.12Z"/><path class="cls-3" d="M379.69,40.87a169.32,169.32,0,0,1-7.39,15.5c-8,14.73-13.52,24.69-24.29,29.23A31.34,31.34,0,0,1,335.93,88l-3.54-8.92-3.05,9.5-2-.45-1.83-3.86-1.19,3.17-11.34-2.9L312.47,77,309,83l-13.36-6.26c2-4.71,10.52-23.69,32.27-34C352.7,30.92,375.72,39.35,379.69,40.87Z"/><path class="cls-4" d="M379.69,40.87C375.42,45.94,368.4,52.55,359,53.38c-10.92,1-15-6.8-23.85-4.41-9.55,2.58-9.58,12.88-22.09,19.11a35,35,0,0,1-15,3.52l29.85-28.9Z"/><path class="cls-2" d="M303.24,50.61l26.18-18.76a72.8,72.8,0,0,1,17.26.57c10.14,1.56,13.8,4.35,21,4.26,4.56-.06,11.11-1.27,19-6.85a17.78,17.78,0,0,1-4.45,9c-12.61,13-41.87-4.31-53.22,8.51-3.51,4-4.46,9.85-11.38,13.14a19.68,19.68,0,0,1-8.15,1.83,3.64,3.64,0,0,0-.45,2.41,3.73,3.73,0,0,0,1.68,2.45l-7.18-2.12a2.59,2.59,0,0,0,2.11,3.82,3.92,3.92,0,0,1-5.65-2l-4.18,10.12Z"/><ellipse class="cls-5" cx="199.66" cy="404.18" rx="166.99" ry="21.28"/><path class="cls-2" d="M129,44.08a16.55,16.55,0,0,0-28.84-8.87,35.2,35.2,0,0,1,13.65,7.12,34.79,34.79,0,0,1,6.68,7.6,28,28,0,0,0-20.33,7c.44-.1,7.5-1.51,11.94,3.29a11.36,11.36,0,0,1,2.79,5.86,44.09,44.09,0,0,0-9.91,4.63,50.65,50.65,0,0,0-9.4,7.92A93.33,93.33,0,0,0,83.26,94.32l-11.05,34a97.4,97.4,0,0,0-5.92,25.35,98.84,98.84,0,0,0,0,18.84c1.89,20.16,9.45,32,12.71,45.29S83.19,242,83.81,267.9c1.56,65.38-15,85.55-.51,106.64,4.92,7.16,14.71,16.37,36.46,21q43-1,88.19-.81,39.86.24,78,1.51c7.46-1.3,17.76-4.39,25.83-12.61,13.34-13.59,12.59-33.06,12.55-51.74a820.42,820.42,0,0,1,5.08-91.29c-3.33-20.68-1.05-36.21,1.81-46.8,4-14.92,8-20.54,10.33-30.65,3.22-14,1.9-35.18-19.15-65.57A160.43,160.43,0,0,0,313,82.91c-6.42-8.94-9.47-11.21-11.22-12.37a30.86,30.86,0,0,0-10.94-4.44,11.12,11.12,0,0,1,3.61-7.7c4.37-3.85,10-2.27,10.41-2.16a15.74,15.74,0,0,0-6.52-5.63,16.65,16.65,0,0,0-13.11,0,28.28,28.28,0,0,1,22-15.13c-1.09-1.15-6.05-6.12-13.51-6.18-7.87-.06-15.32,5.37-18.5,13.69-4.12-4.91-27.3-31.52-66.45-34.07C161.53,5.84,132,40.47,129,44.08Z"/><path class="cls-3" d="M128.56,86a71.42,71.42,0,0,0-17,18c-15,23.06-11.78,48-10.46,55.73a309.87,309.87,0,0,0,89.71,16.69A310.49,310.49,0,0,0,298.9,161.09c1.13-10.22,2.05-32.2-10-54.78a89.51,89.51,0,0,0-15.18-20.62c-2.71,37.43-32.61,66.85-68.17,69C167,157,131.82,126.67,128.56,86Z"/><path class="cls-3" d="M101.13,159.8l197.77,1.29c4.32,15.6,10.39,46.53,0,82.08-20.75,71.13-89.16,98.57-98.32,102.07-12.4-5.66-67.74-32.52-91.65-96.22C94.56,210.67,98.16,176.54,101.13,159.8Z"/><path class="cls-6" d="M288.83,69.35c3.29,42.56-41.15,79.79-85.1,79.52-43.39-.27-87.27-37.08-84-79.52C122.83,29.57,166,2.57,204.29,2.57S285.77,29.77,288.83,69.35Z"/><path class="cls-7" d="M276.79,73.38c1.49,36.25-35.83,65.09-71.39,65.42-36.31.33-74.31-29-72.81-65.42C134,38.8,170.51,14.12,203.73,13.72,237.54,13.3,275.34,37.94,276.79,73.38Z"/><path class="cls-8" d="M259.13,76.68c2.18,27.35-26.09,51.67-54.57,51.21S148.65,102.3,151.68,75c2.81-25.38,30.8-41.94,55.41-41.13C230.86,34.64,257.15,51.83,259.13,76.68Z"/><circle class="cls-9" cx="205.44" cy="83.08" r="15.17"/><circle cx="205.68" cy="83.08" r="9.87"/><path class="cls-10" d="M200,80.88c-.68-1.12-1.37-2.31-2-3.56-1-1.91-1.92-3.76-2.69-5.52a15.16,15.16,0,0,1,20.15-.1c-.55,1.45-1.18,3-1.9,4.54s-1.48,3.11-2.23,4.5a8.39,8.39,0,0,1-11.28.14Z"/><ellipse class="cls-11" cx="206.44" cy="50.54" rx="21.23" ry="15.59"/><path class="cls-12" d="M208.79,1.93"/><path class="cls-4" d="M69.09,174.31c.61-.4,4,4.21,4,4.21,6.15,8.4,11.48,15.69,15.53,29.93,1.33,4.68,1.84,13.16,4.17,29.76,7,50.07,7.62,53.42,9,58.69,4.3,16.07,10.54,39.78,30.26,57.59,24.34,22,55.36,23.25,67.46,23.09v13.58a201.18,201.18,0,0,1-64.46-2.75,197.82,197.82,0,0,1-25.73-7.2c-3.57-1.27-10.1-5.49-15.56-12.29-8.13-10.13-9.06-21.74-9.69-28.84-5.35-60.74-12.58-66.67-8.61-106.25.38-3.8.71-6.36,1-8.32.46-3.18.64-4.82,1-6.38a45.17,45.17,0,0,1,3-9.28C85,198.82,68,175,69.09,174.31Z"/><path class="cls-4" d="M289,62.76c1.45-1,6.75,4.56,14.13,12.3S316,88.55,315,90c-1.21,1.62-11-2-17.81-9.24S287.35,63.88,289,62.76Z"/><path class="cls-13" d="M310.85,86.31a49,49,0,0,0,2.74-11.68,51.79,51.79,0,0,0-5.21-28.19,4.93,4.93,0,0,0-4-3.54A5.19,5.19,0,0,0,300,44.6a46.45,46.45,0,0,1-11,18.16,33.75,33.75,0,0,0,21.85,23.55Z"/><path class="cls-14" d="M299.29,72.13a63.27,63.27,0,0,0,3.58-25.88,40.45,40.45,0,0,1-6.11,13.42,39.7,39.7,0,0,1-4.38,5.21,9.62,9.62,0,0,0,3.19,5.37A9.33,9.33,0,0,0,299.29,72.13Z"/><path class="cls-4" d="M116.23,61.45c-1.45-1-6.75,4.56-14.13,12.3S89.21,87.24,90.27,88.66c1.21,1.62,11-2,17.81-9.24S117.88,62.57,116.23,61.45Z"/><path class="cls-13" d="M92.93,86.38A49,49,0,0,1,90.19,74.7,51.79,51.79,0,0,1,95.4,46.51a4.93,4.93,0,0,1,4-3.54,5.19,5.19,0,0,1,4.43,1.69,46.45,46.45,0,0,0,11,18.16A33.75,33.75,0,0,1,92.93,86.38Z"/><path class="cls-15" d="M324.31,326.86,330.6,325a31.67,31.67,0,0,1-2.41-14.35c.41-5.3,2.17-8.38,2-14.7a33.17,33.17,0,0,0-1.41-8.49c-1.09,6.81-2.06,13.94-2.87,21.4Q324.87,318.17,324.31,326.86Z"/><path class="cls-14" d="M105.15,71a63.27,63.27,0,0,1-3.58-25.88,40.45,40.45,0,0,0,6.11,13.42,39.7,39.7,0,0,0,4.38,5.21,9.62,9.62,0,0,1-3.19,5.37A9.33,9.33,0,0,1,105.15,71Z"/><path class="cls-15" d="M83,326.86,76.73,325a31.67,31.67,0,0,0,2.41-14.35c-.41-5.3-2.17-8.38-2-14.7a33.17,33.17,0,0,1,1.41-8.49c1.09,6.81,2.06,13.94,2.87,21.4Q82.46,318.17,83,326.86Z"/><path class="cls-16" d="M82,134.27"/><path class="cls-17" d="M92.64,379"/><path class="cls-4" d="M336.08,174.29c-.66-.35-5.69,7-9.52,15.39a84,84,0,0,0-5.81,17.77c-11,37.35-16.34,63.92-18.82,84.19-1.49,12.21-4.08,36.33-21.47,57.91-.61.76-1.16,1.38-1.65,1.92-24.65,27.1-64.56,26.9-79.29,26.1v13.58c27.56-.25,47.32-.36,65.41-.38,12.9,0,24,0,34.7-7.13,2.54-1.69,10.71-7.55,18-23.69,6.42-14.24,6-19.14,8.36-59.41,2-33.65,4.56-37.93,3.4-59.92-.26-5-.61-8.76-1-12-1.53-13.06-2.23-16.16-2.53-20.24C324.5,189.66,337,174.8,336.08,174.29Z"/><path class="cls-3" d="M69.09,213.4c-5.57,3.39-12.61,9-16.16,17.82-2.17,5.41-2.09,9.71-2.25,13.13-.87,18-10.06,28.3-16.11,45.34-9.5,26.76-3.5,52.08-1.7,59.67a113.49,113.49,0,0,0,23.26,46.07c-6.18-5.18-30.55-26.81-33.16-61.51a83,83,0,0,1,4.17-32.57,18.47,18.47,0,0,0-8.23,3.93,57.69,57.69,0,0,1,7.49-16.93,12.94,12.94,0,0,0-3,.83,13.35,13.35,0,0,0-5,3.68l2-4.22Q23,283,25.54,277.43a6,6,0,0,0-1.72.19,7.42,7.42,0,0,0-4.42,3.8q3.24-6,7-12.3,3.92-6.51,7.83-12.33a16.71,16.71,0,0,0-3.28,1,17,17,0,0,0-5,3.32,42.2,42.2,0,0,1,9.46-11.26,30.57,30.57,0,0,0-11.47,5.22,34,34,0,0,1,21.81-19.63c0-.25.22-3-1.62-4.41s-5.39-1-7.56,1.65a58.25,58.25,0,0,1,32.53-19.3Z"/><path class="cls-18" d="M340.76,199.48c6.19,16,5.5,27.84,3.69,35.74-.83,3.62-1.59,6.72-2.43,9.82-1.66,6.13-3.17,10.9-5.39,17.54-7,21-7.89,21.76-7.9,26.06a35.08,35.08,0,0,0,4.76,17.22,430.46,430.46,0,0,1-42.94,14.55c-26.84,7.54-53.26,15-85.65,14.71-22.49-.18-47.43-6.4-97.29-18.84-16.34-4.08-29.82-7.78-39.14-10.42a36.07,36.07,0,0,0,5.8-17c.5-8.26-2.68-9.15-7.74-29.14a110.61,110.61,0,0,1-3.74-25.13c-.05-2,0-3.66,0-5.07a68,68,0,0,1,5.82-25.61l21.49,1.63c16.6,1.27,24.91,1.9,28.46,2.21,39,3.33,58.5,5,63.93,7.28a18.21,18.21,0,0,0,10.4,1.51,15.68,15.68,0,0,0,3.65-1.11c7.74-3.27,22.94-.16,22.94-.16,12.84,2.63,21.86-5.37,60.31-10.73,19.83-2.77,41.2-4,51-4.5C335,199.74,338.47,199.58,340.76,199.48Z"/><path class="cls-19" d="M81.23,205.37l-31.54-7.06C34.57,204,28.4,211.58,25.56,217.47c-6.46,13.39.54,26.11-8.56,40A39.76,39.76,0,0,1,5.35,268.89c11.39,6.73,31.07,15.91,56,15.63a99.22,99.22,0,0,0,12.58-.95,147.59,147.59,0,0,1-1.09-44.34A149.91,149.91,0,0,1,81.23,205.37Z"/><path class="cls-19" d="M318.55,207.66,351.87,199c15.47,5.59,22.18,13.32,25.4,19.62,7.11,13.9.8,28.19,11.76,42.64a42.38,42.38,0,0,0,9.14,8.77,349.16,349.16,0,0,1-57.88,15.63q-5.85,1-11.55,1.87l.17-1.56q1.42-12.84,3-25.56a114.44,114.44,0,0,0-.82-19.77C330,233,327.16,221.39,318.55,207.66Z"/><path class="cls-2" d="M91.25,105.26a23.06,23.06,0,0,0-26.06,10.83,24.82,24.82,0,0,1,8.14-2.74,24.37,24.37,0,0,1,3.84-.27,21.46,21.46,0,0,0-9,6.24,21.19,21.19,0,0,0-3.88,6.83,10.15,10.15,0,0,1,7-2.94,9.87,9.87,0,0,1,5.49,1.71A12.7,12.7,0,0,0,70,126.85c-4.28,2.75-6.52,8.18-6,14,.28-.69,2.47-5.94,7.79-7.27a10.46,10.46,0,0,1,4.93,0Z"/><path class="cls-2" d="M317.76,100.9a23.06,23.06,0,0,1,26.06,10.83,24.82,24.82,0,0,0-8.14-2.74,24.37,24.37,0,0,0-3.84-.27,21.46,21.46,0,0,1,9,6.24,21.19,21.19,0,0,1,3.88,6.83,10.15,10.15,0,0,0-7-2.94,9.87,9.87,0,0,0-5.49,1.71,12.7,12.7,0,0,1,6.79,1.92c4.28,2.75,6.52,8.18,6,14-.28-.69-2.47-5.94-7.79-7.27a10.46,10.46,0,0,0-4.93,0Z"/><path class="cls-20" d="M81.23,205.37a173.6,173.6,0,0,0-17.8,79.14,31.16,31.16,0,0,0,11.24-.95,143.9,143.9,0,0,1,6.56-78.2Z"/><path class="cls-21" d="M137.67,393.58c13.74-25.86,41-41.59,69.69-40.29,41.73,1.89,62,38.61,62.85,40.29a319,319,0,0,1-132.54,0Z"/><path class="cls-15" d="M142.27,386.11a137.85,137.85,0,0,0,123-.09l4.92,7.55a319,319,0,0,1-132.54,0Z"/><path class="cls-22" d="M148.64,382.68c2.51-3.11,21.87-26.29,54.84-26.52,33.91-.24,53.83,24,56.19,27a170,170,0,0,1-111-.45Z"/><path class="cls-23" d="M330.91,408.6A142.22,142.22,0,0,1,262.68,395,91.24,91.24,0,0,1,320,328.29Z"/><path class="cls-3" d="M289.07,368.23c0,21.16,31.31,44.36,61.62,42.44,29.32-1.86,59-27.31,55.91-51.42-2.18-17.07-20.16-28.55-33.06-32.78C337.69,314.72,289.1,341.9,289.07,368.23Z"/><path class="cls-15" d="M313.38,401.25a146.49,146.49,0,0,1-50.7-6.25,142.22,142.22,0,0,0,68.23,13.6Z"/><path class="cls-4" d="M351.79,323.74c-25.1-.66-45.57,19.39-45.94,42.68-.38,24.62,21.83,46,48.34,43.91-36.67,5.54-64.75-20.25-65.12-42.09C288.7,346.6,315.35,320.12,351.79,323.74Z"/><path class="cls-21" d="M318.61,372.52a22.14,22.14,0,0,0,11.1,18.31c10.44,6,21.8.44,26.07-1.66,3.49-1.71,15.48-7.61,15.53-16.64.07-10.74-16.81-17.11-20-18.31-5.92-2.23-13.79-5.21-21.64-1.11A21.47,21.47,0,0,0,318.61,372.52Z"/><path class="cls-15" d="M338.46,351.06c-10.67.76-19.17,8.62-20.52,18.08-1.6,11.25,7.18,22.86,20.09,24.29-.91-.63-11-8-11-21.15C327.1,358.93,337.6,351.64,338.46,351.06Z"/><path class="cls-21" d="M398.11,375.11c.67,4.4-4.65,9.16-9.21,8a7.05,7.05,0,0,1-5.1-6.74,7.14,7.14,0,0,1,5.1-6.74C393,368.43,397.55,371.49,398.11,375.11Z"/><path class="cls-21" d="M395,349.84c.67,4.4-4.65,9.16-9.21,8a7.05,7.05,0,0,1-5.1-6.74,7.14,7.14,0,0,1,5.1-6.74C389.93,343.16,394.48,346.22,395,349.84Z"/><path class="cls-21" d="M374.59,337.72c.67,4.4-4.65,9.16-9.21,8a7.05,7.05,0,0,1-5.1-6.74,7.14,7.14,0,0,1,5.1-6.74C369.49,331,374,334.1,374.59,337.72Z"/><path class="cls-23" d="M75.92,408a142.22,142.22,0,0,0,68.23-13.6,91.24,91.24,0,0,0-57.34-66.71Z"/><path class="cls-3" d="M117.75,367.67c0,21.16-31.31,44.36-61.62,42.44-29.32-1.86-59-27.31-55.91-51.42,2.18-17.07,20.16-28.55,33.06-32.78C69.13,314.16,117.72,341.34,117.75,367.67Z"/><path class="cls-15" d="M93.44,400.69a146.49,146.49,0,0,0,50.7-6.25A142.22,142.22,0,0,1,75.92,408Z"/><path class="cls-4" d="M55,323.18c25.1-.66,45.57,19.39,45.94,42.68.38,24.62-21.83,46-48.34,43.91,36.67,5.54,64.75-20.25,65.12-42.09C118.12,346,91.47,319.56,55,323.18Z"/><path class="cls-21" d="M88.21,372a22.14,22.14,0,0,1-11.1,18.31c-10.44,6-21.8.44-26.07-1.66C47.55,386.88,35.56,381,35.5,372c-.07-10.74,16.81-17.11,20-18.31,5.92-2.23,13.79-5.21,21.64-1.11A21.47,21.47,0,0,1,88.21,372Z"/><path class="cls-15" d="M68.28,350.5c10.78.64,19.41,8.54,20.77,18.08,1.61,11.31-7.27,23-20.25,24.3,1.08-.88,10.5-8.87,10-22C78.3,358.54,69.53,351.48,68.28,350.5Z"/><path class="cls-2" d="M25.63,222.08"/><path class="cls-24" d="M49.69,198.32c-.14.54,47.76,12.53,89,22.3,42.26,10,53.09,11.92,68.58,11.74,7.53-.09,18.85-.7,62.1-10.9,42.18-10,82.76-21.49,82.5-22.49-.3-1.18-56.82,11.62-80.2,16.91-39.65,9-48,11.48-65.16,11.19-19.4-.32-40.82-4.08-53.53-6.3-9.08-1.59-15.08-3-32-6.64C72.08,203.6,49.79,197.94,49.69,198.32Z"/><path class="cls-25" d="M272.15,267.37A84.62,84.62,0,0,1,290.74,298C308.82,351.48,263,403.12,259.49,407c-16.58,1-34.08,1.57-52.42,1.58-19.61,0-38.27-.6-55.87-1.68-6.63-6.43-30.38-31-34.58-71-4.28-40.9,14.72-70.31,19.87-77.77,9.37-5.4,43.88-23.75,86.8-14.36A118.14,118.14,0,0,1,272.15,267.37Z"/><path class="cls-25" d="M290.8,296.36c2.59-.83,10.1-3.63,14.39-11.22s5.17-19.35-1.17-24.39c-3.81-3-9.06-2.64-10.15-2.53-1.49.15-5.74.57-8.28,3.7-1.25,1.53-1,2.43-2.16,4.87a21.22,21.22,0,0,1-5.61,7.21c-10.79,12.45-13.7,24.59-9.94,28.24C271.25,305.52,281,302.91,290.8,296.36Z"/><path class="cls-26" d="M165.23,266.08a257.19,257.19,0,0,1,84.61,27.64,251.12,251.12,0,0,1,27.1,16.83l16.68-1.3a97.85,97.85,0,0,0-12.12-29.33,67.7,67.7,0,0,0-9.34-12.55,74.18,74.18,0,0,0-32.7-19.8C201.17,236.75,168.71,263.15,165.23,266.08Z"/><path class="cls-27" d="M117.18,308.83a851.07,851.07,0,0,0,89.29,4.8,851.27,851.27,0,0,0,87.16-4.38,100.3,100.3,0,0,1-9.78,60.34,669.06,669.06,0,0,1-77.91,4.7,669.13,669.13,0,0,1-80.39-4.7,111.65,111.65,0,0,1-8.36-60.76Z"/><path class="cls-28" d="M133.23,239.49c-2.46,4.91,4.21,9.78,1.87,18.6-1.79,6.71-7.38,10.38-9.39,12-7.28,5.69-14.68,20.78-13.58,63.34a2.58,2.58,0,0,0,4.54,1.68c1.91-33.78,6.35-46.07,10.2-50.88a124.38,124.38,0,0,0,7.57-10c1.67-2.46,5-6.82,6.93-10.57,4-7.9,5.71-8.43,6.74-8.31,2,.24,4,4.34,3.28,7.72-1,4.29-5.73,4.53-7,9.34-.5,1.91-.41,4.7,1.18,6.12,2.86,2.56,9.09-.7,9.86-1.11,3.71-2,3.78-3.78,8.81-8.51,4.6-4.33,7.39-7,10.26-6.41,4,.75,4.12,6.77,8,7.14,2.76.27,5.41-2.5,7.3-4.49,2.85-3,2.3-4.21,4.37-5.69,4-2.86,10-1,11.17-.66,5.51,1.7,6.73,5.07,10.68,4.71,1.65-.15,2.77-.86,4.94-2.41,9.66-6.89,10.41-10.09,13.38-10.14,4.25-.06,4.3,6.57,12.75,13.67,6.58,5.52,9.77,4.22,13.15,9.22,3,4.46,1.48,7,3.37,14.23,2.74,10.46,7.13,9.65,10.75,19.71,4.46,12.39.24,20.37,5.48,23.53a9,9,0,0,0,9.63-.76c8.35-6.64-1.17-30.81-1.63-32-7.41-18.38-17.8-21.72-15.72-31.21,1.34-6.1,6.49-8.62,8.66-19.74.83-4.27,1.25-6.41.48-8.13-2.75-6.14-14.54-5.08-48.19-5-16,0-16.93-.21-29.83,0-17.34.25-15.79.67-30.05.91C145.8,235.83,135.9,234.17,133.23,239.49Z"/><path class="cls-25" d="M120,298c-.71-.31-15.39-7-16.44-20.58-.44-5.63,1.22-15.57,8.46-18.19,5.27-1.91,12.28.51,14.8,4.61.91,1.47.81,2.22,1.93,5A21.22,21.22,0,0,0,134,276.3c10.46,5.52,13.72,16.26,10.76,21.34C141.73,302.9,130.11,305.39,120,298Z"/><path class="cls-29" d="M132.35,277c-1.19.54-3.75,1.46-6,.43-3.53-1.59-5.49-7.43-3.11-13.82a29.58,29.58,0,0,0,4.92,9.08A29.26,29.26,0,0,0,132.35,277Z"/><path class="cls-29" d="M278.74,274.07a7.45,7.45,0,0,0,8.38,2.26,7.21,7.21,0,0,0-1.43-13.89,18.35,18.35,0,0,1-1.64,5.15A18.6,18.6,0,0,1,278.74,274.07Z"/><text class="cls-30" transform="translate(144.9 367.5) scale(1.23 1)">HUNNY</text><path class="cls-31" d="M277.66,236.33c0-.32-.7-.7-3.05-1.13-14.19-2.62-54.92-.95-66-.79-16.37.23-51.5-1.65-68.4,1.45-1.89.35-3.68.78-3.66,1.25,0,1.5,18.41,2.44,32,2.56,19.77.18,19.91-1.44,37.34-1.5,22.25-.07,25.21,2.56,46.59,1.5C262.55,239.17,277.66,237.8,277.66,236.33Z"/><path class="cls-32" d="M247.11,263.56a25.62,25.62,0,0,0,4.91,3.75c3.59,2.1,5.65,2.11,7.89,4.27,1.43,1.38,2,2.77,3,5,2.85,6.85,1.07,9.91,3.74,15.55,1.06,2.23,1.22,1.53,3.85,5.6a58.18,58.18,0,0,1,6.46,12.78c3.32,10.1,0,15.94,3.92,18.91,1.91,1.43,4.4,1.35,6.12,1.09a15.9,15.9,0,0,1-4-3.3c-4.55-5.25-2.61-10.34-4.51-18-2.66-10.71-8.11-8.73-11.12-20.54-1.74-6.81-.65-10.65-4.46-15.31a29.62,29.62,0,0,0-7.24-5.95A36.69,36.69,0,0,0,247.11,263.56Z"/><path class="cls-33" d="M133.22,274.62a30.91,30.91,0,0,0,4.25-5.7c3.15-5.45,2.88-8.93,6.21-12.25a13.61,13.61,0,0,1,4.85-3.06c-3.63.29-5.63,1.55-6.81,2.72-.56.56-.78.95-3.32,6.38-1.82,3.89-2.38,5.12-3.66,6.64a16.5,16.5,0,0,1-3.17,2.88Z"/><path class="cls-32" d="M135.47,238.44a213,213,0,0,0,36.62,2.3c12-.3,16.84-1.49,31.32-1.53,3.49,0,6.44.05,9.08.15,9.58.37,16.48,1,18.48,1.15,20.17,1.77,46.84-2.3,46.85-2.24s-.76.09-4.37.42a140.35,140.35,0,0,1-17.3,2.61c-20.51,1.77-36.82-1.43-55-1.2-6.57.08-11.1.43-11.1.43-7.66.58-10.53,1.49-22.3,1.19A212.38,212.38,0,0,1,135.47,238.44Z"/><path class="cls-32" d="M170.95,240.76c7.51-.68,19.58-1.56,32.46-1.55,3,0,7.45-.07,13.33.3q7,.44,14.23,1l7.28.6c-1.3.14-3.26.33-5.63.44-5.73.27-8.24-.15-11.86-.14-7.09,0-7.37,1.67-14.47,2.11-4.93.31-7.2-.33-14.27-1.21C187.08,241.71,179.9,241,170.95,240.76Z"/><path class="cls-32" d="M275.67,237.33a11.08,11.08,0,0,1,1.88,7.81,10.93,10.93,0,0,1-3.06,6.06,22.15,22.15,0,0,1,.86,9.49c2.7-3.36,7.4-10.34,6.42-18.68a19.41,19.41,0,0,0-.47-2.51,3.84,3.84,0,0,0-1.14-1.66C278.34,236.34,275.81,237.28,275.67,237.33Z"/><path class="cls-33" d="M277.51,237.3a14.05,14.05,0,0,1-2.24,17.28q.07,1,.11,2.11c0,1.41,0,2.74,0,4a27.51,27.51,0,0,0,4.9-8.22,21.72,21.72,0,0,0,1.65-8.33,20.27,20.27,0,0,0-.6-4.64,2.76,2.76,0,0,0-1.14-1.66A3.55,3.55,0,0,0,277.51,237.3Z"/><path class="cls-33" d="M172.67,261.51a50.67,50.67,0,0,0-7.29,5.82c-4.53,4.36-5.4,6.82-9.4,9.11-1,.56-6.91,4-9.51,1.6-2-1.8-.87-5.9-.68-6.54,0,.76-.09,4.26,2,5.53,2.24,1.37,5.59-.68,7.87-2.09,4.52-2.78,5.25-5.3,9.59-8.86A32.83,32.83,0,0,1,172.67,261.51Z"/><path class="cls-32" d="M112,322.38c.3-3.88.72-7.38,1.17-10.45.51-3.48.83-4.8,1.07-7.29a50,50,0,0,0-.11-10.51q-.61,4.3-1.08,8.89C112.41,309.84,112.09,316.31,112,322.38Z"/><path class="cls-32" d="M179.24,266.15a4.22,4.22,0,0,0,2.39,2.36,4,4,0,0,0,2.14.06c1.24-.26,2-.94,3.56-2.3a16.48,16.48,0,0,0,3.05-3.4c.75-1.13.76-1.48,1.2-2.14.74-1.13,2.27-2.48,5.76-3.15a8.06,8.06,0,0,0-4,2.27c-.9,1-.81,1.45-2,3.12A24.72,24.72,0,0,1,188,266.5c-.92.87-1.72,1.57-2.29,2.06a4.43,4.43,0,0,1-4.88.08A4.17,4.17,0,0,1,179.24,266.15Z"/><path class="cls-32" d="M209.67,259.87c1.64,1.29,4.68,3.25,7.82,2.49,1-.25,2.23-1.17,4.64-3a40.59,40.59,0,0,0,5.8-5.13,13.75,13.75,0,0,1,2.23-2.27,10.15,10.15,0,0,1,4.64-1.79,10.15,10.15,0,0,0-3.26,1.3,11.39,11.39,0,0,0-2.69,2.44,42.66,42.66,0,0,1-5.1,4.63c-3.51,2.91-5.26,4.36-7.35,4.5a7.83,7.83,0,0,1-5.2-1.54A7.18,7.18,0,0,1,209.67,259.87Z"/><path class="cls-27" d="M227.43,290.52c0,.32-11.11,2.4-25.08,2.39-14.89,0-26.72-2.4-26.68-2.72s10.09,1.22,25.88,1.31S227.4,290.22,227.43,290.52Z"/><path class="cls-27" d="M217,295.17c0,.37-7,1.83-15.39,1.74s-15.33-1.7-15.29-2.07,5.34.37,15.49.47C211.81,295.41,217,294.85,217,295.17Z"/><path class="cls-27" d="M243.22,264.47c0,.32-11.11,2.4-25.08,2.39-14.89,0-26.72-2.4-26.68-2.72s10.09,1.22,25.88,1.31S243.19,264.17,243.22,264.47Z"/><path class="cls-34" d="M286.78,262.06a7.76,7.76,0,0,1,4.38,2.87A8.4,8.4,0,0,1,289.29,276c-3.29,2.43-7.36,1.1-7.78,1a8.94,8.94,0,0,0,9.65-1c3.25-2.75,4.08-8,1.53-11.25A8.18,8.18,0,0,0,286.78,262.06Z"/><path class="cls-35" d="M125.54,369.59a627.65,627.65,0,0,0,108.89,4.32c17.39-.83,33.89-2.34,49.42-4.32A156.45,156.45,0,0,1,259.49,407c-17.06,1-35.1,1.58-54,1.57s-37.13-.63-54.24-1.66a118.51,118.51,0,0,1-25.67-37.28Z"/><path class="cls-36" d="M121.49,297.83A224.25,224.25,0,0,0,151.2,406.88c-7.18-6.57-26.59-26.11-32.71-58.05A105.26,105.26,0,0,1,121.49,297.83Z"/><path class="cls-37" d="M287.16,290.43c9.13-1,16.21-7.76,17.28-15.85,1.23-9.3-6.07-15.79-6.64-16.29a12.19,12.19,0,0,1,6.62,2.8c6.26,5.57,4.72,18.29-.68,26.13A25.93,25.93,0,0,1,289.89,297Z"/><path class="cls-37" d="M122.91,291a16,16,0,0,1-8.82-3c-6.71-5-8.83-15.94-4.86-27.13-.89,1-7.26,8.75-5.32,19,1.63,8.67,8.53,15.71,17.58,18Z"/><path class="cls-34" d="M122.71,263.5c-3.93,6.2-2.39,13,1.35,15.17,3.36,1.95,7.79-.26,8.32-.52-.52.21-4.17,1.64-7.29-.3a7.72,7.72,0,0,1-3-3.83C120.14,269.39,122.13,264.75,122.71,263.5Z"/><path class="cls-38" d="M126.87,284.18l-2.53,5.43c-1.82-.2-7.23-1-11-5.47-4.85-5.69-5-15,.08-22.7-2.7,7.12-1.23,14.7,3.6,19A15.54,15.54,0,0,0,126.87,284.18Z"/><path class="cls-38" d="M283.91,283.43l2,3.82c1,0,7.7.05,11.4-4.7,4.15-5.34,3.06-14.84-4.1-21.2,5.37,5.54,5.77,13.52,1.89,18.13S284.54,283.5,283.91,283.43Z"/><path class="cls-39" d="M66.29,178.77h0s34.22,20.35,58.8,30.44c16.88,6.94,42.38,14.43,77.64,14.46,92.72-13.52,118.15-22.49,122-28.42,0,0,8.57-13.07,18.31-18.36h0l-2,.93c-1.45.66-28,12.16-42.95,17.32-53.74,18.6-92.6,18.74-92.6,18.74-30.22.11-53-6.14-83.46-14.48A380.09,380.09,0,0,1,77.89,184C73.73,182.25,69.86,180.48,66.29,178.77Z"/><path class="cls-39" d="M80,309l32.06,11.64,0-3.33Z"/><path class="cls-39" d="M325.87,308.9c.1.24-5.37,2.87-30.81,13.79l-.29-4.11c4-1.06,9.76-2.7,16.73-4.93C320.51,310.75,325.78,308.67,325.87,308.9Z"/><path class="cls-20" d="M319.29,206.36c.6-.24,11.11,19.22,17.27,46a194.23,194.23,0,0,1,4.62,32.32q-3.41.91-7.09,1.73-2.73.6-5.35,1.1a127.84,127.84,0,0,0,1.77-41.29C327.61,222.74,318.72,206.59,319.29,206.36Z"/><path class="cls-40" d="M66.29,178.77c-1.57.4-11.08,3-15,11.86a19.25,19.25,0,0,0-1.61,7.69c8,1.81,20.06,4.51,34.65,7.72,70.83,15.61,106.27,23.33,118.19,23.45,26.33.25,56.47-7.17,116.75-22,13.65-3.36,24.9-6.38,32.58-8.51.39-.38,5.18-5.25,3.9-11.71-1.11-5.6-6.3-10-12.68-10.37a272.17,272.17,0,0,1-137.76,39A272.19,272.19,0,0,1,66.29,178.77Z"/><polygon class="cls-41" points="343.09 176.89 337.69 174.94 335.5 180.54 343.09 176.89"/><path class="cls-42" d="M185.72,159.16c17,3.65,32.44.39,37.1-.65,24.34-5.4,33.48-18.69,43.58-15.35,3.68,1.22,8,4.82,9.76,15.89a28.22,28.22,0,0,1-4.83,16.75c-21.83,31.64-119.7,31.45-135.76,1.54-3.19-5.95-2.72-12.28-1.55-17.21,2.57-4.7,6.84-10.44,13.78-12.45C158.84,144.48,166,154.94,185.72,159.16Z"/><path class="cls-43" d="M157.41,148.07c-3.64,8.46-1.51,17.51,3.79,21.25,6.78,4.79,20,1.82,25.52-10-3.07-.75-5.74-1.55-7.94-2.28,0,0-3.43-1.14-7-2.6-1-.39-2.47-1-4.43-2h0l-3-1.45c-2.4-1.19-3.26-1.66-4.74-2.22C158.71,148.47,157.93,148.22,157.41,148.07Z"/><path class="cls-44" d="M159.24,165.65c4.48,5.58,13.24,4.74,13.28,4.55s-6.86.2-11.22-4.44c-4.69-5-3.49-12.64-3.89-12.61S155.17,160.58,159.24,165.65Z"/><path class="cls-43" d="M190.24,160c0,9,5.15,16.34,11.22,17.77,7.85,1.85,18.9-5.8,19.66-18.87a109.57,109.57,0,0,1-30.88,1.1Z"/><path class="cls-44" d="M201.57,176.15c6.94,1.74,13.42-4.23,13.33-4.41s-5.34,4.3-11.62,3.24c-6.76-1.14-10.42-8-10.72-7.69S195.26,174.57,201.57,176.15Z"/><path class="cls-43" d="M223.22,158.43c3.27,8.76,10.88,14.1,17.21,13.33,8.19-1,16.23-12.46,12.24-25.65-1.34.76-3.21,1.8-5.49,3-3,1.57-5.81,2.95-7.33,3.65A100.07,100.07,0,0,1,223.22,158.43Z"/><path class="cls-44" d="M244,169.6c6.59-2.79,8.16-11.46,8-11.55s-1.67,6.65-7.33,9.59c-6.08,3.16-13.11-.08-13.19.31S238,172.14,244,169.6Z"/><path class="cls-45" d="M179.17,181.24c-2.14-.08-18.45-.39-29.51,12.65a36.61,36.61,0,0,0-8.43,22.76,25.22,25.22,0,0,0,9.27,13.91,24.28,24.28,0,0,0,9.69,4.22,47.5,47.5,0,0,0,17.28-4.22c19.78-9.1,26.46-29.28,27.82-33.72q-2.38,1-2.29,1.53.25,1.61,20,.16a18.85,18.85,0,0,0-2.11-9.27c-6.67-12.42-26.45-11.49-28.24-11.38A38.48,38.48,0,0,0,179.17,181.24Z"/><path class="cls-46" d="M223,198.52a24,24,0,0,1-12.93-1.72,22.9,22.9,0,0,1-5.07-3.08l-1.23,6.3q.9.09,1.83.15A56.25,56.25,0,0,0,223,198.52Z"/><path class="cls-46" d="M181.73,180.19a24.54,24.54,0,0,0-5.62,18.19,18.9,18.9,0,0,1,.3-12.52,17.38,17.38,0,0,1,2.75-4.62Z"/><path class="cls-47" d="M155.1,204.11c-4.28,8.32-4.9,14.65-6.11,14.48s-2.62-7.9-.2-15c4.36-12.7,19.22-18.69,20.15-17.54C169.66,187,161.43,191.81,155.1,204.11Z"/><path class="cls-48" d="M205,193.72c-2.52,5.71-10.13,20.84-27.4,30.47a63.11,63.11,0,0,1-25.1,7.68,10,10,0,0,0,5,3.38,10.34,10.34,0,0,0,7.84-1,48.48,48.48,0,0,0,21.56-9.48C201.13,213.63,204.3,197.95,205,193.72Z"/><path class="cls-31" d="M198,205.17c-1,1.63-1.35,2.07-2,3.11a12.11,12.11,0,0,1-3.85,4,4.05,4.05,0,0,0-1.15.91c-.89,1.21.05,3-.5,4.39-.45,1.12-1.7,1.65-2.59,2.48-1.14,1.07-1.67,2.7-2.87,3.71-1.42,1.19-3.44,1.27-5.29,1.27a3.21,3.21,0,0,1-1.7-.33,2.12,2.12,0,0,1-.78-2.3,4.75,4.75,0,0,1,1.39-2.15,13.2,13.2,0,0,1,4-2.7,13.34,13.34,0,0,0,3-1.46,8.85,8.85,0,0,0,1.45-1.56l3-3.86a23.19,23.19,0,0,1,2.71-3.06,20,20,0,0,1,3.35-2.34,16.64,16.64,0,0,0,5.38-5.77C200,201.82,198.79,203.78,198,205.17Z"/><path class="cls-31" d="M141.84,218.62a26.64,26.64,0,0,0,7.15,2.83c3.84.9,5.3.31,11.71.77,4.85.34,6.93,1.44,9.6,1a19.76,19.76,0,0,1,5.09-.84,2.71,2.71,0,0,0,1.38-.19c1.07-.49,1.09-1.54,1.92-1.93.44-.2,1.15-.25,2.36.46l4,3a32.65,32.65,0,0,1-7.56,6.83c-3.18,2.07-8.6,6.05-15.57,4.9a25.64,25.64,0,0,1-20.08-16.84Z"/><path class="cls-39" d="M74.44,285.79a110.28,110.28,0,0,1-17.13,0,112.16,112.16,0,0,1-36.89-9.38,108.66,108.66,0,0,0,54.24,7.15Z"/><path class="cls-39" d="M328.68,289.63a256.2,256.2,0,0,0,28.09-5.83c14.6-3.89,26.24-8.37,26.15-8.63s-11.25,3.66-27.44,7.39c-11.22,2.58-20.55,4.08-26.74,4.95Z"/><path class="cls-49" d="M351.87,199c17.28,7,23.91,15.74,26.71,22.69,4.78,11.88-.08,22.33,7.55,35.5a40.49,40.49,0,0,0,12,12.84,33.43,33.43,0,0,1-13.8-10.74c-7.54-10.41-4.24-20.46-7.86-32.25C374.14,219.3,368.2,208.92,351.87,199Z"/><path class="cls-49" d="M49.69,198.32a41.17,41.17,0,0,0-16.39,9.25,40.64,40.64,0,0,0-7.74,9.91c-8.29,14.92-1.34,25.21-8.29,38.46a34.74,34.74,0,0,1-12,12.84A33.43,33.43,0,0,0,19,258c7.47-10.3,4.16-20.23,7.86-32.25C29.2,218.27,34.79,208.18,49.69,198.32Z"/><path class="cls-21" d="M11.86,374.74c-.67,4.4,4.65,9.16,9.21,8a7.05,7.05,0,0,0,5.1-6.74,7.14,7.14,0,0,0-5.1-6.74C17,368.07,12.41,371.12,11.86,374.74Z"/><path class="cls-21" d="M14.93,349.48c-.67,4.4,4.65,9.16,9.21,8a7.05,7.05,0,0,0,5.1-6.74,7.14,7.14,0,0,0-5.1-6.74C20,342.8,15.48,345.86,14.93,349.48Z"/><path class="cls-21" d="M35.38,337.36c-.67,4.4,4.65,9.16,9.21,8a7.05,7.05,0,0,0,5.1-6.74,7.14,7.14,0,0,0-5.1-6.74C40.48,330.68,35.93,333.74,35.38,337.36Z"/><circle class="cls-4" cx="315.1" cy="144.41" r="9.84" transform="translate(44.54 361.07) rotate(-63.31)"/><circle class="cls-4" cx="320.32" cy="159.65" r="3.53" transform="translate(-1.63 316) rotate(-52.39)"/><circle class="cls-4" cx="54.33" cy="302.42" r="9.84" transform="translate(-246.96 242.12) rotate(-68.5)"/><circle class="cls-4" cx="39.62" cy="309" r="3.53" transform="translate(-242.47 176.79) rotate(-57.58)"/></g></g></svg>