<svg xmlns="http://www.w3.org/2000/svg" viewBox="0 0 436.32 417.96"><defs><style>.cls-1{fill:#512f12;}.cls-2{fill:#6a737b;}.cls-3{fill:#dc8927;}.cls-4{fill:#66686a;opacity:0.38;}.cls-5{fill:#faa21b;}.cls-19,.cls-20,.cls-6,.cls-8,.cls-9{fill:#e38b25;}.cls-7{fill:#d67b28;}.cls-8{opacity:0.59;}.cls-9{opacity:0.44;}.cls-10{fill:#f3f3f3;stroke:#df9026;stroke-miterlimit:10;stroke-width:3.4px;}.cls-11{fill:#fff;}.cls-12{fill:#bf3b27;}.cls-13{fill:#f0d2d4;opacity:0.63;}.cls-14{fill:#5f3816;}.cls-15{fill:#e39225;}.cls-16{fill:#f39720;}.cls-17{fill:#fcf1f7;}.cls-18{fill:#f9fae5;}.cls-19{opacity:0.26;}.cls-20{opacity:0.21;}.cls-21{fill:#d29556;}.cls-22{fill:#d8a373;}</style></defs><title>wolverine-icon</title><g id="Layer_2" data-name="Layer 2"><g id="Layer_1-2" data-name="Layer 1"><path class="cls-1" d="M40.14,334.07c-3.27,5.14-1.06,11.44,2.95,13.23s10.19-.77,11.83-6.65l-7.6-3.27"/><path class="cls-1" d="M74.19,344.16c-.33,7.56,4.7,13.3,9.08,13s8.52-6.63,7.06-14.08l-8.25.67"/><path class="cls-1" d="M54.33,347.07c-.33,7.56,4.7,13.3,9.08,13s8.52-6.63,7.06-14.08l-8.25.67"/><path class="cls-2" d="M42.72,337.35a129,129,0,0,0,.68,42.3,10.65,10.65,0,0,0,4,8.68,199.09,199.09,0,0,1-2-51.62Z"/><path class="cls-2" d="M81.34,343.91a138,138,0,0,0,.68,42.3,10.66,10.66,0,0,0,4,8.68,190.68,190.68,0,0,1-2-51.62Z"/><path class="cls-2" d="M59.27,345.91a143.15,143.15,0,0,0,.68,42.3,10.65,10.65,0,0,0,4,8.68,196.86,196.86,0,0,1-2-51.62Z"/><path class="cls-1" d="M348.54,361.88c-2.35,5.62.9,11.46,5.16,12.54s9.91-2.5,10.52-8.57l-8-1.93"/><path class="cls-1" d="M381.61,357.65c3.15,6.88,10.24,9.7,14,7.46s4.57-9.78-.12-15.75l-7,4.35"/><path class="cls-1" d="M368.64,369.29c3.15,6.88,10.24,9.7,14,7.46s4.57-9.78-.12-15.75l-7,4.35"/><path class="cls-3" d="M63.26,222.93,51.09,251,50,255.72l-2.2,9.45a9.23,9.23,0,0,0,3.43,9.47,8,8,0,0,0-7.07,6.15,7.05,7.05,0,0,0-2.37,3.3,7.25,7.25,0,0,0,.36,5.33,8.44,8.44,0,0,0,.28,5.73,8.35,8.35,0,0,0,3.15,3.71,10.92,10.92,0,0,0-7.65,8.65,8.41,8.41,0,0,0,.15,6.3,8.17,8.17,0,0,0,3.18,3.58,20.16,20.16,0,0,0-1.95,10.3c.84,9.35,8.49,15,11.19,17,15.93,11.7,39.55,1.13,41,.45l6.24-13.94Z"/><path class="cls-2" d="M395.05,353.91a129,129,0,0,1-.68,42.3,10.65,10.65,0,0,1-4,8.68,199.09,199.09,0,0,0,2-51.62Z"/><path class="cls-2" d="M357.47,360.47a138,138,0,0,1-.68,42.3,10.66,10.66,0,0,1-4,8.68,190.68,190.68,0,0,0,2-51.62Z"/><path class="cls-2" d="M379.54,362.47a143.15,143.15,0,0,1-.68,42.3,10.65,10.65,0,0,1-4,8.68,196.86,196.86,0,0,0,2-51.62Z"/><ellipse class="cls-4" cx="218.16" cy="399.59" rx="197.37" ry="18.37"/><path class="cls-5" d="M88.52,133.81a75.05,75.05,0,0,0-17.51.1,75.89,75.89,0,0,0-27.26,8.87A72.39,72.39,0,0,0,0,147.86,74.56,74.56,0,0,1,20,154c8.38,4,13.08,8.13,26.12,18.89,5.23,4.31,13.15,10.79,23.09,18.73a43.65,43.65,0,0,0,21.51-24C96.8,150.69,89.76,136.24,88.52,133.81Z"/><path class="cls-6" d="M82.69,148a60.5,60.5,0,0,0-16-1.53c-10,.38-14.54,3.09-24.09,4.32a70.49,70.49,0,0,1-21.86-.71,136.79,136.79,0,0,1,30.32,18.34,136.56,136.56,0,0,1,19.71,19.31c2.34-1.84,12.2-10,13.83-23.88A34.35,34.35,0,0,0,82.69,148Z"/><path class="cls-7" d="M20.78,150.11c10.56,5.33,18.13,5.24,23.15,4.13,5.67-1.26,8.34-3.9,15.82-4.13a46.46,46.46,0,0,1,13.12,1.8,64,64,0,0,1,11.76,4.2L82.69,148a58.82,58.82,0,0,0-30,.77,71.81,71.81,0,0,1-31.92,1.31Z"/><path class="cls-5" d="M347.79,142.31a75.05,75.05,0,0,1,17.51.1,75.89,75.89,0,0,1,27.26,8.87,72.39,72.39,0,0,1,43.75,5.09,74.56,74.56,0,0,0-20,6.14c-8.38,4-13.08,8.13-26.12,18.89-5.23,4.31-13.15,10.79-23.09,18.73a43.65,43.65,0,0,1-21.51-24C339.52,159.19,346.56,144.74,347.79,142.31Z"/><path class="cls-6" d="M353.63,156.52a60.5,60.5,0,0,1,16-1.53c10,.38,14.54,3.09,24.09,4.32a70.49,70.49,0,0,0,21.86-.71,136.47,136.47,0,0,0-50,37.65c-2.34-1.84-12.2-10-13.83-23.88A34.35,34.35,0,0,1,353.63,156.52Z"/><path class="cls-7" d="M415.53,158.6c-10.56,5.33-18.13,5.24-23.15,4.13-5.67-1.26-8.34-3.9-15.82-4.13a46.46,46.46,0,0,0-13.12,1.8,64,64,0,0,0-11.76,4.2l1.94-8.08a58.82,58.82,0,0,1,30,.77,71.81,71.81,0,0,0,31.92,1.31Z"/><path class="cls-3" d="M373,243.13l12.16,28,1.11,4.76,2.2,9.45a9.23,9.23,0,0,1-3.43,9.47,8,8,0,0,1,7.07,6.15,7.05,7.05,0,0,1,2.37,3.3,7.24,7.24,0,0,1-.36,5.33,8.44,8.44,0,0,1-.28,5.73,8.35,8.35,0,0,1-3.15,3.71,10.92,10.92,0,0,1,7.65,8.65,8.41,8.41,0,0,1-.15,6.3,8.17,8.17,0,0,1-3.18,3.58,19.46,19.46,0,0,1,1.95,10.3c-1.18,11.39-13.64,19.09-23,21-12.86,2.68-27-3.93-35.89-16.65l-7.75-17.95Z"/><path class="cls-5" d="M177.9,71.88a119.17,119.17,0,0,0-50.67,20.27L109,102.56,87.42,116a5.41,5.41,0,0,0-.82,6.89,5.48,5.48,0,0,0,8.06.34,29.89,29.89,0,0,0-14.28,5.47,29.29,29.29,0,0,0-6.71,6.83c-3.36,2.7-3.26,7.3-1,9.22,1.77,1.53,5.07,1.51,7.56-.53.86-.7-11.39,5.25-13.2,13.2-.87,3.8.79,7.46,2.34,10a79.64,79.64,0,0,0-6.62,63.66,72.93,72.93,0,0,0-2.87,29.52c.71,6.22,1.76,15.35,6.51,16.59,4.2,1.1,9-4.57,10.28-6.08-1.83,2.87-9,14.85-5.75,29.71A37.65,37.65,0,0,0,78,315.92a3.28,3.28,0,0,0,5.48-2.74,9.2,9.2,0,0,0,2.74,11,5.17,5.17,0,0,0,3.49,1.78,5.3,5.3,0,0,0,4.19-1.78,25.71,25.71,0,0,0,6,18.64,15.37,15.37,0,0,0,8.77,7.68,20.53,20.53,0,0,0-1.64,15.9c-4,3.86-21.12,21-16.41,31.44,2,4.35,6.85,5.64,45.13,8.67,33.26,2.63,42.07,2.64,47.69-3.84,4.74-5.46,5.06-13.06,4.54-18.7l.43-7.19a114.56,114.56,0,0,0,53.48.58v10.42c-.42,3.34-.61,9.32,2.93,14.32,3,4.24,8,6.78,19.3,8.34,13.08,1.79,27.46,1.28,57.95-4.9,7.13-1.45,12.93-2.76,16.64-3.61a50.65,50.65,0,0,0-4.85-14.71,51.49,51.49,0,0,0-16-18.41,35.1,35.1,0,0,0-2.49-14.47q.08-2.12.12-4.32c.05-3.43,0-6.75-.12-9.94a5.57,5.57,0,0,0,4,1.78c2.51-.12,4.84-2.41,5.27-5.61,4.88,5.23,9.56,7.55,11.36,6.24,2.06-1.5.06-7.58-.19-8.31,7.72.44,10.75-1.53,12.09-3.43,4.35-6.17,4.63-15.34,1.77-16.69-1.15-.55-2.65.33-2.69.18s5.05-1.74,11.1-4.86c1.33-.69,2.54-1.32,2.85-1.56,10-7.72,2.2-31.56,1.53-33.53l3.84-11.51a56.16,56.16,0,0,0,3-5.58,58.11,58.11,0,0,0,5.24-21.06l-.07-8.71-.11-14.81a40.78,40.78,0,0,0-9.14-27.69c4.13-22.77-.38-36.48-6.35-45.1-10.64-15.35-33.68-26.73-32-26.18a9.69,9.69,0,0,0,11.51-4.39,13.52,13.52,0,0,0-.9-6.08c-1.64-4-5-6.18-7.8-7.8a155.5,155.5,0,0,0-24.57-10.91l-38.54-9.76a10.2,10.2,0,0,0,7.15-4.84,9.5,9.5,0,0,0,1.07-5.58,30.07,30.07,0,0,0-27.41,3.84,24.73,24.73,0,0,0,7.68-15.35,25.84,25.84,0,0,0-23.58,7.13,23.11,23.11,0,0,0,3.84-22.48,33.88,33.88,0,0,0-15.78,5.53,34.47,34.47,0,0,0-13.28,17.5,16.25,16.25,0,0,0-6.13-5.52c-4.81-2.42-11.79-2.69-13.07,0s3.7,7.59,4.4,8.27a44.53,44.53,0,0,0-10-2.48c-4.14-.53-9.77-1.24-10.87.85S172.86,67.74,177.9,71.88Z"/><circle class="cls-8" cx="334.05" cy="162.48" r="17.45"/><path class="cls-1" d="M71.36,178.57A190.22,190.22,0,0,1,93.18,0C97.75,27.53,105.59,35.12,112,36.88c10.32,2.82,16-9.73,40.36-16.64,7-2,22.39-6.09,40.46-1.5a68.3,68.3,0,0,1,25.48,12.74c7.52-6.33,20-14.81,36-15.74,31.16-1.81,49.41,26.56,69.5,19.48C330.24,32.94,339,26.27,345,4.5A181.7,181.7,0,0,1,365.27,184.8c-3.87-15.69-13.31-44.19-37.77-70.19a153,153,0,0,0-33.69-26.9,92.15,92.15,0,0,0-9.65-4.82c-9.18-3.81-18.24-5.44-29.86-7.22-40.41-6.17-68.83,0-68.83,0-22.9,3.47-39.27,5.95-57.68,17.47-17.51,11-27.5,24.24-32.57,31.13A136.63,136.63,0,0,0,71.36,178.57Z"/><path class="cls-1" d="M218.12,101a62.56,62.56,0,0,0-59.46-20.56,126.16,126.16,0,0,1,120.77-1A69.4,69.4,0,0,0,218.12,101Z"/><path class="cls-9" d="M251,257.83a104.32,104.32,0,0,0,54.13-44.42,106.86,106.86,0,0,0-46.69-55.35l-80.58-.29a92.81,92.81,0,0,0-43.94,50A99.57,99.57,0,0,0,187.07,258"/><path class="cls-8" d="M71.22,248.76C69,250.86,122.7,368.26,220,367.9c93.84-.35,147.39-110,144.78-112.59s-62.87,94.55-147.4,93.43C131.89,347.61,73.37,246.75,71.22,248.76Z"/><circle class="cls-10" cx="218.18" cy="201.61" r="54.03"/><path class="cls-11" d="M262.77,189.45c6,24.91-16.39,52.43-42.08,54-28.93,1.75-54.86-29.86-48.13-55.58,5-18.94,26.67-31.08,46.74-30.29C237.75,158.3,258.12,170.07,262.77,189.45Z"/><circle class="cls-12" cx="218" cy="198.69" r="15.1"/><circle cx="218" cy="198.69" r="7.24"/><path class="cls-13" d="M222.8,194.12a11.85,11.85,0,0,0,4.56-7.25,16.14,16.14,0,0,0-18.4-.77,15.25,15.25,0,0,0,4.62,8,12.31,12.31,0,0,0,9.23,0Z"/><path class="cls-1" d="M70.53,175.33l.69,73.43L96.37,281l29.89,38.28V270.86a22.06,22.06,0,0,1,2.14-12.61c3.4-6.3,8.76-6.73,9.45-6.76H120.46a244.1,244.1,0,0,1-49.93-76.15Z"/><path class="cls-14" d="M126.25,318.39v-24a169.9,169.9,0,0,1-24.88-26.37c-.8-1.06-5.1-6.74-9.34-13.64C80.25,235.28,73.91,215,70.44,200.15l.79,47.77Z"/><path class="cls-6" d="M82.69,270.06c-1.69,1.41,47.05,100.89,136.41,101,84.83.12,134.13-89.41,132.54-90.86S295.92,359.77,220,359.37C140.05,358.95,84.36,268.67,82.69,270.06Z"/><path class="cls-7" d="M363.06,254.46l-11.41,26.73c2.95-.47,12.91-2.39,16.24-9.81.67-1.49,1.47-4.09-.18-14.22a131.47,131.47,0,0,0-4.42-18.57"/><path class="cls-1" d="M365.44,181.87l-.69,73.43a193.87,193.87,0,0,1-55,65.71V277.4a22.06,22.06,0,0,0-2.14-12.61c-3.4-6.3-8.76-6.73-9.45-6.76h17.38a244.1,244.1,0,0,0,49.93-76.15Z"/><path class="cls-14" d="M309.72,321V301a154,154,0,0,0,55.49-95.74l-.46,49.22a186.1,186.1,0,0,1-55,66.56Z"/><path class="cls-15" d="M33.27,256"/><path class="cls-15" d="M382.7,297.08"/><path class="cls-16" d="M188.64,253.72a3.43,3.43,0,0,0,.75,6.14,143.07,143.07,0,0,1,59.64.5,3.37,3.37,0,0,0,1.93-3.57,3.44,3.44,0,0,0-1.93-2.33,172.1,172.1,0,0,0-60.4-.74Z"/><path class="cls-17" d="M114.38,333.4"/><path class="cls-17" d="M196.71,321.52"/><path class="cls-7" d="M71.28,243.33l11.41,26.73c-2.95-.47-12.91-2.39-16.24-9.81-.67-1.49-1.47-4.09.18-14.22A131.47,131.47,0,0,1,71,227.46"/><circle class="cls-8" cx="302.92" cy="151.14" r="6.25"/><circle class="cls-8" cx="294.74" cy="367.06" r="11.94"/><circle class="cls-8" cx="278.76" cy="377.12" r="4.28"/><path class="cls-14" d="M93.27.24c-6,43.08.92,56,8.25,59.85,13.59,7.16,28.55-16.89,65.31-18.5,22.32-1,24.73,7.54,51.85,6.59,26.85-.94,27.79-9.41,49.17-9.22,35,.32,49.93,23.21,64.54,15.75C339.58,51,347,39.88,345,4.74c-6,21.73-14.68,28.43-21.17,30.72C302.61,43,282.45,11.18,251,14.76c-14.8,1.68-25.91,10.48-32.54,17A68.93,68.93,0,0,0,192.93,19c-20.31-5.2-38.18.61-45.35,3-21.47,7.28-26.21,17.57-35.48,15.11C105.88,35.46,98,28.15,93.27.24Z"/><path class="cls-6" d="M188,383.94l-4.17-10.13a192.56,192.56,0,0,0,66.46,0L242,387.75V377.33a114.56,114.56,0,0,1-53.48-.58Z"/><path class="cls-6" d="M231.65,404"/><path class="cls-8" d="M70.53,175.33a371.42,371.42,0,0,0,28,40.38c8.16,10.26,16.3,19.38,24.11,27.42l15.23,8.35H120.46a244.32,244.32,0,0,1-49.93-76.15Z"/><path class="cls-8" d="M365.44,181.73a371.42,371.42,0,0,1-28,40.38c-8.16,10.26-16.3,19.38-24.11,27.42l-15.23,8.35h17.38a244.32,244.32,0,0,0,49.93-76.15Z"/><path class="cls-18" d="M171.49,287.81a10.91,10.91,0,0,1,7.35-9.71,10.6,10.6,0,0,1,11,3.08Z"/><path class="cls-1" d="M218.12,101c-28.82-10.35-43.48-6.68-51.58-.87-4.16,3-6.09,6.17-15.39,14.77A233,233,0,0,1,128,133.77a78.22,78.22,0,0,0,28.75-15.18c6.46-5.46,8.24-8.88,12.31-12.31C176.45,100,190.24,94.79,218.12,101Z"/><path class="cls-1" d="M217.16,101c28.82-10.35,43.48-6.68,51.58-.87,4.16,3,6.09,6.17,15.39,14.77a233,233,0,0,0,23.21,18.87,78.22,78.22,0,0,1-28.75-15.18c-6.46-5.46-8.24-8.88-12.31-12.31C258.83,100,245,94.79,217.16,101Z"/><path class="cls-18" d="M190.85,280.31c-.48-10.13,6.07-16.67,12.06-15.28,4.58,1.07,8.88,6.79,9.84,14Z"/><path class="cls-18" d="M243.26,283.57c3.65-4.1,8.71-5.78,12.75-4.24,3.8,1.45,6.1,5.51,5.89,10.45Z"/><path class="cls-18" d="M218.4,277.55c2.8-4.73,7.44-7.34,11.7-6.6,4,.7,7,4.25,7.77,9.13Z"/><path class="cls-6" d="M167.71,289.4c-1.34.83-1.92,1.87-1.67,2.32s1.17.45,2.21.14c18.13-9.77,32.55-10.87,41.32-10.5,18.87.81,48.07,10,53.89,14.17,2.93,2.09,4.72,2.34,8.3,2.84.84.12,1.87.18,2.23-.36a1.67,1.67,0,0,0-.79-2.36c-10-6.27-45.54-26.81-84.7-15.44A86.16,86.16,0,0,0,167.71,289.4Z"/><path class="cls-9" d="M234.81,292.44c-.34,1.21-7.85.05-17.21-1.4s-15.38-2.38-15.35-3.49c0-1.33,8.75-3.17,17.56-1.7C227.91,287.2,235.17,291.18,234.81,292.44Z"/><ellipse class="cls-9" cx="192.38" cy="288.96" rx="6.42" ry="1.91"/><path class="cls-9" d="M236.34,311.35c-.23,5.58-13.84,9.78-23.93,9.82-.85,0-15.08-.05-16.55-5.62-.95-3.59,3.83-7.85,5.73-9.55a22.71,22.71,0,0,1,10.82-5.38C223.35,298.66,236.57,305.76,236.34,311.35Z"/><path class="cls-6" d="M90,400.8a8.74,8.74,0,0,1,9-9,11.34,11.34,0,0,1,11.47,11.39A27.94,27.94,0,0,1,90,400.8Z"/><path class="cls-6" d="M118.87,405a8.74,8.74,0,0,1,9-9,11.34,11.34,0,0,1,11.47,11.39A27.94,27.94,0,0,1,118.87,405Z"/><path class="cls-6" d="M147.83,408a8.74,8.74,0,0,1,8-10,11.34,11.34,0,0,1,12.63,10.09,27.94,27.94,0,0,1-20.58-.13Z"/><path class="cls-6" d="M339.39,403.09a8.74,8.74,0,0,0-9-9,11.34,11.34,0,0,0-11.47,11.39,27.94,27.94,0,0,0,20.45-2.34Z"/><path class="cls-6" d="M311.55,408.32a8.74,8.74,0,0,0-9-9,11.34,11.34,0,0,0-11.47,11.39,27.94,27.94,0,0,0,20.45-2.34Z"/><path class="cls-6" d="M281.54,411.33a8.74,8.74,0,0,0-8-10A11.34,11.34,0,0,0,261,411.45a27.94,27.94,0,0,0,20.58-.13Z"/><path class="cls-19" d="M90.85,391.88a16.4,16.4,0,0,1,22.49,3.49,31.31,31.31,0,0,1,29.08,3.3A23.42,23.42,0,0,1,158.51,395a23.17,23.17,0,0,1,12.8,6.4,15.79,15.79,0,0,0,4.07-3.68,16.14,16.14,0,0,0,3.23-8,276.72,276.72,0,0,0-74.18-12.38,49.49,49.49,0,0,0-13.57,14.54Z"/><path class="cls-20" d="M337.06,395a16.4,16.4,0,0,0-22.49,3.49,31.31,31.31,0,0,0-29.08,3.3,23.42,23.42,0,0,0-16.09-3.68,23.17,23.17,0,0,0-12.8,6.4,15.79,15.79,0,0,1-4.07-3.68,16.14,16.14,0,0,1-3.23-8,276.72,276.72,0,0,1,74.18-12.38A49.49,49.49,0,0,1,337.06,395Z"/><path class="cls-9" d="M118.26,125c9.89-9.87,14.09-24.63,11.35-26.43-3.5-2.3-18.86,16.21-20.15,17.77-3.33,4-13.16,16-10.93,18.51C100.43,137,110.93,132.33,118.26,125Z"/><path class="cls-21" d="M101.46,132.52a60.65,60.65,0,0,1-3.94-14.33,64.14,64.14,0,0,1,5.13-35.12,6.11,6.11,0,0,1,4.74-4.56A6.43,6.43,0,0,1,113,80.39a57.52,57.52,0,0,0,14.43,22,41.79,41.79,0,0,1-25.93,30.16Z"/><path class="cls-22" d="M110.44,80.42a93.89,93.89,0,0,0,3.79,37.83,24.07,24.07,0,0,0,10.5-14.29,40.72,40.72,0,0,1-6.29-6.37A41.92,41.92,0,0,1,110.44,80.42Z"/><path class="cls-9" d="M316.38,128.22c-9.56-10.2-13.27-25.08-10.47-26.79,3.57-2.18,18.32,16.82,19.55,18.43,3.2,4.15,12.63,16.4,10.31,18.86C333.8,140.81,323.46,135.77,316.38,128.22Z"/><path class="cls-21" d="M332.92,136.28a60.65,60.65,0,0,0,4.41-14.19,64.14,64.14,0,0,0-4-35.27,6.11,6.11,0,0,0-4.59-4.71,6.43,6.43,0,0,0-5.62,1.7A57.52,57.52,0,0,1,308,105.28a41.79,41.79,0,0,0,24.92,31Z"/><path class="cls-22" d="M325.67,83.91a93.89,93.89,0,0,1-5,37.68,24.07,24.07,0,0,1-10-14.63,40.72,40.72,0,0,0,6.5-6.16A41.92,41.92,0,0,0,325.67,83.91Z"/><path class="cls-5" d="M168.66,178.82a261.26,261.26,0,0,0,49.49,4.77,261.32,261.32,0,0,0,50.2-4.77c-5.77-17.51-26-29.91-49-30.2C195.7,148.32,174.59,160.85,168.66,178.82Z"/><path class="cls-1" d="M264.9,169.71a40.54,40.54,0,0,0-18.57-20c-16.68-8.42-32.89-1.37-35.07-.38l6.1-8.77a31.88,31.88,0,0,0-29.64,8.12l-2.39-7.87a14.07,14.07,0,0,0-5.94,15.24,11.43,11.43,0,0,0-6.62,6.84,16.94,16.94,0,0,0,1.09,1.33c7.26,8,20.38,7,26,6.45,10.47-.94,15.52-3.87,22.11-5.72C231.29,162.38,245.2,161.53,264.9,169.71Z"/><path class="cls-6" d="M268.35,178.82c0-.36-20.49,3.15-50.32,3.11-29.24,0-49.33-3.47-49.37-3.11s21.45,4.72,49.34,4.78C246.48,183.65,268.39,179.19,268.35,178.82Z"/><path class="cls-6" d="M267.5,183.9a7.44,7.44,0,0,0,3.48-5.81,7.05,7.05,0,0,0-3.48-6.23A396.19,396.19,0,0,1,217,178.2a396.69,396.69,0,0,1-52.91-.32,4.51,4.51,0,0,0-.42,6c16.46,1.45,34.47,2.34,53.84,2.27C235.39,186.12,252.12,185.25,267.5,183.9Z"/></g></g></svg>